<svg xmlns="http://www.w3.org/2000/svg" width="15" height="16"><g fill="none"><path fill="#95BF47" d="M12.818 3.162a.148.148 0 00-.14-.127c-.063 0-1.18-.025-1.18-.025l-1.03-1.004c-.088-.089-.279-.063-.342-.038 0 0-.178.051-.47.14a3.717 3.717 0 00-.229-.559c-.33-.635-.825-.978-1.41-.978-.037 0-.075 0-.126.013C7.878.56 7.853.546 7.84.521 7.586.24 7.256.114 6.862.127 6.1.152 5.338.698 4.73 1.677c-.432.685-.762 1.548-.864 2.221-.876.267-1.485.458-1.498.47-.444.14-.457.153-.508.572-.038.317-1.206 9.27-1.206 9.27l9.701 1.676 4.203-1.042c-.012-.012-1.727-11.606-1.74-11.682zM9.173 2.26c-.228.064-.482.153-.749.229 0-.381-.05-.927-.228-1.384.571.114.85.762.977 1.155zm-1.27.394c-.507.152-1.066.33-1.625.495.152-.597.457-1.193.813-1.587.14-.14.33-.305.546-.406.228.444.28 1.066.266 1.498zM6.875.634c.178 0 .33.039.457.115a2.485 2.485 0 00-.597.47c-.482.52-.85 1.333-1.003 2.108-.457.14-.914.28-1.333.406C4.665 2.514 5.694.673 6.875.635z"/><path fill="#5E8E3E" d="M12.678 3.035c-.063 0-1.18-.025-1.18-.025l-1.03-1.003a.242.242 0 00-.126-.064v13.93l4.203-1.041-1.727-11.683a.149.149 0 00-.14-.114z"/><path fill="#FFF" d="M8.005 5.194l-.482 1.828s-.546-.254-1.194-.203c-.952.064-.952.66-.952.813.05.813 2.197.99 2.324 2.908.089 1.511-.8 2.54-2.083 2.616-1.55.101-2.4-.813-2.4-.813l.33-1.397s.851.648 1.537.597a.613.613 0 00.597-.648C5.618 9.83 3.866 9.892 3.752 8.14c-.09-1.473.876-2.972 3.009-3.098.825-.064 1.244.152 1.244.152z"/></g></svg>