<svg xmlns="http://www.w3.org/2000/svg" width="15" height="16"><g fill="none"><path fill="#E34F26" d="M1.281 14.375L0 0h14.094l-1.281 14.375L7.031 16"/><path fill="#EF652A" d="M7.063 14.75l4.656-1.281 1.094-12.313h-5.75"/><path fill="#EBEBEB" d="M7.063 6.5H4.719l-.157-1.813h2.5v-1.75H2.625l.031.47.438 4.874h3.969V6.5zm0 4.594H7.03l-1.968-.531-.125-1.407h-1.75l.22 2.781 3.624 1h.032v-1.843z"/><path fill="#FFF" d="M7.031 6.5v1.781H9.22L9 10.562l-1.969.532v1.844l3.625-1 .031-.313.407-4.656.062-.469H7.031zm0-3.563v1.752h4.282l.03-.375.095-.907.03-.469H7.032z"/></g></svg>