<svg xmlns="http://www.w3.org/2000/svg" viewBox="0 0 135.03658 176.0651"><defs><style>.cls-1{fill:#e82c78;}.cls-2{fill:#0792d1;}.cls-3{fill:#33baeb;}.cls-4{fill:#622b7b;}.cls-5{fill:#333c91;}.cls-6{fill:#e93249;}.cls-7{fill:#ed8b33;}.cls-8{fill:#5bc6cd;}.cls-9{fill:#ffd650;}.cls-10{fill:#94d2b7;}</style></defs><title>eFLYR_logo_logo_color</title><g id="Layer_2" data-name="Layer 2"><g id="Color_Black" data-name="Color Black"><g id="Logo"><polygon class="cls-1" points="33.759 44.016 0 0 67.518 0 33.759 44.016"/><polygon class="cls-2" points="67.518 88.033 33.759 132.049 101.277 132.049 67.518 88.033"/><polygon class="cls-3" points="67.518 176.065 33.759 132.049 101.277 132.049 67.518 176.065"/><polygon class="cls-4" points="67.518 0 33.759 44.016 101.277 44.016 67.518 0"/><polygon class="cls-5" points="67.518 88.032 33.759 44.016 101.277 44.016 67.518 88.032"/><polygon class="cls-6" points="101.278 44.016 67.518 88.032 135.037 88.032 101.278 44.016"/><polygon class="cls-7" points="101.278 132.049 67.518 88.033 135.037 88.033 101.278 132.049"/><polygon class="cls-8" points="33.759 44.016 0 88.032 67.518 88.032 33.759 44.016"/><polygon class="cls-9" points="33.759 132.049 0 176.065 67.518 176.065 33.759 132.049"/><polygon class="cls-10" points="33.759 132.049 0 88.033 67.518 88.033 33.759 132.049"/></g></g></g></svg>