<svg id="Layer_1" data-name="Layer 1" xmlns="http://www.w3.org/2000/svg" xmlns:xlink="http://www.w3.org/1999/xlink" viewBox="0 0 444 332.75"><defs><style>.cls-1{fill:#edf3fd;}.cls-2{fill:#ec5569;}.cls-3{fill:#e63950;}.cls-4{fill:#fff5f5;}.cls-5{fill:#fe3745;}.cls-6{fill:#fff;}.cls-7{fill:#b7092b;}.cls-8{fill:url(#linear-gradient);}.cls-9{fill:url(#linear-gradient-2);}.cls-10{fill:#f7f3f1;}.cls-11{fill:#ffda6b;}.cls-12{fill:#262c38;}.cls-13{fill:url(#linear-gradient-3);}.cls-14{fill:#f05266;}.cls-15{fill:#91e0e8;}.cls-16{fill:#0f9390;}.cls-17{fill:#d9eafc;}.cls-18{fill:#2150d9;}.cls-18,.cls-19,.cls-23,.cls-24{fill-rule:evenodd;}.cls-19{fill:#fb8b82;}.cls-20{fill:none;stroke:#fff;stroke-width:3px;}.cls-21{opacity:0.1;fill:url(#linear-gradient-4);}.cls-22{opacity:0.5;fill:url(#linear-gradient-5);}.cls-23{fill:#231f20;}.cls-24{fill:#b5d3ff;}</style><linearGradient id="linear-gradient" x1="317.46154" y1="255.05815" x2="349.96055" y2="255.05815" gradientTransform="matrix(0.99946, 0.03286, 0.03286, -0.99946, -11.72409, 494.33326)" gradientUnits="userSpaceOnUse"><stop offset="0" stop-color="#37aeff"/><stop offset="0.05" stop-color="#37aeff"/><stop offset="1" stop-color="#1861f7"/></linearGradient><linearGradient id="linear-gradient-2" x1="279.02577" y1="295.44846" x2="313.67625" y2="295.44846" gradientTransform="matrix(1, 0, 0, -1, 0, 486)" xlink:href="#linear-gradient"/><linearGradient id="linear-gradient-3" x1="-594.73584" y1="1.21117" x2="-594.73584" y2="1.22496" gradientTransform="translate(1377799.77545 -335214.12775) rotate(-13.56645) scale(2383.95855)" xlink:href="#linear-gradient"/><linearGradient id="linear-gradient-4" x1="259.82638" y1="124.11874" x2="259.82638" y2="322.75063" gradientTransform="matrix(1, 0, 0, 1, 0, 0)" xlink:href="#linear-gradient"/><linearGradient id="linear-gradient-5" y1="166.37497" x2="444" y2="166.37497" gradientUnits="userSpaceOnUse"><stop offset="0" stop-color="#fff"/><stop offset="1" stop-color="#fff"/></linearGradient></defs><title>illu-lamp-blog-hero</title><path class="cls-1" d="M320.25,194.25H291V207h29.25Zm-33.75,0H257.25V207H286.5Zm-33.75,0h-13.5V207h13.5Zm117.75,49.5H341.25v12.74994H370.5Zm-33.75,0H307.5v12.74994h29.25Zm-33.75,0H273.75v12.74994H303ZM370.5,228H357.75v12.75H370.5Zm0-82.50006H341.25v12.75H370.5Zm-33.75,0H307.5v12.75h29.25Zm33.75-16.5H357.75v12.75H370.5Zm0,33H357.75V174.75H370.5Zm-16.5,0H324.75V174.75H354Zm-33.75,0H291V174.75h29.25Zm-33.75,0H257.25V174.75H286.5Z" transform="translate(0 0.00003)"/><g id="Layer_6" data-name="Layer 6"><path class="cls-2" d="M257.256,232.29843H238.84764a5.54665,5.54665,0,0,0-5.54666,5.54663v12.07361a5.54667,5.54667,0,0,0,5.54666,5.54666h2.64185a.22755.22755,0,0,1,.22755.22754v5.95569a.77739.77739,0,0,0,1.34371.53256l6.24874-6.64407a.2274.2274,0,0,1,.16584-.07169H257.256a5.54666,5.54666,0,0,0,5.54666-5.54666V237.84509A5.54672,5.54672,0,0,0,257.256,232.29843Z" transform="translate(0 0.00003)"/><path class="cls-3" d="M244.05058,253.39532a.23058.23058,0,0,0-.22032-.23962h-2.55759a5.6202,5.6202,0,0,1-5.3697-5.84091V234.60068a6.329,6.329,0,0,1,.19778-1.57532,5.54474,5.54474,0,0,0-2.79977,4.81973v12.07358a5.54672,5.54672,0,0,0,5.54666,5.54666h2.64185a.22757.22757,0,0,1,.22755.22757v5.95566a.77739.77739,0,0,0,1.34371.53256l.98979-1.05246v-7.73334Z" transform="translate(0 0.00003)"/><path class="cls-4" d="M254.2841,239.4968h0a3.60612,3.60612,0,0,0-5.09977,0l-.79549.79547a.48576.48576,0,0,1-.68691,0l-.78277-.78278a3.60611,3.60611,0,0,0-5.09979,0h0a3.60613,3.60613,0,0,0,0,5.09979l5.883,5.883a.48575.48575,0,0,0,.68691,0l5.89474-5.89575A3.61249,3.61249,0,0,0,254.2841,239.4968Z" transform="translate(0 0.00003)"/></g><g id="Layer_7" data-name="Layer 7"><path class="cls-5" d="M215.42859,300.16151a2.42807,2.42807,0,0,1-.68937,3.35363L184.4321,323.487a2.42806,2.42806,0,0,1-3.35364-.68938l-14.80021-22.45913a2.42808,2.42808,0,0,1,.68936-3.35363L197.27474,277.013a2.42807,2.42807,0,0,1,3.35363.68938Z" transform="translate(0 0.00003)"/><path class="cls-6" d="M180.14464,298.28322c-.46625-.70752-.15567-1.32732.69016-1.37732l15.0435-.88973c.84584-.05,1.22731.52887.84772,1.28641l-6.75139,13.47292a.81423.81423,0,0,1-1.53788.09092Z" transform="translate(0 0.00003)"/><path class="cls-7" d="M200.56473,281.95052a.46355.46355,0,0,1-.13161.64024l-2.70131,1.78012a.46355.46355,0,0,1-.64024-.13161l-1.78-2.70118a.46356.46356,0,0,1,.1316-.64025l2.70132-1.78012a.46354.46354,0,0,1,.64023.13161l1.78,2.70119Z" transform="translate(0 0.00003)"/><path class="cls-7" d="M203.7435,286.77426a.46353.46353,0,0,1-.13161.64023l-2.70131,1.78012a.46353.46353,0,0,1-.64024-.13161l-1.78-2.70118a.46353.46353,0,0,1,.13161-.64023l2.70131-1.78012a.46354.46354,0,0,1,.64024.1316Z" transform="translate(0 0.00003)"/><path class="cls-7" d="M206.92226,291.598a.46354.46354,0,0,1-.1316.64023l-2.70132,1.78012a.46356.46356,0,0,1-.64023-.13161l-1.78-2.70119a.46353.46353,0,0,1,.13161-.64023l2.70131-1.78012a.46353.46353,0,0,1,.64024.13161l1.78,2.70119Z" transform="translate(0 0.00003)"/><path class="cls-7" d="M210.101,296.42175a.46356.46356,0,0,1-.13161.64025l-2.70131,1.78012a.46355.46355,0,0,1-.64024-.13161l-1.78-2.70119a.46355.46355,0,0,1,.1316-.64024l2.70132-1.78012a.46353.46353,0,0,1,.64023.13161Z" transform="translate(0 0.00003)"/><path class="cls-7" d="M213.2798,301.2455a.46355.46355,0,0,1-.13161.64024l-2.70131,1.78012a.46353.46353,0,0,1-.64024-.1316l-1.78-2.70119a.46353.46353,0,0,1,.1316-.64023l2.70131-1.78012a.46353.46353,0,0,1,.64024.13161l1.78,2.70118Z" transform="translate(0 0.00003)"/><path class="cls-7" d="M173.68023,299.667a.46352.46352,0,0,1-.13161.64022l-2.70118,1.78a.46354.46354,0,0,1-.64024-.1316l-1.78-2.70119a.46353.46353,0,0,1,.13161-.64024l2.70118-1.78a.46353.46353,0,0,1,.64024.1316Z" transform="translate(0 0.00003)"/><path class="cls-7" d="M176.859,304.49068a.46354.46354,0,0,1-.13161.64024l-2.70118,1.78a.46354.46354,0,0,1-.64024-.13161l-1.78-2.70119a.46352.46352,0,0,1,.1316-.64022l2.70119-1.78a.46352.46352,0,0,1,.64023.13161Z" transform="translate(0 0.00003)"/><path class="cls-7" d="M180.03776,309.31442a.46355.46355,0,0,1-.1316.64025l-2.70119,1.78a.46353.46353,0,0,1-.64023-.1316l-1.78-2.70119a.46355.46355,0,0,1,.13161-.64024l2.70118-1.78a.46352.46352,0,0,1,.64024.13161Z" transform="translate(0 0.00003)"/><path class="cls-7" d="M183.21653,314.13818a.46354.46354,0,0,1-.1316.64023l-2.70119,1.78a.46353.46353,0,0,1-.64023-.13161l-1.78-2.70118a.46356.46356,0,0,1,.13161-.64025l2.70118-1.78a.46353.46353,0,0,1,.64024.13161Z" transform="translate(0 0.00003)"/><path class="cls-7" d="M186.3953,318.96191a.46354.46354,0,0,1-.13161.64025l-2.70118,1.78a.46354.46354,0,0,1-.64024-.13161l-1.78-2.70119a.46354.46354,0,0,1,.1316-.64023l2.70119-1.78a.46353.46353,0,0,1,.64023.1316Z" transform="translate(0 0.00003)"/></g><g id="Layer_14" data-name="Layer 14"><path class="cls-8" d="M335.25748,236.0455l-19.718,10.27941a2.91145,2.91145,0,0,0-1.23218,3.91607l6.89223,13.22071a2.93825,2.93825,0,0,0,3.96391,1.24666l.00069-.00035c8.78563-4.58388,10.00014-5.23942,10.00014-5.23942l8.38781,2.63921c.4.12588.56873-.07541.37486-.44728l-2.77107-5.31546L344.839,254.425a2.91146,2.91146,0,0,0,1.23219-3.91607l-6.89766-13.23115A2.91147,2.91147,0,0,0,335.25748,236.0455Z" transform="translate(0 0.00003)"/><path class="cls-6" d="M335.6127,244.40852l-13.42079,6.99654a1.14362,1.14362,0,1,1-1.06182-2.02583l.0045-.00234,13.42079-6.99653a1.14361,1.14361,0,1,1,1.06057,2.02647Z" transform="translate(0 0.00003)"/><path class="cls-6" d="M337.45329,247.93917l-13.4208,6.99653a1.14362,1.14362,0,0,1-1.06182-2.02583l.0045-.00233L336.396,245.911a1.14362,1.14362,0,0,1,1.06058,2.02649Z" transform="translate(0 0.00003)"/><path class="cls-6" d="M332.61018,254.954l-6.73716,3.51222a1.14362,1.14362,0,0,1-1.05732-2.02817l6.73717-3.51222a1.14362,1.14362,0,1,1,1.06182,2.02583Z" transform="translate(0 0.00003)"/></g><g id="Layer_13" data-name="Layer 13"><path class="cls-9" d="M305.984,208.33244l7.43833-23.17637a5.33049,5.33049,0,0,0-3.45684-6.69916l0,0-18.16409-5.82966a5.33059,5.33059,0,0,0-6.70978,3.43623l-5.81187,18.10867a5.33049,5.33049,0,0,0,3.45683,6.69916l0,0,9.97864,3.20259-1.4959,4.66089,7.53255-2.72345Z" transform="translate(0 0.00003)"/><path class="cls-10" d="M302.53441,193.291l-3.65315-1.17245,1.17706-2.2921,3.253,1.044a1.04266,1.04266,0,0,0,.63691-1.98448l-2.92486-.93872,1.607-3.12933a1.04265,1.04265,0,0,0-1.854-.952l-1.76432,3.43578-2.39367-.76824,1.607-3.12933a1.04264,1.04264,0,0,0-1.854-.952l-1.76431,3.43578-3.98128-1.27777a1.04266,1.04266,0,0,0-.63692,1.98448l3.65317,1.17247-1.17706,2.29208-3.253-1.044a1.04266,1.04266,0,0,0-.63692,1.98448l2.92487.93872-1.607,3.12933a1.04282,1.04282,0,0,0,1.854.952l1.76431-3.43578,2.39369.76824-1.607,3.12933a1.04282,1.04282,0,0,0,1.854.952l1.76431-3.43578,3.98128,1.27776a1.04266,1.04266,0,0,0,.63692-1.98448Zm-5.66451-1.818-2.39355-.76819,1.17706-2.2921,2.39368.76823Z" transform="translate(0 0.00003)"/></g><g id="Layer_9" data-name="Layer 9"><circle class="cls-11" cx="330.80899" cy="161.31355" r="9.06703"/><ellipse class="cls-12" cx="330.78844" cy="164.89563" rx="2.66692" ry="3.59296"/><ellipse class="cls-12" cx="326.60441" cy="159.07562" rx="1.8811" ry="1.32016" transform="matrix(0.1496, -0.98875, 0.98875, 0.1496, 120.4576, 458.20604)"/><ellipse class="cls-12" cx="334.95792" cy="159.07627" rx="1.32016" ry="1.8811" transform="translate(-20.02885 51.90139) rotate(-8.60399)"/><path class="cls-12" d="M325.62126,155.16005a.21762.21762,0,0,1-.17634-.34486,2.00555,2.00555,0,0,1,.656-.5479,1.65105,1.65105,0,0,1,1.74309.14717.21761.21761,0,1,1-.238.36442h0a1.23385,1.23385,0,0,0-1.30613-.12454,1.58713,1.58713,0,0,0-.50191.41533A.21729.21729,0,0,1,325.62126,155.16005Zm10.17986-.08977a1.58386,1.58386,0,0,0-.51544-.42259,1.23566,1.23566,0,0,0-1.29308.13118.21761.21761,0,1,1-.23793-.36443h0a1.65109,1.65109,0,0,1,1.74309-.14717,2.00555,2.00555,0,0,1,.656.5479l-.35307.25449Z" transform="translate(0 0.00003)"/></g><g id="Layer_12" data-name="Layer 12"><path class="cls-13" d="M198.9939,197.11926a16.4953,16.4953,0,1,0-.00226-.00938l.00226.00938" transform="translate(0 0.00003)"/><path class="cls-6" d="M224.55487,191.72141a1.56853,1.56853,0,0,0-1.00744-1.30694,3.118,3.118,0,0,0,.2545-1.5921c-.34237-1.41879-1.77588-1.52119-3.8257-1.02656a17.59306,17.59306,0,0,0-3.51733,1.302c-.03608-.63477.349-2.59454.20669-3.18417-.29572-1.2255-.95713-2.69382-2.22239-3.00765a2.05661,2.05661,0,0,0-1.09615-.01811,1.77188,1.77188,0,0,0-1.12085.72871,1.09,1.09,0,0,0,.02452.64713l.75862,2.25419c.44459,1.84244-1.83268,4.8294-1.19354,7.478l1.34049,5.55518c.23787.98576,1.72888,1.36685,3.63134.90777l5.2742-1.27269c1.38191-.33346,1.63278-.64734,1.8319-1.37788a1.30775,1.30775,0,0,0-.35239-1.33833,2.1323,2.1323,0,0,0,.93785-1.81058,1.82469,1.82469,0,0,0-.46181-1.14623,1.63489,1.63489,0,0,0,.54221-1.793m-17.9887.96273,1.649-.39791a1.42158,1.42158,0,0,1,1.71538,1.04843v0h0l1.85734,7.697a1.42159,1.42159,0,0,1-1.04849,1.71521l-1.649.3979a1.4216,1.4216,0,0,1-1.71535-1.04828l-1.85289-7.6786a1.42158,1.42158,0,0,1,1.04845-1.71538h0" transform="translate(0 0.00003)"/></g><g id="Layer_10" data-name="Layer 10"><ellipse class="cls-11" cx="263.63437" cy="297.07562" rx="9.59131" ry="9.57596" transform="translate(-128.8643 236.23321) rotate(-39.60166)"/><path id="mond" class="cls-12" d="M263.95362,297.35921l-4.92574,4.07512a6.15979,6.15979,0,0,0,8.534.50494c.06846-.05167.11117-.09032.11117-.09032a6.15934,6.15934,0,0,0,1.10192-8.47845l-4.8213,3.98871Z" transform="translate(0 0.00003)"/><path id="tong" class="cls-14" d="M261.2789,303.01768a13.94163,13.94163,0,0,1,3.61291-4.35995,13.279,13.279,0,0,1,5.0075-2.75851,6.3484,6.3484,0,0,1-8.62041,7.11846Z" transform="translate(0 0.00003)"/><path class="cls-12" d="M267.00631,292.16985a.229.229,0,0,1-.08742.04493l-2.78688.74213a.23019.23019,0,0,1-.26863-.31806l1.22319-2.67834a.23019.23019,0,1,1,.41878.19125l-1.02062,2.23482,2.31569-.61665a.23023.23023,0,0,1,.20588.39993Z" transform="translate(0 0.00003)"/><path class="cls-12" d="M258.1601,299.4884a.23023.23023,0,0,1-.35428-.27717l1.03955-2.15917-2.38645.5839a.2302.2302,0,0,1-.10942-.44721l2.86008-.69977a.2302.2302,0,0,1,.26211.32346l-1.25107,2.59856A.22929.22929,0,0,1,258.1601,299.4884Z" transform="translate(0 0.00003)"/></g><g id="Layer_11" data-name="Layer 11"><path class="cls-11" d="M186.20987,247.18645a10.305,10.305,0,1,1-10.305-10.305h0a10.30509,10.30509,0,0,1,10.305,10.305" transform="translate(0 0.00003)"/><path class="cls-12" d="M171.61971,250.40446c.02575.103.66868,2.50756,4.28515,2.50756,3.617,0,4.2594-2.4045,4.28516-2.50756a.28568.28568,0,0,0-.47861-.27308,7.3486,7.3486,0,0,1-7.61253,0,.28671.28671,0,0,0-.47977.27308m2.282-5.79426c0,1.10722-.64063,2.00375-1.43125,2.00375s-1.43124-.89653-1.43124-2.00375c0-1.10664.64062-2.00375,1.43124-2.00375s1.43125.89711,1.43125,2.00375m6.87,0c0,1.10722-.64062,2.00375-1.43124,2.00375s-1.43124-.89653-1.43124-2.00375c0-1.10664.64062-2.00375,1.43124-2.00375s1.43124.89711,1.43124,2.00375" transform="translate(0 0.00003)"/></g><g id="Layer_8" data-name="Layer 8"><path class="cls-15" d="M189.204,143.21451l-21.016-2.63082a.51538.51538,0,0,0-.57528.44647l-1.78311,14.04457a.53071.53071,0,0,0,.45829.59157l20.99682,2.66566a.53079.53079,0,0,0,.59166-.45836l1.78594-14.06751A.53072.53072,0,0,0,189.204,143.21451Z" transform="translate(0 0.00003)"/><path class="cls-16" d="M183.65017,150.86121a.43195.43195,0,0,0-.67665-.0859l-3.13993,2.89141a.432.432,0,0,1-.67665-.0859l-4.37527-6.76485a.43169.43169,0,0,0-.67665-.0859l-8.171,7.52307-.1043.82153a.53077.53077,0,0,0,.45827.59166l20.99681,2.66566a.53079.53079,0,0,0,.59166-.45836l.05073-.39957Z" transform="translate(0 0.00003)"/><circle class="cls-6" cx="185.55468" cy="146.72062" r="1.98425"/><path class="cls-17" d="M184.67406,146.60861a1.98471,1.98471,0,0,1,1.66488-1.711,1.98436,1.98436,0,1,0-.48034,3.7837A1.98463,1.98463,0,0,1,184.67406,146.60861Z" transform="translate(0 0.00003)"/></g><g id="Layer_5" data-name="Layer 5"><path class="cls-18" d="M347.18346,302.03687l-1.078,1.867-13.351-6.367-3.664,5.348-5.844-2.801-8.379,12.191-1.867-1.074,8.297-12.051-13.211-6.289,1.078-1.867,19.199,9.172,12.043-17.543,1.863,1.07807-8.293,12.051Zm-42.445-13.98a3.64388,3.64388,0,0,0-2.269,1.73,3.57745,3.57745,0,0,0-.383,2.863l5.824,21.73505a3.70108,3.70108,0,0,0,4.49794,2.67663q.0462-.01173.09207-.02464l38.035-10.191a3.67036,3.67036,0,0,0,2.266-1.731,3.58222,3.58222,0,0,0,.386-2.863l-5.824-21.735a3.70945,3.70945,0,0,0-4.51355-2.67356q-.04035.01032-.08044.02156Z" transform="translate(0 0.00003)"/><path class="cls-19" d="M351.44946,277.57587a6.375,6.375,0,1,1-6.375-6.375h0a6.37607,6.37607,0,0,1,6.375,6.375" transform="translate(0 0.00003)"/><path class="cls-20" d="M351.44946,277.57587a6.375,6.375,0,1,1-6.375-6.375h0a6.37607,6.37607,0,0,1,6.375,6.375" transform="translate(0 0.00003)"/></g><g id="Layer_2_copy" data-name="Layer 2 copy"><path class="cls-21" d="M205.89311,322.74865a10.0332,10.0332,0,0,1-9.847-7.25253C182.73651,269.178,213.577,123.418,257.477,124.12128c41.33669.6622,78.336,141.90223,67.27231,188.7617a10.03,10.03,0,0,1-9.57216,7.7119Z" transform="translate(0 0.00003)"/></g><path class="cls-22" d="M0,0V332.75H444V0ZM324.75,312.88a10.02378,10.02378,0,0,1-9.57,7.71l-109.29,2.16a10.024,10.024,0,0,1-9.84-7.25C182.74,269.18,213.58,123.42,257.48,124.12,298.81,124.78,335.81,266.02,324.75,312.88Z" transform="translate(0 0.00003)"/><path class="cls-23" d="M281.25,137.527c0-20.289-10.914-36.738-24.375-36.738-13.465,0-24.375,16.449-24.375,36.738M256.27,0h1.207V100.789H256.27Z" transform="translate(0 0.00003)"/><path class="cls-24" d="M281.25,137.527c0,1.504-10.914,2.723-24.375,2.723-13.465,0-24.375-1.219-24.375-2.723,0-1.503,10.91-2.722,24.375-2.722,13.461,0,24.375,1.219,24.375,2.722" transform="translate(0 0.00003)"/></svg>