<svg xmlns="http://www.w3.org/2000/svg" xmlns:xlink="http://www.w3.org/1999/xlink" viewBox="0 0 444 484.60599"><defs><style>.cls-1,.cls-13{fill:#edf3fd;}.cls-2{fill:#231f20;}.cls-11,.cls-13,.cls-14,.cls-2,.cls-3,.cls-31,.cls-4,.cls-5,.cls-6,.cls-7,.cls-8{fill-rule:evenodd;}.cls-3{fill:#b5d3ff;}.cls-12,.cls-4{fill:#fb8b82;}.cls-5{fill:#0b2564;}.cls-6,.cls-9{fill:#191847;}.cls-19,.cls-7{fill:#fff;}.cls-8{fill:#0052e2;}.cls-10,.cls-14{fill:#d1dbed;}.cls-11{fill:#deedfe;}.cls-15{fill:#ec5569;}.cls-16{fill:#e63950;}.cls-17{fill:#fff5f5;}.cls-18{fill:#fe3745;}.cls-20{fill:#b7092b;}.cls-21{fill:url(#linear-gradient);}.cls-22{fill:url(#linear-gradient-2);}.cls-23{fill:#f7f3f1;}.cls-24{fill:#ffda6b;}.cls-25{fill:#262c38;}.cls-26{fill:url(#linear-gradient-3);}.cls-27{fill:#f05266;}.cls-28{fill:#91e0e8;}.cls-29{fill:#0f9390;}.cls-30{fill:#d9eafc;}.cls-31{fill:#2150d9;}.cls-32{fill:none;stroke:#fff;stroke-width:3px;}</style><linearGradient id="linear-gradient" x1="72.06431" y1="264.4803" x2="114.53241" y2="264.4803" gradientTransform="translate(9.63309 -5.02392) rotate(1.88334)" gradientUnits="userSpaceOnUse"><stop offset="0" stop-color="#37aeff"/><stop offset="0.05" stop-color="#37aeff"/><stop offset="1" stop-color="#1861f7"/></linearGradient><linearGradient id="linear-gradient-2" x1="193.02443" y1="194.55223" x2="227.67765" y2="194.55223" gradientTransform="matrix(1, 0, 0, 1, 0, 0)" xlink:href="#linear-gradient"/><linearGradient id="linear-gradient-3" x1="-177.92884" y1="641.92605" x2="-177.92884" y2="641.91221" gradientTransform="matrix(2317.44251, -559.212, -559.212, -2317.44251, 771416.51066, 1388249.89064)" xlink:href="#linear-gradient"/></defs><title>drawing</title><g id="Layer_1" data-name="Layer 1"><rect class="cls-1" x="36.74997" y="412.49997" width="320.25003" height="0.75"/><path class="cls-1" d="M320.25,194.25H291V207h29.25Zm-33.75,0H257.25V207H286.5Zm-33.75,0h-13.5V207h13.5Zm117.75,49.5H341.25v12.74994H370.5Zm-33.75,0H307.5v12.74994h29.25Zm-33.75,0H273.75v12.74994H303ZM370.5,228H357.75v12.75H370.5Zm0-82.50006H341.25v12.75H370.5Zm-33.75,0H307.5v12.75h29.25Zm33.75-16.5H357.75v12.75H370.5Zm0,33H357.75V174.75H370.5Zm-16.5,0H324.75V174.75H354Zm-33.75,0H291V174.75h29.25Zm-33.75,0H257.25V174.75H286.5Zm0,0"/><path class="cls-2" d="M281.25,137.527c0-20.289-10.914-36.738-24.375-36.738-13.465,0-24.375,16.449-24.375,36.738M256.27,0h1.207V100.789H256.27Zm0,0"/><path class="cls-3" d="M281.25,137.527c0,1.504-10.914,2.723-24.375,2.723-13.465,0-24.375-1.219-24.375-2.723,0-1.503,10.91-2.722,24.375-2.722,13.461,0,24.375,1.219,24.375,2.722"/><path class="cls-4" d="M215.672,354.703a5.65841,5.65841,0,0,1,5.598,6.918L193.84,481.34a2.24953,2.24953,0,0,1-2.613,1.707l-1.313-.25a2.24823,2.24823,0,0,1-1.801-2.57l19.196-118.305a8.59354,8.59354,0,0,1,8.363-7.219Zm0,0"/><path class="cls-5" d="M284.25,382.5c24.91,0,43.188-21.008,41.516-46.004-.055-.836-22.516-2.945-65.606-1.25q-7.1895.288-22.476,3.5,21.65547,43.752,46.566,43.754Zm0,0"/><path class="cls-5" d="M212.512,342.797l47.648-7.551,25.387,30.313a9.75086,9.75086,0,0,1-8.988,15.894l-64.047-10.094a14.458,14.458,0,0,1,0-28.562Zm0,0"/><path class="cls-5" d="M215.281,343.609a11.8097,11.8097,0,0,1,10.653,12.852,12.10747,12.10747,0,0,1-.309,1.793L200.289,458.582l-9.41-3.91a2.24689,2.24689,0,0,1-1.371-2.324l10.555-96.324a13.99335,13.99335,0,0,1,15.218-12.411Zm0,0"/><path class="cls-6" d="M187.578,469.301a7.01422,7.01422,0,0,0,10.231,1.508,8.947,8.947,0,0,1,1.179,1.308l2.368,3.203a5.16526,5.16526,0,0,1-4.153,8.235H169.852a4.0002,4.0002,0,0,1-4-4,5.31454,5.31454,0,0,1,3.843-5.106Zm0,0"/><path class="cls-4" d="M212.004,266.613l20.219-12.734-.688,20.078-20.414-5.816Zm0,0"/><path class="cls-7" d="M228.75,248.777A73.44533,73.44533,0,0,1,332.664,351.106a73.1591,73.1591,0,0,0-56.816-28.512A73.60278,73.60278,0,0,0,228.75,273.453Zm0,0"/><path class="cls-4" d="M231.57,357.445a5.64783,5.64783,0,0,1,8.59,2.313l47.891,112.906a2.25056,2.25056,0,0,1-1.11,2.91l-1.21.574a2.25169,2.25169,0,0,1-2.977-1.023L229.039,368.234a8.64205,8.64205,0,0,1,2.527-10.789Zm0,0"/><path class="cls-8" d="M297.148,382.492c24.918,0,46.79-20.277,45.118-45.246-.055-.836-22.52-2.945-65.625-1.25q-7.1895.28194-22.481,3.492,18.07054,43.002,42.988,43.004Zm0,0"/><path class="cls-8" d="M228.961,343.543l47.68-7.547,20.476,31.32a9.752,9.752,0,0,1-9.812,14.946l-58.371-10.024a14.63412,14.63412,0,0,1-12.16-14.425,14.442,14.442,0,0,1,12.187-14.27Zm0,0"/><path class="cls-8" d="M224.758,348.715a11.88392,11.88392,0,0,1,17.074,5.711l42.672,104.34-11.848-1.129a2.24426,2.24426,0,0,1-1.738-1.117l-51.129-88.801a13.99271,13.99271,0,0,1,4.969-19.004Zm0,0"/><path class="cls-6" d="M279.035,469.902a7.01962,7.01962,0,0,0,10.235,1.508,8.96791,8.96791,0,0,1,1.179,1.305l2.371,3.203a5.15856,5.15856,0,0,1-4.148,8.227H261.301a3.99612,3.99612,0,0,1-3.996-3.997,5.30857,5.30857,0,0,1,3.84-5.101Zm0,0"/><rect class="cls-9" x="302.80896" y="385.96497" width="4.129" height="97.14102"/><rect class="cls-9" x="299.85901" y="480.49597" width="21.23801" height="3.52301"/><path class="cls-6" d="M284.25,381.856H325.5a1.498,1.498,0,0,1,1.5,1.5v3.457a1.498,1.498,0,0,1-1.5,1.5H284.25a1.49545,1.49545,0,0,1-1.5-1.5v-3.457a1.49545,1.49545,0,0,1,1.5-1.5Zm0,0"/><path class="cls-6" d="M301.359,397.121H308.387a1.49545,1.49545,0,0,1,1.5,1.5v27.531a1.49545,1.49545,0,0,1-1.5,1.5H301.359a1.49545,1.49545,0,0,1-1.5-1.5V398.621a1.49545,1.49545,0,0,1,1.5-1.5Zm0,0"/><rect class="cls-9" x="168.21098" y="340.27701" width="3.375" height="143.742"/><path class="cls-4" d="M197.051,273.527a17.00781,17.00781,0,1,1,5.73,2.516,5.27482,5.27482,0,0,0-5.73-2.516Zm0,0"/><path class="cls-6" d="M212.656,239.363l-2.683.95,4.894,1.785.016.019a17.72343,17.72343,0,0,1,10.125,15.828,23.94146,23.94146,0,0,1-35.043-1.859l.012-.11707a5.28785,5.28785,0,1,1-1.043-10.52392,3.826,3.826,0,0,0,1.058,1.848,13.4969,13.4969,0,0,1,22.664-7.93Zm0,0"/><path class="cls-4" d="M207.481,261.195l-.747.258a1.96362,1.96362,0,0,0-.511,3.442l2.836,2.062a2.62962,2.62962,0,0,0,3.547-.414,2.8223,2.8223,0,0,0-.02-3.684l-.352-.39795a4.39713,4.39713,0,0,0-4.753-1.266Zm0,0"/><path class="cls-6" d="M444,483.106v1.5l-444-.75Zm0,0"/><rect class="cls-10" x="146.99998" y="336.10596" width="42.00002" height="3.75"/><rect class="cls-1" x="107.24998" y="330.10596" width="121.5" height="5.25"/><rect class="cls-9" x="137.99998" y="326.35596" width="39.00002" height="3"/><path class="cls-6" d="M118.625,294.461l1.016-.586,19.66,34.09-1.016.59Zm0,0"/><path class="cls-11" d="M180.063,325.125a91.87414,91.87414,0,0,0,103.394-60.898L243,258.668a92.01964,92.01964,0,0,1-66.195,58.398l3.254,8.059Zm0,0"/><path class="cls-12" d="M178.375,324.879l-13.699.48a.75085.75085,0,0,1-.778-.72205l-.285-8.227a.74483.74483,0,0,1,.723-.773l13.699-.481a.754.754,0,0,1,.774.723l.289,8.227a.748.748,0,0,1-.723.773Zm-6.566-3.023-8.008-1.094.097,2.742Zm0,0"/><path class="cls-7" d="M179.07,322.301a91.88346,91.88346,0,0,0,103.399-60.899l-40.457-5.558a91.43135,91.43135,0,0,1-51.957,53.933,92.41278,92.41278,0,0,1-14.239,4.465Zm0,0"/><path class="cls-6" d="M41.09,461.215l4.808,22.453H66.109l4.813-22.453Zm0,0"/><path class="cls-13" d="M58.977,447.367c5.972-5.062,12.484-9.203,18.757-13.773,3.09-2.254,2.586-5.289-2.605-5.356-2.754-.035-7.625,3.27-10.102,4.332-5.171,2.219-10.968,1.067-4.246-3.476,3.93-2.656,14.957-6.223,15.594-11.531.766-6.375-8.691-.715-11.82.574-7.086,2.922-10.121-.86-3.774-5.285,1.399-.977,16.828-11.016,11.082-13.571-4.718-2.097-9.179,7.41-13.394,6.387-5.461-1.32,1.672-9.043,3.347-10.957,1.735-1.977,6.055-5.043,6.438-7.676.656-4.48-3.566-3.137-5.793-1.246-1.723,1.465-3.379,5.707-5.316,4.098-2.414-2.008.968-9.946.113-12.61a4.91738,4.91738,0,0,0-6.551-2.554c-3.973,2.039-3.09,11.785-3.144,15.554-1.641-1.765-4.36-5.793-6.77-6.605-3.551-1.195-5.574,1.602-4.527,4.742,1.578,4.723,6.91,7.969,8.949,12.414,1.183,2.57.836,3.547.172,6.629l-13.332-9.473c-1.949-1.386-8.805-6.914-9.246-.54605-.305,4.359,11.601,11.12805,14.73,13.5,2.137,1.617,9.527,5.082,8.934,8.13605-1.485,7.653-15.739-7.015-17.242-7.418-1.129-.297-3.997.586-4.504,1.789-1.254,2.965,5.429,6.825,7.453,8.43,1.285,1.023,12.793,7.809,9.543,10.711-4.348,3.879-18.242-11.965-22.653-.004-3.015,8.168,16.18,6.047,20.504,6.766,6.211,1.035,14.512,8.476,14.512,14.586"/><path class="cls-14" d="M62.887,448.793c8.48-1.812,16.949-2.496,25.429-3.699,4.18-.594,5.438-3.684.606-6.297-2.559-1.387-9.012-.68-11.938-.899-6.113-.46-10.89-4.39-2.003-5.343,5.195-.563,17.566,1.511,21.187-3.149,4.344-5.597-7.746-4.937-11.418-5.265-8.301-.743-8.996-5.774-.527-6.809,1.871-.226,22.054-2.055,18.117-7.269-3.231-4.286-12.824,2.433-16.195-.594-4.371-3.922,6.711-7.653,9.375-8.621,2.754-1,8.546-1.754,10.406-4.032,3.168-3.878-1.563-4.695-4.723-4.015-2.449.527-6.418,3.691-7.316,1.23005-1.125-3.07,6.566-8.84305,7.281-11.757a4.87285,4.87285,0,0,0-4.691-5.61c-4.883-.043-9.606,9.52-11.805,13.027-.531-2.46-.785-7.566-2.586-9.511-2.648-2.864-6.137-1.239-6.941,2.218-1.211,5.204,1.945,10.86,1.328,16.02795-.356,2.988-1.242,3.734-3.614,6.293l-7.113-15.422c-1.039-2.254-4.32-10.801-8.359-5.051-2.766,3.934,4.547,16.125,6.129,19.883,1.082,2.562,6.043,9.437,3.75,12.008-5.746,6.445-10.77-14.301-11.95-15.414-.886-.832-4.078-1.414-5.238-.535-2.863,2.16,1.207,9.058,2.188,11.554.625,1.59,7.558,13.602,2.855,14.723-6.285,1.504-10.297-20.164-21.242-11.125-7.477,6.176,11.73,13.609,15.379,16.41,5.234,4.02,8.781,15.066,5.305,20.793"/><rect class="cls-9" x="36.74997" y="452.99997" width="38.51201" height="9.85501"/></g><g id="Layer_6" data-name="Layer 6"><path class="cls-15" d="M165.256,255.29843H146.84764a5.54664,5.54664,0,0,0-5.54666,5.54666v12.07359a5.54668,5.54668,0,0,0,5.54666,5.54666h2.64184a.22754.22754,0,0,1,.22756.22756v5.95565a.77737.77737,0,0,0,1.3437.53255l6.24875-6.64408a.22748.22748,0,0,1,.16583-.07168H165.256a5.54667,5.54667,0,0,0,5.54666-5.54666V260.84509A5.54671,5.54671,0,0,0,165.256,255.29843Z"/><path class="cls-16" d="M152.05059,276.39531a.23057.23057,0,0,0-.22032-.23962h-2.55758a5.6202,5.6202,0,0,1-5.36971-5.8409V257.60067a6.32964,6.32964,0,0,1,.19778-1.57532,5.54474,5.54474,0,0,0-2.79978,4.81974v12.07359a5.54672,5.54672,0,0,0,5.54666,5.54666h2.64184a.22757.22757,0,0,1,.22756.22756v5.95565a.77737.77737,0,0,0,1.3437.53255l.98979-1.05246v-7.73333Z"/><path class="cls-17" d="M162.28411,262.49679h0a3.60612,3.60612,0,0,0-5.09978,0l-.79549.79548a.48576.48576,0,0,1-.68691,0l-.78277-.78277a3.60613,3.60613,0,0,0-5.09979,0h0a3.60613,3.60613,0,0,0,0,5.09978l5.883,5.883a.48576.48576,0,0,0,.68691,0l5.89474-5.89574A3.60606,3.60606,0,0,0,162.28411,262.49679Z"/></g><g id="Layer_7" data-name="Layer 7"><path class="cls-18" d="M71.42859,188.16152a2.42807,2.42807,0,0,1-.68937,3.35363L40.4321,211.487a2.42808,2.42808,0,0,1-3.35364-.68937L22.27825,188.33848a2.42807,2.42807,0,0,1,.68936-3.35363L53.27474,165.013a2.42807,2.42807,0,0,1,3.35363.68937Z"/><path class="cls-19" d="M36.14464,186.28322c-.46625-.70752-.15567-1.32732.69016-1.37732l15.0435-.88973c.84584-.05,1.22731.52887.84772,1.2864l-6.75139,13.47292a.81423.81423,0,0,1-1.53788.09092Z"/><path class="cls-20" d="M56.56473,169.95051a.46355.46355,0,0,1-.13161.64024l-2.70131,1.78012a.46355.46355,0,0,1-.64024-.13161l-1.78-2.70118a.46354.46354,0,0,1,.1316-.64024l2.70132-1.78012a.46353.46353,0,0,1,.64023.13161l1.78,2.70118Z"/><path class="cls-20" d="M59.7435,174.77426a.46353.46353,0,0,1-.13161.64023l-2.70131,1.78012a.46353.46353,0,0,1-.64024-.1316l-1.78-2.70119a.46353.46353,0,0,1,.13161-.64023l2.70131-1.78012a.46355.46355,0,0,1,.64024.1316l1.78,2.70119Z"/><path class="cls-20" d="M62.92226,179.598a.46354.46354,0,0,1-.1316.64023l-2.70132,1.78012a.46354.46354,0,0,1-.64023-.1316l-1.78-2.70119a.46353.46353,0,0,1,.13161-.64023l2.70131-1.78012a.46354.46354,0,0,1,.64024.1316l1.78,2.70119Z"/><path class="cls-20" d="M66.101,184.42175a.46354.46354,0,0,1-.13161.64024l-2.70131,1.78012a.46355.46355,0,0,1-.64024-.13161l-1.78-2.70118a.46355.46355,0,0,1,.1316-.64024l2.70132-1.78012a.46353.46353,0,0,1,.64023.13161l1.78,2.70118Z"/><path class="cls-20" d="M69.2798,189.2455a.46355.46355,0,0,1-.13161.64024l-2.70131,1.78012a.46354.46354,0,0,1-.64024-.13161l-1.78-2.70119a.46353.46353,0,0,1,.1316-.64023l2.70131-1.78012a.46354.46354,0,0,1,.64024.13161l1.78,2.70118Z"/><path class="cls-20" d="M29.68023,187.66694a.46353.46353,0,0,1-.13161.64023l-2.70118,1.78a.46355.46355,0,0,1-.64024-.13161l-1.78-2.70118a.46354.46354,0,0,1,.13161-.64024l2.70118-1.78a.46353.46353,0,0,1,.64024.1316Z"/><path class="cls-20" d="M32.859,192.49068a.46354.46354,0,0,1-.13161.64024l-2.70118,1.78a.46354.46354,0,0,1-.64024-.1316l-1.78-2.70119a.46353.46353,0,0,1,.1316-.64023l2.70119-1.78a.46353.46353,0,0,1,.64023.13161Z"/><path class="cls-20" d="M36.03776,197.31443a.46354.46354,0,0,1-.1316.64024l-2.70119,1.78a.46353.46353,0,0,1-.64023-.13161l-1.78-2.70118a.46355.46355,0,0,1,.13161-.64024l2.70118-1.78a.46354.46354,0,0,1,.64024.13161Z"/><path class="cls-20" d="M39.21653,202.13818a.46354.46354,0,0,1-.1316.64023l-2.70119,1.78a.46353.46353,0,0,1-.64023-.13161l-1.78-2.70118a.46354.46354,0,0,1,.13161-.64024l2.70118-1.78a.46354.46354,0,0,1,.64024.1316Z"/><path class="cls-20" d="M42.3953,206.96192a.46354.46354,0,0,1-.13161.64024l-2.70118,1.78a.46354.46354,0,0,1-.64024-.1316l-1.78-2.70119a.46353.46353,0,0,1,.1316-.64023l2.70119-1.78a.46353.46353,0,0,1,.64023.13161Z"/></g><g id="Layer_14" data-name="Layer 14"><path class="cls-21" d="M100.812,243.64871,75.04611,257.081a3.80444,3.80444,0,0,0-1.61011,5.11719l9.00619,17.27572a3.83948,3.83948,0,0,0,5.18061,1.62856c11.48033-5.98983,13.06735-6.84644,13.06735-6.84644l10.96049,3.4487c.52274.16448.74317-.09854.48984-.58448l-3.621-6.94581,4.81287-2.509a3.80445,3.80445,0,0,0,1.61012-5.11719l-9.01329-17.28937A3.80445,3.80445,0,0,0,100.812,243.64871Z"/><path class="cls-19" d="M101.27617,254.57682,83.739,263.7193a1.49438,1.49438,0,1,1-1.38162-2.65024l17.53717-9.14248a1.49438,1.49438,0,1,1,1.38163,2.65024Z"/><path class="cls-19" d="M103.6813,259.19036l-17.53718,9.14248a1.49438,1.49438,0,1,1-1.38162-2.65024l17.53717-9.14248a1.49438,1.49438,0,1,1,1.38163,2.65024Z"/><path class="cls-19" d="M97.35273,268.35673l-8.80357,4.58948a1.49438,1.49438,0,0,1-1.38162-2.65025l8.80357-4.58947a1.49438,1.49438,0,1,1,1.38162,2.65024Z"/></g><g id="Layer_13" data-name="Layer 13"><path class="cls-22" d="M219.984,212.33245l7.43833-23.17638a5.3305,5.3305,0,0,0-3.45687-6.69917l-18.1641-5.82967a5.33059,5.33059,0,0,0-6.70977,3.43624l-5.81188,18.10867a5.3305,5.3305,0,0,0,3.45687,6.69917l9.97864,3.20259-1.49589,4.66089,7.53255-2.72345Z"/><path class="cls-23" d="M216.53441,197.291l-3.65316-1.17246,1.17706-2.2921,3.253,1.044a1.04266,1.04266,0,0,0,.63691-1.98448l-2.92486-.93872,1.607-3.12933a1.04265,1.04265,0,0,0-1.854-.952l-1.76432,3.43578-2.39368-.76824,1.607-3.12933a1.04264,1.04264,0,0,0-1.854-.952l-1.76432,3.43578-3.98127-1.27777a1.04266,1.04266,0,0,0-.63691,1.98448l3.65317,1.17247-1.17707,2.29209-3.253-1.044a1.04266,1.04266,0,0,0-.63691,1.98448l2.92486.93872-1.607,3.12933a1.04282,1.04282,0,0,0,1.854.952l1.76432-3.43577,2.39369.76823-1.607,3.12934a1.04282,1.04282,0,0,0,1.854.952l1.76432-3.43578,3.98127,1.27776a1.04266,1.04266,0,0,0,.63691-1.98448Zm-5.6645-1.818-2.39355-.76819,1.17706-2.2921,2.39368.76824Z"/></g><g id="Layer_9" data-name="Layer 9"><circle class="cls-24" cx="176.80899" cy="181.31352" r="9.06703"/><ellipse class="cls-25" cx="176.78844" cy="184.8956" rx="2.66691" ry="3.59296"/><ellipse class="cls-25" cx="172.60442" cy="179.07562" rx="1.88111" ry="1.32016" transform="translate(-30.27825 322.94704) rotate(-81.396)"/><ellipse class="cls-25" cx="180.95792" cy="179.07627" rx="1.32016" ry="1.88111" transform="translate(-24.75405 29.08739) rotate(-8.60399)"/><path class="cls-25" d="M171.62126,175.16005a.21764.21764,0,0,1-.17635-.34487,2.00558,2.00558,0,0,1,.656-.54789,1.65105,1.65105,0,0,1,1.74309.14717.21761.21761,0,0,1-.23794.36442,1.23386,1.23386,0,0,0-1.30614-.12454,1.58716,1.58716,0,0,0-.50191.41533A.21732.21732,0,0,1,171.62126,175.16005Zm10.17986-.08976a1.5836,1.5836,0,0,0-.51544-.42259,1.23564,1.23564,0,0,0-1.29307.13118.21761.21761,0,1,1-.23793-.36442,1.65108,1.65108,0,0,1,1.74309-.14717,2.00571,2.00571,0,0,1,.656.54789l-.35307.25449Z"/></g><g id="Layer_12" data-name="Layer 12"><path class="cls-26" d="M91.9939,144.11927a16.49978,16.49978,0,1,0-.00226-.00939l.00226.00939"/><path class="cls-19" d="M117.55487,138.7214a1.56852,1.56852,0,0,0-1.00744-1.30693,3.118,3.118,0,0,0,.25449-1.5921c-.34236-1.4188-1.77588-1.5212-3.8257-1.02656a17.59259,17.59259,0,0,0-3.51733,1.302c-.03608-.63476.349-2.59455.20669-3.18417-.29572-1.2255-.95713-2.69381-2.22239-3.00765a2.05661,2.05661,0,0,0-1.09615-.01811,1.77187,1.77187,0,0,0-1.12084.72872,1.08987,1.08987,0,0,0,.02452.64712l.75861,2.2542c.44459,1.84244-1.83268,4.82939-1.19354,7.478l1.34049,5.55517c.23787.98577,1.72888,1.36685,3.63134.90777l5.2742-1.27269c1.38191-.33347,1.63278-.64734,1.8319-1.37788a1.30778,1.30778,0,0,0-.35239-1.33833,2.13228,2.13228,0,0,0,.93784-1.81057,1.8247,1.8247,0,0,0-.46181-1.14622,1.63491,1.63491,0,0,0,.54221-1.793m-17.9887.96272,1.649-.39791a1.42157,1.42157,0,0,1,1.71538,1.04845h0l1.85734,7.697a1.42158,1.42158,0,0,1-1.04849,1.71521l-1.649.39791a1.42159,1.42159,0,0,1-1.71535-1.04828l-1.85289-7.6786a1.42158,1.42158,0,0,1,1.04846-1.71538h0"/></g><g id="Layer_10" data-name="Layer 10"><ellipse class="cls-24" cx="76.63436" cy="222.07562" rx="9.59131" ry="9.57596" transform="translate(-123.9733 99.81781) rotate(-39.60166)"/><path id="mond" class="cls-25" d="M76.95362,222.35921l-4.92574,4.07512a6.15979,6.15979,0,0,0,8.534.50494c.06846-.05166.11117-.09032.11117-.09032a6.15934,6.15934,0,0,0,1.10191-8.47845l-4.8213,3.98871Z"/><path id="tong" class="cls-27" d="M74.2789,228.01769a13.94154,13.94154,0,0,1,3.61291-4.35995,13.27917,13.27917,0,0,1,5.0075-2.75852,6.3484,6.3484,0,0,1-8.62041,7.11847Z"/><path class="cls-25" d="M80.00631,217.16985a.22912.22912,0,0,1-.08742.04494l-2.78688.74212a.23019.23019,0,0,1-.26863-.31806l1.22319-2.67835a.23019.23019,0,1,1,.41878.19125l-1.02062,2.23481,2.31569-.61665a.23023.23023,0,0,1,.20589.39994Z"/><path class="cls-25" d="M71.1601,224.48841a.23023.23023,0,0,1-.35428-.27717l1.03954-2.15917-2.38645.58389a.23019.23019,0,0,1-.10941-.4472l2.86008-.69977a.23019.23019,0,0,1,.26211.32345L71.22062,224.411A.22931.22931,0,0,1,71.1601,224.48841Z"/></g><g id="Layer_11" data-name="Layer 11"><path class="cls-24" d="M166.20987,229.18644a10.305,10.305,0,1,1-10.305-10.305,10.3051,10.3051,0,0,1,10.305,10.305"/><path class="cls-25" d="M151.61971,232.40446c.02576.103.66868,2.50755,4.28516,2.50755,3.61705,0,4.2594-2.4045,4.28516-2.50755a.28568.28568,0,0,0-.47861-.27308,7.34861,7.34861,0,0,1-7.61253,0,.2867.2867,0,0,0-.47976.27308m2.282-5.79427c0,1.10722-.64063,2.00375-1.43125,2.00375s-1.43125-.89653-1.43125-2.00375c0-1.10664.64063-2.00375,1.43125-2.00375s1.43125.89711,1.43125,2.00375m6.87,0c0,1.10722-.64063,2.00375-1.43125,2.00375s-1.43125-.89653-1.43125-2.00375c0-1.10664.64063-2.00375,1.43125-2.00375s1.43125.89711,1.43125,2.00375"/></g><g id="Layer_8" data-name="Layer 8"><path class="cls-28" d="M202.66213,124.15065l-34.69544-4.34325a.85083.85083,0,0,0-.94974.73708l-2.94376,23.18632a.87614.87614,0,0,0,.75659.97664l34.66386,4.40076a.87627.87627,0,0,0,.97678-.75671l2.94843-23.22419A.87616.87616,0,0,0,202.66213,124.15065Z"/><path class="cls-29" d="M193.49324,136.77467a.71313.71313,0,0,0-1.11709-.14182l-5.18373,4.77345a.71311.71311,0,0,1-1.11709-.14182l-7.22318-11.16815a.71268.71268,0,0,0-1.1171-.14182l-13.48952,12.4199-.17219,1.35628a.87626.87626,0,0,0,.75658.97677l34.66385,4.40075a.87627.87627,0,0,0,.97678-.7567l.08374-.65966Z"/><circle class="cls-19" cx="196.63742" cy="129.93887" r="3.27582"/><path class="cls-30" d="M195.18359,129.754a3.27656,3.27656,0,0,1,2.74857-2.82466,3.276,3.276,0,1,0-.793,6.24654A3.27644,3.27644,0,0,1,195.18359,129.754Z"/></g><g id="Layer_5" data-name="Layer 5"><path class="cls-31" d="M143.18346,202.03687l-1.078,1.867-13.351-6.367-3.664,5.348-5.844-2.801-8.379,12.191-1.867-1.074,8.297-12.051-13.211-6.289,1.078-1.867,19.199,9.172,12.043-17.543,1.863,1.07806-8.293,12.051Zm-42.445-13.98a3.64392,3.64392,0,0,0-2.269,1.73,3.5775,3.5775,0,0,0-.383,2.863l5.824,21.73505a3.70107,3.70107,0,0,0,4.59,2.652l38.035-10.191a3.67032,3.67032,0,0,0,2.266-1.731,3.58215,3.58215,0,0,0,.386-2.863l-5.824-21.735a3.70945,3.70945,0,0,0-4.594-2.652Zm0,0"/><path class="cls-4" d="M147.44947,177.57587a6.375,6.375,0,1,1-6.375-6.375,6.37607,6.37607,0,0,1,6.375,6.375"/><path class="cls-32" d="M147.44947,177.57587a6.375,6.375,0,1,1-6.375-6.375,6.37607,6.37607,0,0,1,6.375,6.375"/></g></svg>