<svg xmlns="http://www.w3.org/2000/svg" viewBox="0 0 860.26961 133"><defs><style>.cls-1{fill:#010101;}</style></defs><title>logo_long</title><g id="Layer_2" data-name="Layer 2"><g id="Layer_2-2" data-name="Layer 2"><path class="cls-1" d="M375.29451,74.82149q6.63794,7.87793,6.6377,20.2666,0,15.93018-11.77051,24.51465-11.77368,8.58691-34.78076,8.585H278.38728V4.28731H331.8409q20.70923,0,32.12549,8.31885,11.417,8.32178,11.4165,23.541,0,10.26709-5.04443,17.43457a30.23713,30.23713,0,0,1-13.89453,10.7085Q368.65706,66.94527,375.29451,74.82149Zm-83.80957-59.7373v44.958h39.47119q15.04248,0,23.187-5.75244,8.1394-5.74951,8.14209-16.72656,0-10.97241-8.14209-16.72656-8.1438-5.74951-23.187-5.75244Zm68.853,96.64258q8.49609-5.66309,8.49609-17.70068,0-23.18555-33.62988-23.187H291.48494v46.55176h43.71924Q351.83894,117.39083,360.338,111.72677Z"/><path class="cls-1" d="M484.99812,95.08809H415.96785L401.10066,128.1877H387.47176L444.1114,4.28731h12.9209L513.672,128.1877H499.86629ZM480.21883,84.468,450.48347,17.91622,420.74715,84.468Z"/><path class="cls-1" d="M540.55867,124.82442q-12.65771-4.42236-19.55859-11.68164l5.13281-10.08936q6.7251,6.72876,17.877,10.88525a65.28425,65.28425,0,0,0,23.00977,4.16016q16.63477,0,24.957-6.10645,8.31738-6.10693,8.31934-15.84229,0-7.43408-4.51367-11.85889a30.50314,30.50314,0,0,0-11.0625-6.81445,179.23552,179.23552,0,0,0-18.23145-5.22168,190.83491,190.83491,0,0,1-22.30176-6.81445,36.56884,36.56884,0,0,1-14.248-10.00049q-5.93262-6.72437-5.92969-18.231a30.8998,30.8998,0,0,1,4.95605-17.08057q4.95264-7.69922,15.22168-12.30127,10.26416-4.60107,25.48828-4.60205a75.04278,75.04278,0,0,1,20.79688,2.92041,59.79291,59.79291,0,0,1,17.6123,8.05371l-4.42578,10.44287a60.972,60.972,0,0,0-16.6377-7.69971,62.17786,62.17786,0,0,0-17.3457-2.56641q-16.2876,0-24.51465,6.28369-8.231,6.28491-8.23047,16.19531,0,7.43408,4.51367,11.94775a29.56438,29.56438,0,0,0,11.32813,6.90283q6.81152,2.38916,18.31934,5.22168A184.68019,184.68019,0,0,1,593.127,67.56466a36.20343,36.20343,0,0,1,14.249,9.91211q5.84033,6.63721,5.84082,17.96533a30.50081,30.50081,0,0,1-5.04492,17.08057q-5.04346,7.69922-15.4873,12.21289-10.4458,4.51465-25.665,4.51367A79.54652,79.54652,0,0,1,540.55867,124.82442Z"/><path class="cls-1" d="M723.14949,116.85958V128.1877H635.53426V4.28731h84.96V15.61544H648.63289V59.68819h64.07324V70.83907H648.63289v46.02051Z"/><path class="cls-1" d="M743.44929,4.28731h50.44531q19.64648,0,34.69238,7.87646a57.5023,57.5023,0,0,1,23.36328,21.94775q8.31738,14.072,8.31934,32.12549,0,18.0542-8.31934,32.12549A57.47764,57.47764,0,0,1,828.587,120.31075q-15.04687,7.87793-34.69238,7.877H743.44929Zm49.7373,112.57227q16.2832,0,28.49707-6.46094a46.93383,46.93383,0,0,0,18.93848-17.877q6.7251-11.41626,6.72656-26.28467,0-14.86743-6.72656-26.28418a46.94683,46.94683,0,0,0-18.93848-17.877q-12.21387-6.45923-28.49707-6.46045H756.54793V116.85958Z"/><path class="cls-1" d="M260.481,4.072v123.8999H231.63l-54.69287-66.021v66.021H142.5992V4.072h28.85107l54.69287,66.021V4.072Z"/><circle class="cls-1" cx="23.5" cy="66.5" r="23.5"/><path class="cls-1" d="M88,66.5a46.495,46.495,0,0,1-77.89,34.29993,36.99994,36.99994,0,1,0,0-68.6A46.49514,46.49514,0,0,1,88,66.5Z"/><path class="cls-1" d="M130,66.5a66.50556,66.50556,0,0,1-98,58.56995,59.49994,59.49994,0,1,0,0-117.14A66.50574,66.50574,0,0,1,130,66.5Z"/><circle class="cls-1" cx="23.5" cy="66.5" r="23.5"/><path class="cls-1" d="M88,66.5a46.495,46.495,0,0,1-77.89,34.29993,36.99994,36.99994,0,1,0,0-68.6A46.49514,46.49514,0,0,1,88,66.5Z"/><path class="cls-1" d="M41.5,20A46.2973,46.2973,0,0,0,10.11,32.2a37.00006,37.00006,0,1,1,0,68.6A46.49807,46.49807,0,1,0,41.5,20Zm-18,23A23.5,23.5,0,1,0,47,66.5,23.49827,23.49827,0,0,0,23.5,43Z"/><circle class="cls-1" cx="23.5" cy="66.5" r="23.5"/><path class="cls-1" d="M88,66.5a46.495,46.495,0,0,1-77.89,34.29993,36.99994,36.99994,0,1,0,0-68.6A46.49514,46.49514,0,0,1,88,66.5Z"/><circle class="cls-1" cx="23.5" cy="66.5" r="23.5"/><circle class="cls-1" cx="23.5" cy="66.5" r="23.5"/></g></g></svg>