<svg xmlns="http://www.w3.org/2000/svg" viewBox="0 0 130 133"><defs><style>.cls-1{fill:#fdfefe;}</style></defs><title>logo_white</title><g id="Layer_2" data-name="Layer 2"><g id="Layer_3" data-name="Layer 3"><circle class="cls-1" cx="23.5" cy="66.5" r="23.5"/><path class="cls-1" d="M88,66.5a46.495,46.495,0,0,1-77.89,34.29993,36.99994,36.99994,0,1,0,0-68.6A46.49514,46.49514,0,0,1,88,66.5Z"/><path class="cls-1" d="M130,66.5a66.50556,66.50556,0,0,1-98,58.56995,59.49994,59.49994,0,1,0,0-117.14A66.50574,66.50574,0,0,1,130,66.5Z"/><circle class="cls-1" cx="23.5" cy="66.5" r="23.5"/><path class="cls-1" d="M88,66.5a46.495,46.495,0,0,1-77.89,34.29993,36.99994,36.99994,0,1,0,0-68.6A46.49514,46.49514,0,0,1,88,66.5Z"/><path class="cls-1" d="M41.5,20A46.2973,46.2973,0,0,0,10.11,32.2a37.00006,37.00006,0,1,1,0,68.6A46.49807,46.49807,0,1,0,41.5,20Zm-18,23A23.5,23.5,0,1,0,47,66.5,23.49827,23.49827,0,0,0,23.5,43Z"/><circle class="cls-1" cx="23.5" cy="66.5" r="23.5"/><path class="cls-1" d="M88,66.5a46.495,46.495,0,0,1-77.89,34.29993,36.99994,36.99994,0,1,0,0-68.6A46.49514,46.49514,0,0,1,88,66.5Z"/><circle class="cls-1" cx="23.5" cy="66.5" r="23.5"/><circle class="cls-1" cx="23.5" cy="66.5" r="23.5"/></g></g></svg>