<?xml version="1.0" encoding="utf-8"?>
<!-- Generator: Adobe Illustrator 21.1.0, SVG Export Plug-In . SVG Version: 6.00 Build 0)  -->
<svg version="1.1" id="Layer_1" xmlns="http://www.w3.org/2000/svg" xmlns:xlink="http://www.w3.org/1999/xlink" x="0px" y="0px"
	 viewBox="0 0 130.2 303" style="enable-background:new 0 0 130.2 303;" xml:space="preserve">
<style type="text/css">
	.st0{fill:#FFFFFF;}
	.st1{fill:#BDBDBD;}
	.st2{clip-path:url(#SVGID_2_);}
</style>
<title>laci_blacksalt_salt (2)</title>
<g id="Layer_5">
	<polygon class="st0" points="65.1,3.8 3,39.7 3,111.4 65.1,147.3 127.3,111.4 127.3,39.7 	"/>
	<path class="st1" d="M65.1,150.8L0,113.1V37.9L65.1,0.3l65.1,37.6v75.2L65.1,150.8z M6,109.7l59.1,34.1l59.1-34.1V41.4L65.1,7.3
		L6,41.4V109.7z"/>
	<rect x="63.1" y="3.8" transform="matrix(0.5 -0.866 0.866 0.5 -32.8561 94.1803)" class="st1" width="4" height="143.5"/>
	<rect x="-6.6" y="73.5" transform="matrix(0.866 -0.5 0.5 0.866 -29.0468 42.6909)" class="st1" width="143.5" height="4"/>
	<rect x="63.1" y="3.8" class="st1" width="4" height="143.5"/>
	<polygon id="_Polygon_2" points="65.1,33.2 28.4,54.4 28.4,96.7 65.1,117.9 101.8,96.7 101.8,54.4 	"/>
	<g>
		<defs>
			<polygon id="SVGID_1_" points="65.1,33.2 28.4,54.4 28.4,96.7 65.1,117.9 101.8,96.7 101.8,54.4 			"/>
		</defs>
		<clipPath id="SVGID_2_">
			<use xlink:href="#SVGID_1_"  style="overflow:visible;"/>
		</clipPath>
		<g class="st2">
			<rect x="44.8" y="43.8" transform="matrix(0.5 -0.866 0.866 0.5 -32.856 72.9888)" class="st0" width="4" height="42.4"/>
			<rect x="62.3" y="62.9" transform="matrix(0.866 -0.5 0.5 0.866 -21.2898 50.4476)" class="st0" width="42.4" height="4"/>
			<rect x="63.1" y="75.5" class="st0" width="4" height="42.4"/>
		</g>
	</g>
</g>
<g id="Layer_4">
	<polygon class="st1" points="65.1,155.8 3,191.7 3,263.4 65.1,299.3 127.3,263.4 127.3,191.7 	"/>
	<path class="st0" d="M65.1,302.8L0,265.1v-75.2l65.1-37.6l65.1,37.6v75.2L65.1,302.8z M6,261.7l59.1,34.1l59.1-34.1v-68.3
		l-59.1-34.1L6,193.4V261.7z"/>
	<rect x="63.1" y="155.8" transform="matrix(0.5 -0.866 0.866 0.5 -164.4921 170.1806)" class="st0" width="4" height="143.5"/>
	
		<rect x="-6.6" y="225.5" transform="matrix(0.8661 -0.4999 0.4999 0.8661 -105.0305 63.0365)" class="st0" width="143.5" height="4"/>
	<rect x="63.1" y="155.8" class="st0" width="4" height="143.5"/>
	<polygon id="_Polygon_3" points="65.1,185.2 28.4,206.4 28.4,248.7 65.1,269.9 101.8,248.7 101.8,206.4 	"/>
	<rect x="44.8" y="195.8" transform="matrix(0.5 -0.866 0.866 0.5 -164.4922 148.9901)" class="st0" width="4" height="42.4"/>
	<rect x="62.3" y="214.9" transform="matrix(0.8661 -0.4999 0.4999 0.8661 -97.276 70.792)" class="st0" width="42.4" height="4"/>
	<rect x="63.1" y="227.5" class="st0" width="4" height="42.4"/>
</g>
</svg>
