<svg xmlns="http://www.w3.org/2000/svg" viewBox="0 0 564.83997 188.575"><defs><style>.cls-1,.cls-4{fill:#fff;}.cls-1,.cls-2,.cls-3,.cls-5,.cls-6,.cls-7{stroke:#000;stroke-miterlimit:10;stroke-width:0.5px;}.cls-2{fill:#ed1e33;}.cls-3{fill:#154fce;}.cls-5{fill:#269245;}.cls-6{fill:#333;}.cls-7{fill:#ffe001;}</style></defs><title>my_flags</title><g id="Layer_7" data-name="Layer 7"><path class="cls-1" d="M376.17,147v.28a5.476,5.476,0,0,1-2.74,4.75L352.7,164H235.3l-20.73-11.97a5.476,5.476,0,0,1-2.74-4.75V147Z" transform="translate(-11.58002 -8.71248)"/><path class="cls-2" d="M352.7,164l-1.73,1-54.23,31.31a5.52372,5.52372,0,0,1-5.48,0L237.03,165l-1.73-1Z" transform="translate(-11.58002 -8.71248)"/><rect class="cls-2" x="200.25" y="121.28752" width="164.33997" height="17"/><rect class="cls-1" x="200.25" y="104.28752" width="164.33997" height="17"/><path class="cls-3" d="M287,12.15V113H211.83V58.72a5.4761,5.4761,0,0,1,2.74-4.75Z" transform="translate(-11.58002 -8.71248)"/><g id="Layer_8" data-name="Layer 8"><g id="Layer_9" data-name="Layer 9"><circle class="cls-4" cx="264.41998" cy="33.28752" r="2"/><circle class="cls-4" cx="264.41998" cy="48.28752" r="2"/><circle class="cls-4" cx="264.41998" cy="63.28752" r="2"/><circle class="cls-4" cx="264.41998" cy="78.28752" r="2"/><circle class="cls-4" cx="264.41998" cy="93.28752" r="2"/><circle class="cls-4" cx="249.41998" cy="33.28752" r="2"/><circle class="cls-4" cx="249.41998" cy="48.28752" r="2"/><circle class="cls-4" cx="249.41998" cy="63.28752" r="2"/><circle class="cls-4" cx="249.41998" cy="78.28752" r="2"/><circle class="cls-4" cx="249.41998" cy="93.28752" r="2"/></g><g id="Layer_11" data-name="Layer 11"><circle class="cls-4" cx="233.41998" cy="48.28752" r="2"/><circle class="cls-4" cx="233.41998" cy="63.28752" r="2"/><circle class="cls-4" cx="233.41998" cy="78.28752" r="2"/><circle class="cls-4" cx="233.41998" cy="93.28752" r="2"/><circle class="cls-4" cx="218.41998" cy="48.28752" r="2"/><circle class="cls-4" cx="218.41998" cy="63.28752" r="2"/><circle class="cls-4" cx="218.41998" cy="78.28752" r="2"/><circle class="cls-4" cx="218.41998" cy="93.28752" r="2"/><circle class="cls-4" cx="210.41998" cy="56.28752" r="2"/><circle class="cls-4" cx="210.41998" cy="71.28752" r="2"/><circle class="cls-4" cx="210.41998" cy="86.28752" r="2"/></g><g id="Layer_10" data-name="Layer 10"><circle class="cls-4" cx="256.41998" cy="41.28752" r="2"/><circle class="cls-4" cx="256.41998" cy="56.28752" r="2"/><circle class="cls-4" cx="256.41998" cy="70.28752" r="2"/><circle class="cls-4" cx="256.41998" cy="85.28752" r="2"/><circle class="cls-4" cx="241.41998" cy="41.28752" r="2"/><circle class="cls-4" cx="241.41998" cy="56.28752" r="2"/><circle class="cls-4" cx="241.41998" cy="70.28752" r="2"/><circle class="cls-4" cx="241.41998" cy="85.28752" r="2"/><circle class="cls-4" cx="226.41998" cy="41.28752" r="2"/><circle class="cls-4" cx="226.41998" cy="56.28752" r="2"/><circle class="cls-4" cx="226.41998" cy="70.28752" r="2"/><circle class="cls-4" cx="226.41998" cy="85.28752" r="2"/></g></g><rect class="cls-2" x="275.41998" y="87.28752" width="89.16998" height="17"/><rect class="cls-1" x="275.41998" y="70.28752" width="89.16998" height="17"/><rect class="cls-2" x="275.41998" y="53.28752" width="89.16998" height="17"/><path class="cls-1" d="M376.17,58.72V62H287V45h70.89l15.54,8.97A5.4761,5.4761,0,0,1,376.17,58.72Z" transform="translate(-11.58002 -8.71248)"/><path class="cls-2" d="M357.89,45H287V12.15l4.26-2.46a5.52342,5.52342,0,0,1,5.48,0Z" transform="translate(-11.58002 -8.71248)"/></g><g id="Layer_4" data-name="Layer 4"><path class="cls-2" d="M576.17,58.72V77.5H411.83V58.72a5.4761,5.4761,0,0,1,2.74-4.75L491.26,9.69a5.52342,5.52342,0,0,1,5.48,0l76.69,44.28A5.4761,5.4761,0,0,1,576.17,58.72Z" transform="translate(-11.58002 -8.71248)"/><rect class="cls-1" x="400.25" y="68.78752" width="164.33997" height="51"/><path class="cls-5" d="M576.17,128.5v18.78a5.476,5.476,0,0,1-2.74,4.75l-76.69,44.28a5.52372,5.52372,0,0,1-5.48,0l-76.69-44.28a5.476,5.476,0,0,1-2.74-4.75V128.5Z" transform="translate(-11.58002 -8.71248)"/></g><g id="Layer_2" data-name="Layer 2"><path class="cls-6" d="M176.17,58.72V77.5H11.83V58.72a5.4761,5.4761,0,0,1,2.74-4.75L91.26,9.69a5.52342,5.52342,0,0,1,5.48,0l76.69,44.28A5.4761,5.4761,0,0,1,176.17,58.72Z" transform="translate(-11.58002 -8.71248)"/><rect class="cls-2" x="0.25" y="68.78752" width="164.33997" height="51"/><path class="cls-7" d="M176.17,128.5v18.78a5.476,5.476,0,0,1-2.74,4.75L96.74,196.31a5.52372,5.52372,0,0,1-5.48,0L14.57,152.03a5.476,5.476,0,0,1-2.74-4.75V128.5Z" transform="translate(-11.58002 -8.71248)"/></g></svg>