<svg width="48" height="57" xmlns="http://www.w3.org/2000/svg" xmlns:svg="http://www.w3.org/2000/svg">
 <!-- Created with Method Draw - http://github.com/duopixel/Method-Draw/ -->
 <g>
  <title>Layer 1</title>
  <ellipse fill="#000000" stroke-width="1.5" cx="24.000001" cy="23.978323" id="svg_1" rx="21.750246" ry="21.750246" stroke="#000"/>
  <rect stroke="#000" fill="#000000" stroke-width="1.5" x="13.177508" y="28.440079" width="21.750246" height="21.750246" id="svg_2" transform="rotate(-45.12268829345703 24.05263137817382,39.31519699096679) "/>
  <style type="text/css">.st0{fill:#FFFFFF;}
	.st1{fill:#BDBDBD;}
	.st2{clip-path:url(#SVGID_2_);}</style>
  <g transform="matrix(0.198040197498475,0,0,0.1966896999121262,44.12335435326949,63.40456078697729) " id="svg_12" stroke="null">
   <polygon class="st1" points="-101.61252188682556,-269.8512268066406 -163.71246695518494,-233.9512481689453 -163.71246695518494,-162.2512664794922 -101.61252188682556,-126.35127258300781 -39.41250967979431,-162.2512664794922 -39.41250967979431,-233.9512481689453 " id="svg_30" stroke="null"/>
   <path class="st0" d="m-101.612494,-122.85124l-65.1,-37.7l0,-75.2l65.1,-37.6l65.1,37.6l0,75.2l-65.1,37.7zm-59.1,-41.1l59.1,34.1l59.1,-34.1l0,-68.3l-59.1,-34.1l-59.1,34.1l0,68.3z" id="svg_31" stroke="null"/>
   <rect x="348.370283" y="-201.414354" transform="matrix(0.5,-0.866,0.866,0.5,-164.4921,170.1806) " class="st0" width="4" height="143.5" id="svg_32" stroke="null"/>
   <rect x="61.791371" y="-226.482907" transform="matrix(0.8661,-0.4999,0.4999,0.8661,-105.0305,63.0365) " class="st0" width="143.5" height="4" id="svg_33" stroke="null"/>
   <rect x="-103.612489" y="-269.851242" class="st0" width="4" height="143.5" id="svg_34" stroke="null"/>
   <polygon id="svg_13" points="-101.61252188682556,-240.45123291015625 -138.31248831748962,-219.25125122070312 -138.31248831748962,-176.9512481689453 -101.61252188682556,-155.7512664794922 -64.91247916221619,-176.9512481689453 -64.91247916221619,-219.25125122070312 " stroke="null"/>
   <rect x="330.070283" y="-161.414354" transform="matrix(0.5,-0.866,0.866,0.5,-164.4922,148.9901) " class="st0" width="4" height="42.4" id="svg_35" stroke="null"/>
   <rect x="130.691371" y="-237.082907" transform="matrix(0.8661,-0.4999,0.4999,0.8661,-97.276,70.792) " class="st0" width="42.4" height="4" id="svg_36" stroke="null"/>
   <rect x="-103.612489" y="-198.151242" class="st0" width="4" height="42.4" id="svg_37" stroke="null"/>
  </g>
 </g>
</svg>