<svg xmlns="http://www.w3.org/2000/svg" xmlns:xlink="http://www.w3.org/1999/xlink" viewBox="0 0 226.59266 157.00009"><defs><style>.cls-1{fill:#092e20;}.cls-2{fill:#646464;}.cls-3{fill:url(#linear-gradient);}.cls-4{fill:url(#linear-gradient-2);}.cls-5{opacity:0.444;isolation:isolate;fill:url(#radial-gradient);}</style><linearGradient id="linear-gradient" x1="-2191.84504" y1="325.53758" x2="-2182.22928" y2="333.8106" gradientTransform="translate(6506.23153 -861.63519) scale(2.96177 2.99073)" gradientUnits="userSpaceOnUse"><stop offset="0" stop-color="#5a9fd4"/><stop offset="1" stop-color="#306998"/></linearGradient><linearGradient id="linear-gradient-2" x1="-2178.51442" y1="338.81714" x2="-2181.94815" y2="333.95889" gradientTransform="translate(6506.23153 -861.63519) scale(2.96177 2.99073)" gradientUnits="userSpaceOnUse"><stop offset="0" stop-color="#ffd43b"/><stop offset="1" stop-color="#ffe873"/></linearGradient><radialGradient id="radial-gradient" cx="-3440.74315" cy="111.5325" r="2.56071" gradientTransform="translate(-577.71701 -4176.52158) rotate(-90) scale(1.26316 5.55338)" gradientUnits="userSpaceOnUse"><stop offset="0" stop-color="#b8b8b8" stop-opacity="0.498"/><stop offset="1" stop-color="#7f7f7f" stop-opacity="0"/></radialGradient></defs><title>my_django_python</title><g id="Layer_2" data-name="Layer 2"><path class="cls-1" d="M34.972,16H46.71161V70.34128A77.44045,77.44045,0,0,1,31.465,71.94256c-14.33235-.001-21.8032-6.47988-21.8032-18.90653,0-11.96879,7.9287-19.74406,20.20192-19.74406a18.77175,18.77175,0,0,1,5.10827.60933Zm0,27.35359a11.66309,11.66309,0,0,0-3.96435-.60933c-5.94628,0-9.377,3.65944-9.377,10.0626,0,6.25169,3.2783,9.682,9.30081,9.682a27.33594,27.33594,0,0,0,4.04058-.30442Z" transform="translate(-9.66181 -16)"/><path class="cls-1" d="M65.388,34.13v27.2149c0,9.377-.68655,13.875-2.74421,17.76262-1.90619,3.73616-4.42221,6.09874-9.60572,8.69148l-10.9016-5.184c5.184-2.43979,7.69953-4.57369,9.30032-7.853,1.67751-3.35354,2.2116-7.24216,2.2116-17.45722V34.13H65.388ZM53.64836,16.06246H65.388v12.045H53.64836ZM72.47916,36.798a35.32215,35.32215,0,0,1,15.552-3.506c6.02251,0,9.98637,1.6003,11.74011,4.72614.99047,1.75325,1.29539,4.04009,1.29539,8.91967V70.79815a129.18941,129.18941,0,0,1-16.77116,1.29637c-9.83392,0-14.25613-3.43174-14.25613-11.05455,0-8.23411,5.87005-12.04551,20.27814-13.26565V45.18257c0-2.13439-1.06719-2.89618-4.04058-2.89618A30.74452,30.74452,0,0,0,72.47817,45.8696l.001-9.07163ZM90.85209,55.47533c-7.77625.76228-10.29226,1.98193-10.29226,5.03155,0,2.28635,1.44882,3.35354,4.6504,3.35354a32.3867,32.3867,0,0,0,5.64137-.5331Zm15.93265-19.51587A70.40618,70.40618,0,0,1,125.23292,33.292c6.02251,0,10.368,1.37161,12.96074,4.04009,2.43929,2.515,3.20109,5.25925,3.20109,11.13028V71.4842H129.65465V48.91971c0-4.49746-1.52456-6.17546-5.71711-6.17546a17.68594,17.68594,0,0,0-5.41318.83851V71.48421H106.78474Zm39.17386,41.9284a26.71991,26.71991,0,0,0,12.57862,3.12486c7.69854,0,10.97685-3.12486,10.97685-10.59619v-.22868a16.06078,16.06078,0,0,1-7.62281,1.60079c-10.29178,0-16.84887-6.78479-16.84887-17.533,0-13.34188,9.68244-20.88846,26.83425-20.88846a74.10577,74.10577,0,0,1,15.32331,1.67653L183.18,43.51195c-3.12536-.60983-.25032-.08164-2.61242-.31032v1.22014l.152,4.95433.07573,6.40414c.07623,1.6003.07623,3.20158.153,4.80237v3.20256c0,10.0626-.8385,14.78874-3.35354,18.67687-3.65944,5.71809-9.98736,8.538-18.98276,8.538a33.58261,33.58261,0,0,1-12.65435-2.28684l.001-10.82537Zm23.32776-35.06738H168.0672a12.82741,12.82741,0,0,0-6.78479,1.67653c-2.82,1.60128-4.26976,4.49844-4.26976,8.61476,0,5.87054,2.89815,9.22458,8.08166,9.22458a14.564,14.564,0,0,0,4.42074-.76228V57.534c0-1.3726-.07525-2.89814-.07525-4.49795l-.07573-5.41219-.07672-3.88812-.001-.91523Zm36.14-9.68146c11.73962,0,18.906,7.39511,18.906,19.36341,0,12.2742-7.47035,19.97372-19.3634,19.97372-11.74059,0-18.98325-7.39511-18.98325-19.28718.001-12.35092,7.47232-20.05,19.44062-20.05Zm-.22967,29.88338c4.49795,0,7.16642-3.73567,7.16642-10.21555,0-6.40316-2.59224-10.21505-7.08922-10.21505-4.6509,0-7.31986,3.73616-7.31986,10.21505.001,6.48037,2.66946,10.21555,7.24265,10.21555Z" transform="translate(-9.66181 -16)"/></g><g id="Layer_3" data-name="Layer 3"><path class="cls-2" d="M98.88623,136.24682q0-10.14458-5.78543-10.4251a10.86241,10.86241,0,0,0-4.49059.738,6.58454,6.58454,0,0,0-2.35839,1.24514v16.14272q3.70059,2.32262,6.56846,2.155Q98.88321,145.70055,98.88623,136.24682Zm4.75764.28052a14.3454,14.3454,0,0,1-2.42666,8.55576,8.94669,8.94669,0,0,1-7.50986,3.96114,13.32341,13.32341,0,0,1-7.456-2.26364v14.67186l-4.13762-1.476v-32.566a9.25848,9.25848,0,0,1,2.612-2.155,17.92652,17.92652,0,0,1,8.977-2.20884l.05852.05852a8.23575,8.23575,0,0,1,7.44205,3.96114,16.83286,16.83286,0,0,1,2.44059,9.46094Zm25.28691,9.62906q0,6.91283-1.38493,9.57426a9.766,9.766,0,0,1-5.301,4.2463,20.30651,20.30651,0,0,1-6.85362,1.36264l-.68411-2.60732a32.877,32.877,0,0,0,5.26944-1.0185,6.96232,6.96232,0,0,0,4.13762-3.11448q.90982-1.704.90518-6.51366v-1.07748a21.25145,21.25145,0,0,1-8.89479,1.92414,8.176,8.176,0,0,1-5.38276-1.92414,6.5452,6.5452,0,0,1-2.60732-5.32332V124.46372l4.13762-1.417v17.33306a5.26728,5.26728,0,0,0,1.79224,4.27788,6.77241,6.77241,0,0,0,4.64014,1.44392,11.60285,11.60285,0,0,0,6.08823-2.2093V123.67094h4.13762V146.1564Zm16.15155,2.66166q-.67981.05743-1.36264.05852a8.14118,8.14118,0,0,1-5.46821-1.67474,5.78557,5.78557,0,0,1-1.95107-4.63085V126.27407h-2.834V123.6714h2.834v-6.9126l4.133-1.47132v8.38392h4.649v2.60268h-4.649v16.18359a3.92052,3.92052,0,0,0,1.24885,3.29607,6.32117,6.32117,0,0,0,3.39964.90982v2.1545Zm25.05192-.3395h-4.13762V132.50768a7.54729,7.54729,0,0,0-1.136-4.1915,4.13421,4.13421,0,0,0-3.6444-1.98312q-2.84512,0-7.116,3.00116v19.14434H149.963V110.30366L154.10019,109v17.3874a14.4153,14.4153,0,0,1,8.66908-2.8883,6.90976,6.90976,0,0,1,5.32379,2.2093,7.77885,7.77885,0,0,1,2.04164,5.49562v17.27454h-.00045Zm21.9913-12.88333a12.7087,12.7087,0,0,0-1.476-6.44167,6.17769,6.17769,0,0,0-5.43663-3.27285q-6.80416.3936-6.79974,9.74192a16.02434,16.02434,0,0,0,1.42163,7.15689q1.81964,3.66018,5.45986,3.60353,6.83062-.055,6.83087-10.78782Zm4.53145.02694a14.71486,14.71486,0,0,1-2.834,9.23476,10.1911,10.1911,0,0,1-8.6101,4.133,9.988,9.988,0,0,1-8.50142-4.133,14.91167,14.91167,0,0,1-2.77545-9.23476,13.182,13.182,0,0,1,3.00163-8.78194,10.341,10.341,0,0,1,8.32958-3.79348,10.51465,10.51465,0,0,1,8.3881,3.79348,13.1821,13.1821,0,0,1,3.00163,8.78194Zm23.72039,12.8564h-4.13762V131.6025a5.64456,5.64456,0,0,0-1.6701-4.33686,6.0698,6.0698,0,0,0-4.45019-1.49872,9.94353,9.94353,0,0,0-5.60847,1.92414v20.7875h-4.13762V127.17971a20.38845,20.38845,0,0,1,6.57311-3.395,20.05984,20.05984,0,0,1,4.98846-.738,12.9377,12.9377,0,0,1,2.775.28516,7.98226,7.98226,0,0,1,3.96532,2.096,5.54473,5.54473,0,0,1,1.70215,4.07864v18.972Z" transform="translate(-9.66181 -16)"/><path class="cls-3" d="M41.2484,110.45646a35.51188,35.51188,0,0,0-5.9503.50809c-5.26944.93119-6.22617,2.87948-6.22617,6.47325v4.746H41.52427v1.58185H24.39835a7.77528,7.77528,0,0,0-7.77923,6.31349,23.27545,23.27545,0,0,0,0,12.65576c.88521,3.68666,2.9993,6.31349,6.61815,6.31349h4.2816v-5.68929a7.91324,7.91324,0,0,1,7.77923-7.73557H47.736a6.27361,6.27361,0,0,0,6.22617-6.32788V117.43733c0-3.37456-2.847-5.90989-6.22617-6.47325a38.8445,38.8445,0,0,0-6.48765-.50762Zm-6.73426,3.8167a2.3733,2.3733,0,1,1-2.33655,2.38021,2.36257,2.36257,0,0,1,2.33655-2.38021Z" transform="translate(-9.66181 -16)"/><path class="cls-4" d="M55.51527,123.76521v5.52952a7.98679,7.98679,0,0,1-7.77923,7.89534H35.2981a6.35207,6.35207,0,0,0-6.22617,6.32788v11.85741c0,3.375,2.93428,5.36,6.22617,6.32788a20.83082,20.83082,0,0,0,12.43795,0c3.13491-.9075,6.22617-2.73457,6.22617-6.32788V150.6298H41.52427v-1.58185H60.18839c3.61932,0,4.96756-2.52465,6.22617-6.31349,1.30041-3.9003,1.24514-7.652,0-12.65576-.8945-3.6026-2.60267-6.31349-6.22617-6.31349Zm-6.99573,30.0283a2.3733,2.3733,0,1,1-2.33656,2.36582A2.3501,2.3501,0,0,1,48.51954,153.79351Z" transform="translate(-9.66181 -16)"/><path class="cls-2" d="M228.43481,119.98242h.72545v-4.54957h1.71794v-.54246H226.716v.54246h1.7184v4.54957m3.08755,0h.61956v-4.15527l1.345,4.15481h.68967l1.40213-4.14087v4.14134h.67621v-5.09157H235.36l-1.53217,4.36241-1.306-4.36241h-.99993v5.09156" transform="translate(-9.66181 -16)"/><path class="cls-5" d="M58.353,169.76439c0,1.78714-7.47131,3.23569-16.688,3.23569-9.21618,0-16.6875-1.44856-16.6875-3.23569s7.47131-3.23616,16.6875-3.23616C50.88164,166.52823,58.353,167.97726,58.353,169.76439Z" transform="translate(-9.66181 -16)"/></g></svg>