<?xml version="1.0" encoding="utf-8"?>
<!-- Generator: Adobe Illustrator 22.0.1, SVG Export Plug-In . SVG Version: 6.00 Build 0)  -->
<svg version="1.1" id="Layer_1" xmlns="http://www.w3.org/2000/svg" xmlns:xlink="http://www.w3.org/1999/xlink" x="0px" y="0px"
	 viewBox="0 0 740 680" style="enable-background:new 0 0 740 680;" xml:space="preserve">
<style type="text/css">
	.st0{fill:#89C5CC;}
	.st1{fill:#DDE3E9;}
	.st2{fill:#C1DEE2;}
	.st3{fill:#69A1AC;}
	.st4{opacity:0.6;}
	.st5{fill:#F2F2F2;}
	.st6{fill:#FFFFFF;}
	.st7{fill:#C5CFD6;}
	.st8{fill:#AFB9C5;}
	.st9{fill:#B28B67;}
	.st10{fill:#191847;}
	.st11{fill:#1F28CF;}
	.st12{fill:#2B44FF;}
	.st13{fill:#E87613;}
	.st14{fill:#FF9B21;}
	.st15{fill-opacity:0.1;}
</style>
<title>Scene/Wireframe</title>
<desc>Created with Sketch.</desc>
<g id="Scene_x2F_Wireframe">
	<path id="Twisted-Leaf" class="st0" d="M690.2,195.3c-0.5-0.4-1.8-0.5-2.4-0.6c-2.4-0.5-5-0.7-7.5-0.7c-7.7,0-15.5,0.8-23.1,2.1
		c-4.8,0.8-10.6,3.6-15.4,2.1c-8.3-2.6-16.7-2.5-24.6,1.3c-7.2,3.4-12.7,10-15.9,17.1c-0.5,1.1-2.4,5-3,7.7
		c-0.2,0.5-0.5,1.1-0.7,1.6c-0.6,1.6-1.1,3.2-1.6,4.8c-0.2,0.7-0.7,2.2-0.1,2.5c-1,1.8-1.9,3.7-2.6,5.7c-2.1,5.7-4.4,11.9-5.2,17.8
		c-0.3,2.2-0.3,4.4,0,6.7c0.1,1.1,0.1,3.3,0.8,4.1c1.6,1.8,2.4-0.7,2.2-1.9c-1.4-9,1.3-17.5,4.4-25.9c2-5.5,5.3-10.5,9-15
		c3-3.7,6.2-6.6,10.3-9c5-3,10.4-5.4,15.7-7.8c3.5-1.6,7-3.1,10.6-4.5c0.8-0.3,2.1-1.1,2.9-1.1c1.9,0,4.5,1.4,6.4,1.9
		c6,1.7,12,3.9,18.2,4.7c4,0.6,7.7-0.1,11.4-1.4c0.4-0.1,1-0.5,1.8-1c2.7-1.1,5.3-2.4,7.6-4.3c1.3-1.1,2.5-2.5,3.6-3.8
		c0.3-0.4,0.5-0.8,0.5-1.3c0.2-0.1,0.4-0.3,0.4-0.5C694.2,195.3,691.8,195.3,690.2,195.3"/>
	<path id="Fill-16" class="st1" d="M65.3,302.5c-1.5,1.2-3,2.5-4.4,3.8c-1.1,1-3,2.2-3.4,3.7c-0.4,1.6,0.9,3,1.9,4
		c5.4,5,11.5,8.4,19,8.9c11.6,0.9,21.6-2.1,31.6-7.9c7-4.1,11.7-10.1,12.7-18.3c8.4,3.5,16.5,8.3,23.4,14.2c3.4,2.9,6.3,6.1,9,9.7
		c1.7,2.3,3.4,4.6,5,7c0.7,1,1.4,2.9,2.5,3.5c1.3,0.7,2.9-0.4,2.8-1.9c-0.1-1.2-1.4-2.6-2-3.6c-1-1.6-2.1-3.3-3.1-4.9
		c-1.8-2.6-3.6-5.2-5.6-7.6c-4.5-5.5-10.1-10-16-13.8c-11.3-7.4-23.7-12-37.4-12.4c-8.4-0.2-15.6,2.6-22.8,7
		C74,296.6,69.4,299.2,65.3,302.5"/>
	<path id="Leaf" class="st2" d="M174.9,266.9c-8.8-9.1-17.6-18-27.5-26c-5.8-4.7-11.9-9-17.9-13.4c0.7,0.6,1.4,1.2,2,1.9
		c-1.9-1.3-4.3-2-6.3-3.2c-2.2-1.3-4.3-2.8-6.4-4.3c-4-2.9-8-5.9-12.2-8.7c-4.6-3.1-9.4-6-14.1-9c-4-2.5-8-5.3-12.3-7.4
		c-2.3-1.1-4.7-2.5-7-3.7c-0.8-0.4-8.7-5.4-8.7-5.4c0.4-0.3,4.4,1.5,5.1,1.8c1.8,0.7,3.5,1.6,5.3,2.5c-1-1.9-1.7-3.9-2.1-5.9
		c-0.1-0.6-1.1-5.3-0.6-5.7c0.3-0.2,2.8,8.2,2.9,9c0.1,0.7,0.1,1.6,0.3,2.2c0.3,1,0.3,0.7,1.1,1.3c1.4,1,3.2,1.7,4.7,2.5
		c0.8,0.5,3.3,2.3,4.8,2.8c4.6,2.2,9.2,5.7,13.6,8.5c-1.1-2.1-2-4.4-2.6-6.8c-0.2-0.6-1.8-5.6-1.4-5.9c0.4-0.3,3.5,7.3,3.7,8.1
		c0.3,1.3,0.4,2.8,0.8,4.2c0.5,1.4,1.9,1.9,3.3,2.8c4.9,3.1,9.5,6.4,14.2,9.8c5-9-0.8-19.8-5.7-27.3c-3.5-5.4-8.3-10.1-13.3-14.1
		c-6.7-5.4-14.3-9.7-22-13.7c-8.9-4.6-18.5-7.5-28.5-8.8c-5.2-0.7-10.6-0.7-15.9-0.4c-2.6,0.1-5.1,0.4-7.5,1.3
		c-1.1,0.4-2.2,0.9-3.2,1.4c-0.8,0.4-2.7,0.8-3.2,1.4c-3.8,4.9-5.7,9.8-5.4,16c0.3,5.8,2.1,11.7,4.6,16.9
		c2.8,5.8,6.4,11.1,11.1,15.5c3.6,3.4,7.6,6.3,11.6,9.2c14.2,10.3,32.1,19.3,50.4,17c5.9-0.7,11.6-2.8,16.8-5.6
		c1.2-0.7,2.5-1.3,3.7-2.1c0.8-0.5,2.9-2.9,3.7-3c1.1-0.1,3.4,2.1,4.5,2.8c7.8,5.1,15.3,10.5,22.8,16.2c7.9,6,15.4,12.4,22.7,19.1
		c3.1,2.8,6.2,5.7,9.2,8.6c0.7,0.7,2.4,3.2,3.7,3.3c0.8,0.1,1.3-0.6,1.2-1.4C178.5,269.7,175.8,267.8,174.9,266.9"/>
	<path id="Fill-10" class="st3" d="M681,231.7c-3.4-0.7-7.2-0.7-10.7-0.6c-18.6,0.3-36.9,9.1-48.8,23.2c-10.1,12-12.9,26.9-14.9,42
		c-0.2,1.5-0.3,3-0.4,4.5c0,0.3-0.1,0.6-0.1,0.9c-0.8,0.7-1.2,1.5-0.7,2.4c-1.7,3.8-3.2,7.7-4.5,11.7c-3.7,11.8-7.5,23.9-5.2,36.3
		c0.5-6.8,1.7-13.8,3-20.6c0.1-0.4,0.2-0.8,0.3-1.2c0,0,0-0.1,0-0.1c0.5-2.1,1.1-4.1,1.9-6c0,0,0,0,0-0.1c0.1-0.3,0.2-0.5,0.3-0.8
		c0.2-0.5,0.4-1.1,0.7-1.6c0.1-0.2,0.2-0.4,0.2-0.5c1.1-2.7,1.6-5.8,2.6-8.6c0.2-0.6,0.5-1.3,0.7-1.9c0,0,0-0.1,0-0.1
		c0.7-1.7,1.5-3.4,2.3-5.1c0.4-0.3,0.7-1.2,1.1-1.9c0.1-0.1,0.7-1.1,0.9-1.7c0.5-0.9,1-1.9,1.5-2.8c0,0,0,0,0,0
		c0.5-0.9,1-1.8,1.5-2.7c0.1-0.2,0.2-0.4,0.3-0.6c0.2-0.3,0.3-0.6,0.5-0.9c1.6-2.9,3.4-5.8,5.2-8.6c0.6-1,2.2-2.5,2.5-3.6
		c0,0,0-0.1,0-0.1c3.9-5.5,8.4-10.5,13.8-14.5c-0.7,0.7-2,3.1-2.4,3.6c-1.1,1.4-2.3,2.8-3.6,4.2c-2.2,2.4-4.3,5-6.2,7.6
		c-3.5,4.9-6.5,10-9.3,15.2c0,0-0.1,0.1-0.1,0.1c-1.4,1.8-2.3,4.4-3.3,6.4c4-1.9,8.5-3.1,12.7-4.8c4.1-1.7,8.2-3.5,12.1-5.7
		c5.2-2.9,10.5-6.1,15.4-9.8c5.6-3.5,10.3-8.3,14.5-13.3c4.9-5.9,9.4-11.9,12.2-19.1c1.4-3.5,2.4-7.2,3.1-11c0-0.2,0.1-0.3,0.1-0.5
		c0.7-1.3,1.2-2.6,1.7-4C682.6,234.8,684.4,232.4,681,231.7"/>
	<path id="Leave-the-Leaf_x21_" class="st0" d="M103,256.7c-1.1-1.2-2.3-2.2-3.7-2.9c-0.4-0.2-3-1.4-3.2-1.2
		C95.7,253.3,102.7,256.4,103,256.7 M115.6,249c0,0,0.9,1.6,1.2,2.1c0.5,1,1,2.1,1.5,3.1C117.6,252.4,116.9,250.6,115.6,249
		 M51.2,261.7c-0.9,0.3-2-0.8-0.8-1.1c0.9-0.2,0.9-0.3,1.3-1c0.3-0.6,0.5-1.4,0.8-2c0.6-1.4,1.3-2.6,2.2-3.9
		c1.9-2.6,4.2-4.8,6.8-6.7c4.5-3.3,9.5-6.3,14.9-7.8c8.5-2.4,18.2-2.5,26.7-0.9c5.3,1,10.1,2.8,13.6,7.1c1.7,2.1,3.1,4.6,3.7,7.3
		c0.2,0.7,0.1,1.5,0.3,2.2c0.3,1.1,0.2,0.8,1.4,1c1.4,0.2,2.7,0.5,4.1,0.7c3.6,0.6,7.2,1.3,10.7,2.3c1.2,0.3,2.3,0.7,3.4,1.2
		c0.8,0.4,4.2,1.5,4.6,2.6c0.7,1.8-1.6,1-2.3,0.6c-0.6-0.3-1.2-0.7-1.9-1c-1.6-0.7-3.3-1.3-5-1.8c-1.8-0.5-3.7-0.9-5.6-1.2
		c-1.8-0.3-3.5-0.7-5.3-1c-1-0.2-2-0.3-2.9-0.5c-0.3-0.1-0.9-0.3-0.9,0.1c-2.1-0.4-4.3-0.3-6.4-0.4c-2.6-0.1-5.1-0.2-7.7-0.2
		c-1.9,0.1-3.7,0.2-5.6,0.4c-1.1,0.1-2.1,0.4-3.2,0.6c-0.6,0.1-2.9,0.5-3.2,1c0.1-0.2,2.7,0,3,0c1.3,0,2.6-0.2,3.9-0.3
		c2.4-0.3,4.8-0.4,7.2-0.4c0,0.4-1.6,1.2-2,1.4c-0.9,0.6-1.8,1.3-2.5,2.1c-1.4,1.3-3.1,2.9-4.1,4.5c0.3-0.5,1.7-1.1,2.2-1.4
		c0.8-0.6,1.6-1.2,2.3-1.8c0.7-0.6,1.3-1.2,2-1.9c0.6-0.7,1.5-2,2.3-2.4c0.1,0,0.4,0.3,0.6,0.2c0.2-0.1,0.5-0.6,0.5-0.6
		c0.8-0.3,2.2,0.1,3.1,0.1c2.1,0.1,4.2,0.2,6.3,0.3c0.7,0,1.2-0.1,1.5,0.4c0.3,0.5-0.2,1.9-0.4,2.4c-0.5,2.1-1.4,3.9-2.8,5.5
		c-2.7,3-5.9,5-9.6,6.4c-14.2,5.1-29.3,7.2-43.5,1.9C59,273.5,50.2,269.5,51.2,261.7"/>
	<g id="Background-Shape-2" transform="translate(39.000000, 358.000000)" class="st4">
		<path id="Background-Shape" class="st1" d="M661.7,146.2c9.6,65.3-224.4,107.9-425.8,78.2S-57.9,78.5,38.2,16.6
			S652.1,80.8,661.7,146.2z"/>
	</g>
	<g id="Mobile3" transform="translate(138.000000, 76.000000)">
		<path id="Container" class="st5" d="M8,0h143c4.4,0,8,3.6,8,8v286c0,4.4-3.6,8-8,8H8c-4.4,0-8-3.6-8-8V8C0,3.6,3.6,0,8,0z"/>
		<circle id="Touch" class="st6" cx="79" cy="268" r="15"/>
		<g id="Camera" transform="translate(64.000000, 16.000000)">
			<circle id="Lens" class="st6" cx="2" cy="2" r="2"/>
			<path id="Sensor" class="st6" d="M11,0h17c1.1,0,2,0.9,2,2l0,0c0,1.1-0.9,2-2,2H11C9.9,4,9,3.1,9,2l0,0C9,0.9,9.9,0,11,0z"/>
		</g>
		<g id="Rows" transform="translate(14.000000, 28.000000)">
			<g id="Row">
				<path id="Background" class="st6" d="M4,0h123c2.2,0,4,1.8,4,4v46c0,2.2-1.8,4-4,4H4c-2.2,0-4-1.8-4-4V4C0,1.8,1.8,0,4,0z"/>
				<g id="Text" transform="translate(39.000000, 16.200000)">
					<path id="Name" class="st1" d="M3,0h67c1.7,0,3,1.3,3,3v2.1c0,1.7-1.3,3-3,3H3c-1.7,0-3-1.3-3-3V3C0,1.3,1.3,0,3,0z"/>
					<path id="Name_1_" class="st1" d="M3,13.5h43c1.7,0,3,1.3,3,3v2.1c0,1.7-1.3,3-3,3H3c-1.7,0-3-1.3-3-3v-2.1
						C0,14.8,1.3,13.5,3,13.5z"/>
				</g>
				<circle id="Avatar" class="st7" cx="21" cy="27" r="12"/>
			</g>
			<g id="Row_1_" transform="translate(0.000000, 62.000000)">
				<path id="Background_1_" class="st6" d="M4,0h123c2.2,0,4,1.8,4,4v34c0,2.2-1.8,4-4,4H4c-2.2,0-4-1.8-4-4V4C0,1.8,1.8,0,4,0z"/>
				<g id="Text_1_" transform="translate(39.000000, 12.600000)">
					<path id="Name_2_" class="st1" d="M3,0h67c1.7,0,3,1.3,3,3v0.3c0,1.7-1.3,3-3,3H3c-1.7,0-3-1.3-3-3V3C0,1.3,1.3,0,3,0z"/>
					<path id="Name_3_" class="st1" d="M3,10.5h43c1.7,0,3,1.3,3,3v0.3c0,1.7-1.3,3-3,3H3c-1.7,0-3-1.3-3-3v-0.3
						C0,11.8,1.3,10.5,3,10.5z"/>
				</g>
				<circle id="Avatar_1_" class="st7" cx="21" cy="21" r="12"/>
			</g>
			<g id="Row_2_" transform="translate(0.000000, 112.000000)">
				<path id="Background_2_" class="st6" d="M4,0h123c2.2,0,4,1.8,4,4v34c0,2.2-1.8,4-4,4H4c-2.2,0-4-1.8-4-4V4C0,1.8,1.8,0,4,0z"/>
				<g id="Text_2_" transform="translate(39.000000, 12.600000)">
					<path id="Name_4_" class="st1" d="M3,0h67c1.7,0,3,1.3,3,3v0.3c0,1.7-1.3,3-3,3H3c-1.7,0-3-1.3-3-3V3C0,1.3,1.3,0,3,0z"/>
					<path id="Name_5_" class="st1" d="M3,10.5h43c1.7,0,3,1.3,3,3v0.3c0,1.7-1.3,3-3,3H3c-1.7,0-3-1.3-3-3v-0.3
						C0,11.8,1.3,10.5,3,10.5z"/>
				</g>
				<circle id="Avatar_2_" class="st8" cx="21" cy="21" r="12"/>
			</g>
			<g id="Row_3_" transform="translate(0.000000, 162.000000)">
				<path id="Background_3_" class="st6" d="M4,0h123c2.2,0,4,1.8,4,4v34c0,2.2-1.8,4-4,4H4c-2.2,0-4-1.8-4-4V4C0,1.8,1.8,0,4,0z"/>
				<g id="Text_3_" transform="translate(39.000000, 12.600000)">
					<path id="Name_6_" class="st1" d="M3,0h67c1.7,0,3,1.3,3,3v0.3c0,1.7-1.3,3-3,3H3c-1.7,0-3-1.3-3-3V3C0,1.3,1.3,0,3,0z"/>
					<path id="Name_7_" class="st1" d="M3,10.5h43c1.7,0,3,1.3,3,3v0.3c0,1.7-1.3,3-3,3H3c-1.7,0-3-1.3-3-3v-0.3
						C0,11.8,1.3,10.5,3,10.5z"/>
				</g>
				<circle id="Avatar_3_" class="st7" cx="21" cy="21" r="12"/>
			</g>
		</g>
	</g>
	<g id="Mobile3_1_" transform="translate(156.000000, 102.000000)">
		<g id="Group" transform="translate(0.000000, 218.000000)">
			<path id="Fill-16_1_" class="st0" d="M12.1,0c-1.3,0-2.6,0-4,0.1c-1,0.1-2.5-0.2-3.4,0.5c-0.9,0.7-0.8,2-0.7,2.9
				c0.7,5,2.5,9.4,6.3,13c5.8,5.4,12.4,8.2,20.2,9.4c5.5,0.9,10.5-0.3,14.6-4.2c3,5.5,5.2,11.5,6.3,17.7c0.6,3,0.7,6,0.6,9.1
				c-0.1,2-0.2,3.9-0.4,5.9c-0.1,0.9-0.5,2.1-0.2,2.9c0.4,0.9,1.7,1,2.3,0.2c0.5-0.7,0.4-2,0.5-2.8c0.2-1.3,0.3-2.6,0.4-4
				c0.2-2.1,0.3-4.3,0.3-6.4c0-4.8-1.1-9.7-2.6-14.3C49.6,21.2,45,13.4,37.9,7.2c-4.4-3.8-9.4-5.3-15.1-6.1C19.3,0.6,15.7,0,12.1,0"
				/>
			<path id="Fill-18" class="st0" d="M32.6,35C18.3,35,8.6,46.5,4.1,58.5C2.4,63,2,68,1.3,72.7c-0.2,1.5-0.1,3.8-0.8,5.2
				c-0.2,0.5-0.7,0.7-0.5,1.3c0.1,0.4,0.4,0.7,0.9,0.7c0.9,0.2,2.2-0.8,2.9-1.2c6.4-3.2,10.6-8.2,14-14.2c2.1-3.8,4.3-7.7,5.5-11.8
				c0.8-2.5,1.2-5.2,1.5-7.8c0.1-1,0.2-2.1,0.2-3.1c0-1-0.5-1.6-0.8-2.5c4.8-1.8,10.2-2.3,15-0.4c4.5,1.7,8.2,5.1,10.3,9.3
				c0.5,1.1,1,2.2,1.3,3.4c0.2,0.8,0.2,1.8,0.6,2.5c0.9,1.7,2.8,0.6,2.6-1c-0.5-4.4-3-8.8-6.2-11.8C43.7,37.4,38.3,35,32.6,35"/>
		</g>
		<path id="Container_1_" class="st1" d="M56,0h143c4.4,0,8,3.6,8,8v286c0,4.4-3.6,8-8,8H56c-4.4,0-8-3.6-8-8V8C48,3.6,51.6,0,56,0z
			"/>
		<circle id="Touch_1_" class="st6" cx="127" cy="268" r="15"/>
		<g id="Camera_1_" transform="translate(112.000000, 16.000000)">
			<circle id="Lens_1_" class="st6" cx="2" cy="2" r="2"/>
			<path id="Sensor_1_" class="st6" d="M11,0h17c1.1,0,2,0.9,2,2l0,0c0,1.1-0.9,2-2,2H11C9.9,4,9,3.1,9,2l0,0C9,0.9,9.9,0,11,0z"/>
		</g>
		<g id="Rows_1_" transform="translate(62.000000, 28.000000)">
			<g id="Row_4_">
				<path id="Container_2_" class="st6" d="M4,0h123c2.2,0,4,1.8,4,4v46c0,2.2-1.8,4-4,4H4c-2.2,0-4-1.8-4-4V4C0,1.8,1.8,0,4,0z"/>
				<g id="Text-Stuff" transform="translate(9.000000, 16.200000)">
					<path id="Label" class="st1" d="M3,0h67c1.7,0,3,1.3,3,3v2.1c0,1.7-1.3,3-3,3H3c-1.7,0-3-1.3-3-3V3C0,1.3,1.3,0,3,0z"/>
					<path id="Label_1_" class="st1" d="M3,13.5h43c1.7,0,3,1.3,3,3v2.1c0,1.7-1.3,3-3,3H3c-1.7,0-3-1.3-3-3v-2.1
						C0,14.8,1.3,13.5,3,13.5z"/>
				</g>
				<g id="Check" transform="translate(110.000000, 20.000000)">
					<circle id="Background_4_" class="st1" cx="7" cy="7" r="7"/>
					<circle id="Indicator" class="st5" cx="7" cy="7" r="3"/>
				</g>
			</g>
			<g id="Row_5_" transform="translate(0.000000, 62.000000)">
				<path id="Background_5_" class="st6" d="M4,0h123c2.2,0,4,1.8,4,4v34c0,2.2-1.8,4-4,4H4c-2.2,0-4-1.8-4-4V4C0,1.8,1.8,0,4,0z"/>
				<g id="Text_4_" transform="translate(39.000000, 12.600000)">
					<path id="Name_8_" class="st1" d="M3,0h67c1.7,0,3,1.3,3,3v0.3c0,1.7-1.3,3-3,3H3c-1.7,0-3-1.3-3-3V3C0,1.3,1.3,0,3,0z"/>
					<path id="Name_9_" class="st1" d="M3,10.5h43c1.7,0,3,1.3,3,3v0.3c0,1.7-1.3,3-3,3H3c-1.7,0-3-1.3-3-3v-0.3
						C0,11.8,1.3,10.5,3,10.5z"/>
				</g>
				<circle id="Avatar_4_" class="st7" cx="21" cy="21" r="12"/>
			</g>
			<g id="Row_6_" transform="translate(0.000000, 112.000000)">
				<path id="Container_3_" class="st6" d="M4,0h123c2.2,0,4,1.8,4,4v34c0,2.2-1.8,4-4,4H4c-2.2,0-4-1.8-4-4V4C0,1.8,1.8,0,4,0z"/>
				<g id="Text-Stuff_1_" transform="translate(9.000000, 12.600000)">
					<path id="Label_2_" class="st1" d="M3,0h67c1.7,0,3,1.3,3,3v0.3c0,1.7-1.3,3-3,3H3c-1.7,0-3-1.3-3-3V3C0,1.3,1.3,0,3,0z"/>
					<path id="Label_3_" class="st8" d="M3,10.5h43c1.7,0,3,1.3,3,3v0.3c0,1.7-1.3,3-3,3H3c-1.7,0-3-1.3-3-3v-0.3
						C0,11.8,1.3,10.5,3,10.5z"/>
				</g>
				<g id="Check_1_" transform="translate(110.000000, 14.000000)">
					<circle id="Background_6_" class="st1" cx="7" cy="7" r="7"/>
					<circle id="Indicator_1_" class="st5" cx="7" cy="7" r="3"/>
				</g>
			</g>
			<g id="Row_7_" transform="translate(0.000000, 162.000000)">
				<path id="Background_7_" class="st6" d="M4,0h123c2.2,0,4,1.8,4,4v34c0,2.2-1.8,4-4,4H4c-2.2,0-4-1.8-4-4V4C0,1.8,1.8,0,4,0z"/>
				<g id="Text_5_" transform="translate(39.000000, 12.600000)">
					<path id="Name_10_" class="st1" d="M3,0h67c1.7,0,3,1.3,3,3v0.3c0,1.7-1.3,3-3,3H3c-1.7,0-3-1.3-3-3V3C0,1.3,1.3,0,3,0z"/>
					<path id="Name_11_" class="st1" d="M3,10.5h43c1.7,0,3,1.3,3,3v0.3c0,1.7-1.3,3-3,3H3c-1.7,0-3-1.3-3-3v-0.3
						C0,11.8,1.3,10.5,3,10.5z"/>
				</g>
				<circle id="Avatar_5_" class="st7" cx="21" cy="21" r="12"/>
			</g>
		</g>
	</g>
	<g id="Web" transform="translate(270.000000, 127.000000)">
		<path id="Container_4_" class="st5" d="M8,0h319c4.4,0,8,3.6,8,8v330c0,4.4-3.6,8-8,8H8c-4.4,0-8-3.6-8-8V8C0,3.6,3.6,0,8,0z"/>
		<path id="Background_8_" class="st6" d="M257,43h54c4.4,0,8,3.6,8,8v65c0,4.4-3.6,8-8,8h-54c-4.4,0-8-3.6-8-8V51
			C249,46.6,252.6,43,257,43z"/>
		<g id="Profile-Info" transform="translate(259.000000, 58.000000)">
			<circle id="Avatar_6_" class="st1" cx="25" cy="16" r="16"/>
			<path id="Name_12_" class="st1" d="M3,36h44c1.7,0,3,1.3,3,3l0,0c0,1.7-1.3,3-3,3H3c-1.7,0-3-1.3-3-3l0,0C0,37.3,1.3,36,3,36z"/>
			<path id="Name_13_" class="st1" d="M11,46h28c1.7,0,3,1.3,3,3l0,0c0,1.7-1.3,3-3,3H11c-1.7,0-3-1.3-3-3l0,0C8,47.3,9.3,46,11,46z
				"/>
		</g>
		<path id="Header" class="st7" d="M8,0h319c4.4,0,8,3.6,8,8v19H0V8C0,3.6,3.6,0,8,0z"/>
		<g id="Buttons" transform="translate(9.000000, 10.000000)">
			<circle id="buttons" class="st5" cx="4" cy="4" r="4"/>
			<circle id="buttons_1_" class="st5" cx="16" cy="4" r="4"/>
			<circle id="buttons_2_" class="st5" cx="28" cy="4" r="4"/>
		</g>
		<g id="Components" transform="translate(249.000000, 132.000000)">
			<path id="Background_9_" class="st6" d="M8,0h54c4.4,0,8,3.6,8,8v178c0,4.4-3.6,8-8,8H8c-4.4,0-8-3.6-8-8V8C0,3.6,3.6,0,8,0z"/>
			<g id="Rows_2_" transform="translate(18.000000, 18.000000)">
				<path id="Data" class="st1" d="M4,0h26c2.2,0,4,1.8,4,4v18c0,2.2-1.8,4-4,4H4c-2.2,0-4-1.8-4-4V4C0,1.8,1.8,0,4,0z"/>
				<path id="Data_1_" class="st8" d="M4,34h26c2.2,0,4,1.8,4,4v17c0,2.2-1.8,4-4,4H4c-2.2,0-4-1.8-4-4V38C0,35.8,1.8,34,4,34z"/>
				<path id="Data_2_" class="st1" d="M4,67h26c2.2,0,4,1.8,4,4v17c0,2.2-1.8,4-4,4H4c-2.2,0-4-1.8-4-4V71C0,68.8,1.8,67,4,67z"/>
				<path id="Data_3_" class="st1" d="M4,133h26c2.2,0,4,1.8,4,4v17c0,2.2-1.8,4-4,4H4c-2.2,0-4-1.8-4-4v-17C0,134.8,1.8,133,4,133z
					"/>
				<path id="Data_4_" class="st7" d="M4,100h26c2.2,0,4,1.8,4,4v17c0,2.2-1.8,4-4,4H4c-2.2,0-4-1.8-4-4v-17C0,101.8,1.8,100,4,100z
					"/>
			</g>
		</g>
		<g id="Rows_3_" transform="translate(16.000000, 44.000000)">
			<g id="Row_8_">
				<path id="Container_5_" class="st6" d="M4,0h217c2.2,0,4,1.8,4,4v39c0,2.2-1.8,4-4,4H4c-2.2,0-4-1.8-4-4V4C0,1.8,1.8,0,4,0z"/>
				<g id="Text-Stuff_2_" transform="translate(9.000000, 14.100000)">
					<path id="Label_4_" class="st1" d="M3,0h161c1.7,0,3,1.3,3,3V4c0,1.7-1.3,3-3,3H3C1.3,7,0,5.7,0,4V3C0,1.3,1.3,0,3,0z"/>
					<path id="Label_5_" class="st1" d="M3,11.7h106.1c1.7,0,3,1.3,3,3v1c0,1.7-1.3,3-3,3H3c-1.7,0-3-1.3-3-3v-1
						C0,13.1,1.3,11.7,3,11.7z"/>
				</g>
				<g id="Check_2_" transform="translate(193.954198, 16.500000)">
					<circle id="Background_10_" class="st1" cx="7" cy="7" r="7"/>
					<circle id="Indicator_2_" class="st5" cx="7" cy="7" r="3"/>
				</g>
			</g>
			<g id="Row_9_" transform="translate(0.000000, 55.000000)">
				<path id="Container_6_" class="st6" d="M4,0h217c2.2,0,4,1.8,4,4v31c0,2.2-1.8,4-4,4H4c-2.2,0-4-1.8-4-4V4C0,1.8,1.8,0,4,0z"/>
				<g id="Text-Stuff_3_" transform="translate(9.000000, 11.700000)">
					<path id="Label_6_" class="st1" d="M2.9,0h161.1c1.6,0,2.9,1.3,2.9,2.9l0,0c0,1.6-1.3,2.9-2.9,2.9H2.9C1.3,5.8,0,4.5,0,2.9l0,0
						C0,1.3,1.3,0,2.9,0z"/>
					<path id="Label_7_" class="st1" d="M2.9,9.7h106.2c1.6,0,2.9,1.3,2.9,2.9l0,0c0,1.6-1.3,2.9-2.9,2.9H2.9
						c-1.6,0-2.9-1.3-2.9-2.9l0,0C0,11.1,1.3,9.7,2.9,9.7z"/>
				</g>
				<g id="Check_3_" transform="translate(193.954198, 12.500000)">
					<circle id="Background_11_" class="st1" cx="7" cy="7" r="7"/>
					<circle id="Indicator_3_" class="st5" cx="7" cy="7" r="3"/>
				</g>
			</g>
			<g id="Row_10_" transform="translate(0.000000, 102.000000)">
				<path id="Container_7_" class="st6" d="M4,0h217c2.2,0,4,1.8,4,4v31c0,2.2-1.8,4-4,4H4c-2.2,0-4-1.8-4-4V4C0,1.8,1.8,0,4,0z"/>
				<g id="Text-Stuff_4_" transform="translate(9.000000, 11.700000)">
					<path id="Label_8_" class="st1" d="M2.9,0h161.1c1.6,0,2.9,1.3,2.9,2.9l0,0c0,1.6-1.3,2.9-2.9,2.9H2.9C1.3,5.8,0,4.5,0,2.9l0,0
						C0,1.3,1.3,0,2.9,0z"/>
					<path id="Label_9_" class="st1" d="M2.9,9.7h106.2c1.6,0,2.9,1.3,2.9,2.9l0,0c0,1.6-1.3,2.9-2.9,2.9H2.9
						c-1.6,0-2.9-1.3-2.9-2.9l0,0C0,11.1,1.3,9.7,2.9,9.7z"/>
				</g>
				<g id="Check_4_" transform="translate(193.954198, 12.500000)">
					<circle id="Background_12_" class="st1" cx="7" cy="7" r="7"/>
					<circle id="Indicator_4_" class="st8" cx="7" cy="7" r="3"/>
				</g>
			</g>
			<g id="Row_11_" transform="translate(0.000000, 243.000000)">
				<path id="Container_8_" class="st6" d="M4,0h217c2.2,0,4,1.8,4,4v31c0,2.2-1.8,4-4,4H4c-2.2,0-4-1.8-4-4V4C0,1.8,1.8,0,4,0z"/>
				<g id="Text-Stuff_5_" transform="translate(9.000000, 11.700000)">
					<path id="Label_10_" class="st1" d="M2.9,0h161.1c1.6,0,2.9,1.3,2.9,2.9l0,0c0,1.6-1.3,2.9-2.9,2.9H2.9C1.3,5.8,0,4.5,0,2.9
						l0,0C0,1.3,1.3,0,2.9,0z"/>
					<path id="Label_11_" class="st1" d="M2.9,9.7h106.2c1.6,0,2.9,1.3,2.9,2.9l0,0c0,1.6-1.3,2.9-2.9,2.9H2.9
						c-1.6,0-2.9-1.3-2.9-2.9l0,0C0,11.1,1.3,9.7,2.9,9.7z"/>
				</g>
				<g id="Check_5_" transform="translate(193.954198, 12.500000)">
					<circle id="Background_13_" class="st1" cx="7" cy="7" r="7"/>
					<circle id="Indicator_5_" class="st5" cx="7" cy="7" r="3"/>
				</g>
			</g>
			<g id="Row_12_" transform="translate(0.000000, 196.000000)">
				<path id="Container_9_" class="st6" d="M4,0h217c2.2,0,4,1.8,4,4v31c0,2.2-1.8,4-4,4H4c-2.2,0-4-1.8-4-4V4C0,1.8,1.8,0,4,0z"/>
				<g id="Text-Stuff_6_" transform="translate(9.000000, 11.700000)">
					<path id="Label_12_" class="st1" d="M2.9,0h161.1c1.6,0,2.9,1.3,2.9,2.9l0,0c0,1.6-1.3,2.9-2.9,2.9H2.9C1.3,5.8,0,4.5,0,2.9
						l0,0C0,1.3,1.3,0,2.9,0z"/>
					<path id="Label_13_" class="st1" d="M2.9,9.7h106.2c1.6,0,2.9,1.3,2.9,2.9l0,0c0,1.6-1.3,2.9-2.9,2.9H2.9
						c-1.6,0-2.9-1.3-2.9-2.9l0,0C0,11.1,1.3,9.7,2.9,9.7z"/>
				</g>
				<g id="Check_6_" transform="translate(193.954198, 12.500000)">
					<circle id="Background_14_" class="st1" cx="7" cy="7" r="7"/>
					<circle id="Indicator_6_" class="st5" cx="7" cy="7" r="3"/>
				</g>
			</g>
			<g id="Row_13_" transform="translate(0.000000, 149.000000)">
				<path id="Container_10_" class="st6" d="M4,0h217c2.2,0,4,1.8,4,4v31c0,2.2-1.8,4-4,4H4c-2.2,0-4-1.8-4-4V4C0,1.8,1.8,0,4,0z"/>
				<g id="Text-Stuff_7_" transform="translate(9.000000, 11.700000)">
					<path id="Label_14_" class="st1" d="M2.9,0h161.1c1.6,0,2.9,1.3,2.9,2.9l0,0c0,1.6-1.3,2.9-2.9,2.9H2.9C1.3,5.8,0,4.5,0,2.9
						l0,0C0,1.3,1.3,0,2.9,0z"/>
					<path id="Label_15_" class="st1" d="M2.9,9.7h106.2c1.6,0,2.9,1.3,2.9,2.9l0,0c0,1.6-1.3,2.9-2.9,2.9H2.9
						c-1.6,0-2.9-1.3-2.9-2.9l0,0C0,11.1,1.3,9.7,2.9,9.7z"/>
				</g>
				<g id="Check_7_" transform="translate(193.954198, 12.500000)">
					<circle id="Background_15_" class="st1" cx="7" cy="7" r="7"/>
					<circle id="Indicator_7_" class="st5" cx="7" cy="7" r="3"/>
				</g>
			</g>
		</g>
	</g>
	<path id="Fill-1" class="st2" d="M688,297.4c-3.9-2.7-9.2-3.4-13.9-3.4c-18.4,0-35.8,6.8-50.7,17c-8.2,5.6-15.5,12.7-22,20.1
		c-3.7,4.3-7.1,8.9-9.4,14c-1.6,3.5-2.7,7.1-3.4,10.8c-0.9,4.5-1.6,9.2-1.9,13.8c-0.1,1.8-1.2,11.5,1.8,11.6c0,0.2,0,0.5,0,0.7
		c-6.6,10.3-10.6,22.3-14.4,33.7c-3.3,9.9-6.2,20-8.1,30.2c-2.5,13.5-4.1,27.3-4.9,41c-0.2,2.9-0.3,5.9-0.4,8.9
		c-0.1,2.5-0.2,5-0.3,7.6c-0.1,2.8-0.6,6.1-0.1,8.9c0.4,2.4,2.5,2.1,2.6-0.4c0.1-2.9,0.1-5.9,0.2-8.8c0.2-3.9,0.3-7.8,0.5-11.7
		c1.3-27.1,6.3-53.8,15.5-79.4c3.7-10.4,8-20.2,13.5-29.7c4.8-8.4,10.6-16.6,16.5-24.2c5.8-7.4,11.8-14.6,18.8-20.8
		c5.7-5.1,12-9.5,18.5-13.6c8.2-5.2,16.4-10.3,25.4-14.3c4.6-2.1,9.4-4,14-6c0.8-0.4,1.7-0.7,2.5-1.1
		C691,300.9,690.1,298.8,688,297.4"/>
	<path id="Fill-20" class="st0" d="M613.8,392c7.5,0,14.1,1,21,3.9c5.9,2.6,11.4,6,16.6,9.7c7.4,5.2,13.2,11.2,17.3,19.3
		c2.4,4.8,4.2,11.6,2.6,16.8c-1.9,6.2-7.2,11.3-14.2,10.2c-4.3-0.7-8.3-3.5-11.5-6.2c-3.9-3.2-7.1-7.1-9.7-11.4
		c-4.2-7-6.7-14.9-10.3-22.2c-1.7-3.5-3.4-7-5.4-10.3c-1-1.6-2.1-3.3-3.6-4.5c-0.8-0.6-4.3-1.8-3-3.2c-19.4,0.3-36.6,15.1-40.3,33.6
		c-0.3,1.7-0.6,3.5-0.9,5.2c-0.2,1.1-0.1,5.1-1.1,5.8c-2.2,1.5-1.2-3.1-1.2-3.8c0.2-1.7,0.5-3.5,0.8-5.2c1.5-9.4,5.7-18.2,12.7-24.9
		C591.7,397,602.5,392,613.8,392"/>
	<g id="Plant" transform="translate(65.000000, 333.000000)">
		<path id="Fill-19" class="st1" d="M9.9,35.7c18.7,31.3,40.4,61.6,53.5,95.9c-0.5-4-1.1-8.1-1.7-12.1C58.4,98.2,54.3,77,49.9,55.8
			c-2.2-10.8-4.5-21.5-6.9-32.2c-1.3-5.8-2.6-11.5-3.9-17.3c-0.3-1.4-0.6-3.8-1-6.3C50.8,41.6,63.1,83.3,72,125.9
			c1.2,5.6,2.2,11.2,3,16.8c0.3-1.3,0.6-2.5,0.9-3.8c3.6-15.2,9.1-30.3,15.5-44.5c3.1-6.8,6.6-13.5,10.8-19.6
			c2.6-3.9,8.8-8.5,11.1-12.4c-13,23.9-17.7,53.7-25.2,79.7c-1.8,6.3-3.7,12.7-5.5,19c11.3-22.7,28.9-41.4,53.3-49.5
			c-29.6,19.5-47.3,53.8-59.3,88.8c0,0.4-0.1,0.8-0.1,1.2c3.5-6.7,7.9-12.7,14-16.9c12.9-9.1,27.1-6.4,39.6,1.4
			c-9.8-6.2-27.5-0.6-35.7,5.8c-5.9,4.5-10.9,10.6-15.3,16.5c-1,1.4-2.5,3.1-4,4.8c-2.1,13.8-5.6,27.4-10.5,41
			c0.8-3.9,0.2-10.1,0.4-13c0-0.3,0-0.6,0.1-0.9c-0.7,3-1.5,5.9-2.2,8.8c1.4-5.5,2.1-11.3,2.7-17.1c0.2-2.5,0.3-5,0.5-7.5
			c0-4.7-0.2-9.5-0.6-14.3c-1.2-4.6-2.5-9-3.6-12.6c-3.9-13.1-9.6-25.7-16.6-37.4c-6.4-10.7-14.1-20.4-23-29.1
			c-4.8-4.7-9.8-9.2-14.7-13.8c-1.8-1.6-5-5.7-7.7-7.8c20.1,11.1,40.7,23,55.4,40.9c-1.7-6.6-3.6-13.1-5.6-19.5
			C39.8,98.5,27.2,65,9.9,35.7z"/>
		<path id="Base" class="st7" d="M30,213c0,35.9,2.8,65,41,65s41-29.1,41-65"/>
	</g>
	<g id="Graph" transform="translate(520.000000, 52.000000)">
		<path id="Value" class="st1" d="M3,32L3,32c1.7,0,3,1.3,3,3v19c0,1.7-1.3,3-3,3l0,0c-1.7,0-3-1.3-3-3V35C0,33.3,1.3,32,3,32z"/>
		<path id="Value_1_" class="st1" d="M17,16L17,16c1.7,0,3,1.3,3,3v35c0,1.7-1.3,3-3,3l0,0c-1.7,0-3-1.3-3-3V19
			C14,17.3,15.3,16,17,16z"/>
		<path id="Value_2_" class="st1" d="M31,8L31,8c1.7,0,3,1.3,3,3v43c0,1.7-1.3,3-3,3l0,0c-1.7,0-3-1.3-3-3V11C28,9.3,29.3,8,31,8z"
			/>
		<path id="Value_3_" class="st1" d="M45,16L45,16c1.7,0,3,1.3,3,3v35c0,1.7-1.3,3-3,3l0,0c-1.7,0-3-1.3-3-3V19
			C42,17.3,43.3,16,45,16z"/>
		<path id="Value_4_" class="st7" d="M59,0L59,0c1.7,0,3,1.3,3,3v51c0,1.7-1.3,3-3,3l0,0c-1.7,0-3-1.3-3-3V3C56,1.3,57.3,0,59,0z"/>
	</g>
	
		<g id="Pie-Chart" transform="translate(48.000000, 358.000000) scale(-1, 1) translate(-48.000000, -358.000000) translate(28.000000, 338.000000)">
		<path id="Value_5_" class="st5" d="M40,20.3C40,9.1,31,0,20,0v20.3L33.7,35C37.6,31.4,40,26.1,40,20.3z"/>
		<path id="Value_6_" class="st8" d="M20.5,20H0.3c0,5.2,2.1,10.1,5.5,13.7c3.7,3.9,9,6.3,14.7,6.3c5.3,0,10.1-2.1,13.8-5.4L20.5,20
			z"/>
		<path id="Value_7_" class="st7" d="M0,20C0,9,9,0,20,0v20H0z M30,0l-8,18l18-8C38.2,5.3,34.2,1.8,30,0z"/>
	</g>
	<g id="Chart" transform="translate(641.000000, 330.000000)">
		<path id="Value_8_" class="st5" d="M37.8,37.2c-1.9,2-4.6,3.3-7.7,3.3c-5.8,0-10.5-4.7-10.5-10.5s4.7-10.5,10.5-10.5V0
			C13.5,0,0,13.5,0,30s13.5,30,30.1,30c8.7,0,16.5-3.7,21.9-9.5L37.8,37.2z"/>
		<path id="Value_9_" class="st8" d="M30,0v19.5c5.8,0,10.5,4.7,10.5,10.5H60C60,13.5,46.5,0,30,0z"/>
		<path id="Value_10_" class="st7" d="M40.1,30c0,3.4-1.6,6.4-4.1,8.4L48.3,54C55.4,48.4,60,39.7,60,30H40.1z"/>
	</g>
	<g id="Chart_1_" transform="translate(459.000000, 63.000000)">
		<path id="Value_11_" class="st5" d="M29.1,28.5c-1.5,1.6-3.6,2.5-5.9,2.5c-4.5,0-8.1-3.6-8.1-8s3.6-8,8.1-8V0C10.4,0,0,10.4,0,23
			s10.4,23,23.2,23c6.7,0,12.7-2.8,16.8-7.3L29.1,28.5z"/>
		<path id="Value_12_" class="st8" d="M23,0v14.9c4.4,0,8,3.6,8,8h15C46,10.4,35.6,0,23,0z"/>
		<path id="Value_13_" class="st7" d="M31.1,23c0,2.6-1.2,4.8-3.1,6.3L37.2,41c5.4-4.2,8.8-10.7,8.8-18H31.1z"/>
	</g>
	<g id="Image" transform="translate(76.000000, 57.000000)">
		<path id="Fill-35" class="st7" d="M48,52C48,52,48,52,48,52C48,52,48,52,48,52"/>
		<path id="Fill-37" class="st7" d="M48,52C48,52,48,52,48,52C48,52,48,52,48,52"/>
		<path id="Fill-39" class="st7" d="M48.1,51.8c0,0,0,0.1,0,0.1C48,51.9,48,51.9,48.1,51.8C47.8,52.4,48,52.1,48.1,51.8"/>
		<path id="Fill-41" class="st7" d="M48,52C48,52,48,52,48,52C47.9,52.1,48,52,48,52"/>
		<polygon id="Fill-43" class="st7" points="48,52 48,52 48,52 		"/>
		<path id="Fill-45" class="st7" d="M48,52C48,52,48,52,48,52C48,52,48,52,48,52"/>
		<path id="Fill-47" class="st7" d="M48,52C48,52,48,51.9,48,52"/>
		<path id="Fill-49" class="st7" d="M48,52L48,52C48,52,48,52,48,52"/>
		<path id="Photo-Background" class="st1" d="M4,0h87c2.2,0,4,1.8,4,4v55c0,2.2-1.8,4-4,4H4c-2.2,0-4-1.8-4-4V4C0,1.8,1.8,0,4,0z"/>
		<g id="icons8-night_landscape" transform="translate(8.000000, 18.000000)">
			<polygon id="Mountains" class="st8" points="28,0 0,45 56,45 			"/>
			<polygon id="Mountains_1_" class="st7" points="55.5,12 31,45 80,45 			"/>
		</g>
		<circle id="Sun" class="st6" cx="74" cy="21" r="9"/>
	</g>
	
		<g id="Image_1_" transform="translate(601.000000, 506.000000) scale(-1, 1) translate(-601.000000, -506.000000) translate(530.000000, 459.000000)">
		<path id="Fill-35_1_" class="st7" d="M71,77C71,77,71,77,71,77C71,77,71,77,71,77"/>
		<path id="Fill-37_1_" class="st7" d="M71,77C71,77,71,77,71,77C71,77,71,77,71,77"/>
		<path id="Fill-39_1_" class="st7" d="M71.1,76.8c0,0,0,0.1,0,0.1C71,76.9,71,76.9,71.1,76.8C70.8,77.4,71,77.1,71.1,76.8"/>
		<path id="Fill-41_1_" class="st7" d="M71,77C71,77,71,77,71,77C70.9,77.1,71,77,71,77"/>
		<polygon id="Fill-43_1_" class="st7" points="71,77 71,77 71,77 		"/>
		<path id="Fill-45_1_" class="st7" d="M71,77C71,77,71,77,71,77C71,77,71,77,71,77"/>
		<path id="Fill-47_1_" class="st7" d="M71,77C71,77,71,76.9,71,77"/>
		<path id="Fill-49_1_" class="st7" d="M71,77L71,77C71,77,71,77,71,77"/>
		<path id="Photo-Background_1_" class="st1" d="M4,0h134c2.2,0,4,1.8,4,4v86c0,2.2-1.8,4-4,4H4c-2.2,0-4-1.8-4-4V4C0,1.8,1.8,0,4,0
			z"/>
		<g id="icons8-night_landscape_1_" transform="translate(11.000000, 27.000000)">
			<polygon id="Mountains_2_" class="st8" points="41.7,0 0.7,67 82.8,67 			"/>
			<polygon id="Mountains_3_" class="st7" points="84.1,17.9 47.8,67 120.4,67 			"/>
		</g>
		<circle id="Sun_1_" class="st6" cx="110.5" cy="31.5" r="13.5"/>
	</g>
</g>
<title>humaaans/standing-23</title>
<desc>Created with Sketch.</desc>
<g id="humaaans_x2F_standing-23">
	<g id="humaaan-8" transform="translate(34.000000, 18.000000)">
		<g id="Head_x2F_Front_x2F_Curly" transform="translate(85.439497, 0.000000)">
			<g id="Head" transform="translate(56.316359, 32.329762)">
				<path class="st9" d="M276.4,242.8h-25l4.2-30c-6.8,4.1-13.4,6-16.5,5.2c-7.8-2-8.5-30.6-2.5-41.9c6-11.3,37.1-16.2,38.7,6.1
					c0.5,7.7-2.7,14.7-7.5,20.3L276.4,242.8z"/>
			</g>
			<path id="hair" class="st10" d="M283.3,199.6c0.7,1,1.5,1.9,2.4,2.6c-0.6,0.4-1.3,0.8-1.7,1.4c-0.4,0.6-0.5,1.3-0.4,2
				c0.1,0.9,0.4,1.8,0.8,2.6c0.4,0.8,0.9,1.4,1.5,2c-0.6,0.2-1.1,0.5-1.4,1.1c-0.2,0.3-0.2,0.6-0.3,0.9c-0.1,0.4-0.2,0.7-0.3,1.1
				c-0.1,0.6-0.1,1.3,0.2,1.9c0.3,0.6,1.3,1.5,2.1,1.8c0.9,0.4,3.5,0.1,3.9-0.3c0.8-0.9,1.1-2.3,1.5-3.4c0.6-1.5,1.4-2.8,2.3-4.1
				c0.9-1.3,2.1-2.6,3.5-3.4c0.3-0.2,0.8-0.7,1.1-0.5c0.2,0.1,0.3,0.5,0.5,0.7c0.2,0.2,0.4,0.5,0.6,0.7c1,0.9,2.2,1.5,3.5,1.9
				c1.3,0.4,2.6,0.8,3.8,1.5c1.1,0.6,1.7,1.7,2.2,2.8c0.4,1.1,0.6,2.4,1,3.5c0.4,1.5,1,3,1.8,4.4c0.3,0.6,0.8,1.3,1.3,1.7
				c0.3,0.3,1.1,0.8,1.5,0.5c0.2-0.1,0.2-0.4,0.2-0.6c0.1-0.4,2-4.1,3.7-4.5c1.6-0.4,5.7-0.4,7.1,0.4c2.9,1.6,3.3,5.1,2.4,8
				c-0.4,1.3-1,2.7-2,3.7c-0.4,0.4-1,0.9-1.6,1.1c-0.6,0.2-1.4,0.4-2,0.3c0.1,0.4,0.2,0.7,0.1,1c0,0.4-0.1,0.8-0.1,1.2
				c0,0.8,0.2,1.5,0.5,2.2c0.1,0.4,0.4,0.7,0.4,1.1c0,0.3,0,0.6,0,0.9c0.1,0.6,0.2,1.1,0.5,1.6c1.1,2.1,4.4,2.7,6,0.8
				c1.2,2.3,3.2,4,5.7,4.7c2,0.5,4.8,0.6,6.2-1.3c0.5,0.5,1.1,0.9,1.8,1.2c2.5,1.3,5.7,1.4,8-0.2c1.2-0.8,2.2-2.1,2.6-3.5
				c0.5-1.5,0.4-3.2,0.1-4.7c0-0.2-0.1-0.5-0.1-0.7c0.1-0.1,0.3-0.2,0.4-0.3c0.3-0.1,0.6-0.3,0.8-0.5c0.5-0.4,1-0.9,1.3-1.5
				c0.7-1.4,0.8-3,0.5-4.6c-0.1-0.8-0.3-1.6-0.6-2.3c-0.1-0.4-0.2-0.8-0.4-1.1c-0.1-0.4-0.4-0.7-0.5-1.1c-0.1-0.3,0-0.1,0.1-0.3
				c0.1-0.1,0.1-0.1,0.2-0.2c0.1-0.1,0.2-0.2,0.3-0.4c0.2-0.2,0.4-0.5,0.5-0.8c0.3-0.5,0.5-1.1,0.6-1.8c0.2-1.3,0.1-2.7-0.1-4
				c-0.2-0.8-0.4-1.6-0.7-2.3c-0.1-0.2-0.3-0.4-0.4-0.7c-0.1-0.2,0-0.2,0.1-0.4c0.2-0.3,0.4-0.7,0.5-1c0.9-2.2,0.9-4.7,0.2-6.9
				c-0.7-2.1-2.1-4-4.2-5c-0.5-0.3-1.1-0.5-1.6-0.6c-0.3-0.1-0.6-0.1-0.9-0.2c-0.1,0-0.3,0-0.4,0c0,0-0.1-0.3-0.1-0.4
				c-0.2-1.2-0.8-2.4-1.6-3.4c-0.8-0.9-1.9-1.6-3.1-2.1c-0.2-0.1-0.3-0.1-0.4-0.3c-0.1-0.1-0.1-0.3-0.2-0.5c-0.2-0.3-0.3-0.7-0.5-1
				c-0.4-0.7-0.8-1.3-1.4-1.8c-1-1.1-2.3-2.2-3.7-2.6c-0.8-0.3-1.6-0.3-2.3-0.1c-0.1,0-1.7,0.6-1.7,0.7c-0.1-0.2-0.3-0.3-0.4-0.4
				c-0.2-0.2-0.3-0.5-0.5-0.7c-0.4-0.5-0.9-1-1.5-1.3c-1.2-0.8-2.5-1.3-3.9-1.5c-1.3-0.2-2.7-0.1-4,0.4c-0.2,0.1-0.7,0.4-1,0.4
				c-0.2,0-0.7-0.4-1-0.5c-0.6-0.3-1.3-0.5-2-0.6c-1.2-0.1-2.3,0.1-3.3,0.7c-0.3,0.2-0.2,0.1-0.4-0.1c-0.1-0.1-0.2-0.3-0.3-0.4
				c-0.2-0.2-0.4-0.4-0.6-0.6c-0.4-0.4-0.8-0.7-1.3-1c-2.1-1.5-4.5-1.6-7-1.7c-2.2,0-4.4,0.5-6.2,1.9c-0.1,0.1-0.5,0.5-0.7,0.6
				c-0.2,0-0.7-0.4-0.8-0.4c-0.5-0.3-1.1-0.5-1.6-0.7c-1.1-0.4-2.2-0.6-3.4-0.5c-2.1,0.2-4.1,1.2-5.6,2.6c-0.8,0.8-1.5,1.7-1.9,2.7
				c-0.1,0.3-0.2,0.6-0.3,0.9c0,0.1,0,0.3-0.1,0.4c-0.1,0.1-0.1,0.1-0.3,0.1c-0.5,0-0.9,0-1.4,0.1c-1.9,0.5-3.3,2-3.8,3.8
				C281.2,195.2,282,197.7,283.3,199.6z"/>
		</g>
		<g id="Bottom_x2F_Standing_x2F_Skinny-Jeans-Walk" transform="translate(0.000000, 194.763541)">
			<polygon id="Leg" class="st11" points="369.4,166.7 321.1,397.2 341.1,397.2 376.3,299.4 426.4,166.7 			"/>
			<path id="Leg_1_" class="st12" d="M371.1,166.7c12.3,43.6,36,116.5,40.8,124.4c3.1,5.3,35.5,27.8,97,67.4l10.3-17.6
				c-51.8-41.2-78.2-62.8-79-64.7c-1.3-2.8-0.9-64.1-1.4-109.7H371.1z"/>
			
				<g id="Accessories_x2F_Shoe_x2F_Flat-Pointy" transform="translate(58.923598, 197.107258) rotate(50.000000) translate(-58.923598, -197.107258) translate(27.115284, 176.249347)">
				<path id="Shoe" class="st10" d="M460.5-235.3l-2.1,0.4l4.4,13l6.9,39l-4.1,0.7c-7.4-15.7-15.5-28-24.5-37l-3.8-21.6l21.4-4.8
					L460.5-235.3z"/>
			</g>
			<g id="Accessories_x2F_Shoe_x2F_Flat-Pointy_1_" transform="translate(216.922274, 207.536214)">
				<path id="Shoe_1_" class="st10" d="M115.6,208.4v-2.1l-13.6,2.1H62.4v-4.2c16.7-4.5,30.3-10.4,40.7-17.7H125l1,21.9H115.6z"/>
			</g>
		</g>
		<g id="Body_x2F_Hoodie" transform="translate(22.922792, 85.404334)">
			<path id="Skin" class="st9" d="M322.4,281l-32.9,13.7c-9.3,10.9-14.5,15.5-15.6,13.7c-1.7-2.7,1.9-5.1,1.1-7.2s-7.1-1.8-13-1.4
				c-5.9,0.5-4.2-2.2-2.8-3.5c6.1-3.6,13.6-6.7,22.6-9.1l33.3-24.4L322.4,281z M456.3,330.3c1.5,3,12.6,12.2,20.2,17.5
				c3.1,2.1,1.8,4.8,0.6,5.5c-9.5,5.8-15.7-1.1-23.9-4.9c-9-4.2-8.2,7.6-15.3,4.4c2.2-4.9,7.3-14,4.9-20
				c-1.1-2.7-8.3-25.7-21.8-69.1l21.8-0.1C449.8,304,454.2,326.2,456.3,330.3z"/>
			<path id="Coat-Back" class="st13" d="M293.5,296.8l-9.9-12.2c41-29.4,54.8-84.9,88.2-113.8l9,1.5
				C382.3,220.2,364.7,288,293.5,296.8z"/>
			<path id="Shirt" class="st1" d="M390.8,166.7l-23,3.6c0,43.6-23.7,76.7-29.8,107.4c-0.5,2.7-1.2,7.9,2.4,7.9c17,0,43.6,0,79.8,0
				C416.4,235,409.9,197.3,390.8,166.7z"/>
			<path id="Coat-Front" class="st14" d="M456.7,329.4h-17.1c-3.4-5.9-7-13.2-10.7-21.9h-62.8c-9.3-23.4-3.6-70.2,17.1-140.2
				l7.2-0.4c0.6-0.1,1.4-0.1,2.1-0.1c14.3,0,22.3-5.7,31.3-2.9c9,2.7,12,11.1,3.6,26.3c-2,3.5-4.6,5.8-7.9,6.7
				C445.9,233.1,458.3,277.3,456.7,329.4z"/>
			<path id="Shade" class="st15" d="M428.9,307.5h-23.3c4.4-7.5,7.7-19.5,9.6-36C420,285.4,424.6,297.4,428.9,307.5z"/>
		</g>
	</g>
</g>
</svg>
