<svg id="Layer_1" data-name="Layer 1" xmlns="http://www.w3.org/2000/svg" xmlns:xlink="http://www.w3.org/1999/xlink" viewBox="0 0 444 484.60599"><defs><style>.cls-1{fill:none;}.cls-14,.cls-2{fill:#edf3fd;}.cls-3{fill:#231f20;}.cls-12,.cls-14,.cls-15,.cls-21,.cls-3,.cls-4,.cls-5,.cls-6,.cls-7,.cls-8,.cls-9{fill-rule:evenodd;}.cls-4{fill:#b5d3ff;}.cls-13,.cls-5{fill:#fb8b82;}.cls-6{fill:#0b2564;}.cls-10,.cls-7{fill:#191847;}.cls-26,.cls-8{fill:#fff;}.cls-9{fill:#0052e2;}.cls-11,.cls-15{fill:#d1dbed;}.cls-12{fill:#deedfe;}.cls-16{fill:#008cdb;}.cls-17{fill:#47c5fb;}.cls-18{fill:#00569e;}.cls-19{fill:#00b5f8;}.cls-20{fill-opacity:0.8;fill:url(#linear-gradient);}.cls-21{fill:#e535ab;}.cls-22{fill:#e24329;}.cls-23{fill:#fc6d26;}.cls-24{fill:#fca326;}.cls-25{fill:url(#linear-gradient-2);}.cls-27{fill:#ffd900;}.cls-28{fill:#f43249;}.cls-29{fill:#00ee76;}.cls-30{fill:#00d3ff;}.cls-31{fill:#77bc1f;}.cls-32{fill:#a4c639;}.cls-33{fill:#2396ed;}.cls-34{fill:#0080ff;}.cls-35{fill:#de4c36;}.cls-36{fill:#f60;}.cls-37{clip-path:url(#clip-path);}.cls-38{fill:#5c8dbc;}.cls-39{fill:#194675;}.cls-40{fill:#1a598e;}.cls-41{fill:#9b4993;}.cls-42{fill:#692876;}.cls-43{fill:#823084;}.cls-44{fill:#2ba977;}.cls-45{clip-path:url(#clip-path-3);}.cls-46{fill:url(#linear-gradient-3);}.cls-47{fill:url(#linear-gradient-4);}</style><linearGradient id="linear-gradient" x1="-408.17816" y1="641.34398" x2="-408.05677" y2="641.30023" gradientTransform="matrix(35.88954, -26.45987, -26.46052, -35.89042, 31661.92181, 12382.75241)" gradientUnits="userSpaceOnUse"><stop offset="0"/><stop offset="1" stop-opacity="0"/></linearGradient><linearGradient id="linear-gradient-2" x1="-414.61767" y1="641.65595" x2="-414.61767" y2="641.5776" gradientTransform="matrix(245.91259, -71.15475, -71.15475, -245.91259, 147801.73406, 128475.6245)" gradientUnits="userSpaceOnUse"><stop offset="0" stop-color="#17c9fb"/><stop offset="1" stop-color="#1a74e8"/></linearGradient><clipPath id="clip-path"><rect class="cls-1" x="138.86654" y="257.5294" width="16.12017" height="14.34285" transform="matrix(0.21075, -0.97754, 0.97754, 0.21075, -142.79365, 352.54227)"/></clipPath><clipPath id="clip-path-3"><rect class="cls-1" x="137.03829" y="104.25" width="14.68079" height="16.5" transform="translate(-2.49816 3.28165) rotate(-1.29108)"/></clipPath><linearGradient id="linear-gradient-3" x1="173.25384" y1="60.03129" x2="189.72165" y2="43.69141" gradientTransform="translate(4.51401 -9.96761) rotate(3.11846)" gradientUnits="userSpaceOnUse"><stop offset="0" stop-color="#387eb8"/><stop offset="1" stop-color="#366994"/></linearGradient><linearGradient id="linear-gradient-4" x1="180.44404" y1="63.2421" x2="198.11091" y2="46.50382" gradientTransform="translate(4.51401 -9.96761) rotate(3.11846)" gradientUnits="userSpaceOnUse"><stop offset="0" stop-color="#ffe052"/><stop offset="1" stop-color="#ffc331"/></linearGradient></defs><title>illu-man-desk-it</title><rect class="cls-2" x="36.74997" y="412.49997" width="320.25003" height="0.75"/><path class="cls-2" d="M320.25,194.25H291V207h29.25Zm-33.75,0H257.25V207H286.5Zm-33.75,0h-13.5V207h13.5Zm117.75,49.5H341.25v12.74994H370.5Zm-33.75,0H307.5v12.74994h29.25Zm-33.75,0H273.75v12.74994H303ZM370.5,228H357.75v12.75H370.5Zm0-82.50006H341.25v12.75H370.5Zm-33.75,0H307.5v12.75h29.25Zm33.75-16.5H357.75v12.75H370.5Zm0,33H357.75V174.75H370.5Zm-16.5,0H324.75V174.75H354Zm-33.75,0H291V174.75h29.25Zm-33.75,0H257.25V174.75H286.5Z"/><path class="cls-3" d="M281.25,137.527c0-20.289-10.914-36.738-24.375-36.738-13.465,0-24.375,16.449-24.375,36.738M256.27,0h1.207V100.789H256.27Z"/><path class="cls-4" d="M281.25,137.527c0,1.504-10.914,2.723-24.375,2.723-13.465,0-24.375-1.219-24.375-2.723,0-1.503,10.91-2.722,24.375-2.722,13.461,0,24.375,1.219,24.375,2.722"/><path class="cls-5" d="M215.672,354.703a5.65838,5.65838,0,0,1,5.598,6.918L193.84,481.34a2.24955,2.24955,0,0,1-2.613,1.707l-1.313-.25a2.24823,2.24823,0,0,1-1.801-2.57l19.196-118.305A8.59357,8.59357,0,0,1,215.672,354.703Z"/><path class="cls-6" d="M284.25,382.5c24.91,0,43.188-21.008,41.516-46.004-.055-.836-22.516-2.945-65.606-1.25q-7.18947.288-22.476,3.5,21.65547,43.752,46.566,43.754Z"/><path class="cls-6" d="M212.512,342.797l47.648-7.551,25.387,30.313a9.75086,9.75086,0,0,1-8.988,15.894l-64.047-10.094a14.458,14.458,0,0,1,0-28.562Z"/><path class="cls-6" d="M215.281,343.609a11.80971,11.80971,0,0,1,10.653,12.852,12.10887,12.10887,0,0,1-.309,1.793L200.289,458.582l-9.41-3.91a2.2469,2.2469,0,0,1-1.371-2.324l10.555-96.324a13.99334,13.99334,0,0,1,15.218-12.411Z"/><path class="cls-7" d="M187.578,469.301a7.01422,7.01422,0,0,0,9.74141,1.8718q.2526-.17115.4896-.3638a8.94708,8.94708,0,0,1,1.179,1.308l2.368,3.203a5.16525,5.16525,0,0,1-4.153,8.235H169.852a4.00018,4.00018,0,0,1-4-4,5.31452,5.31452,0,0,1,3.843-5.106Z"/><path class="cls-5" d="M212.004,266.613l20.219-12.734-.688,20.078-20.414-5.816Z"/><path class="cls-8" d="M228.75,248.777A73.44533,73.44533,0,0,1,332.664,351.106a73.15908,73.15908,0,0,0-56.816-28.512,73.6027,73.6027,0,0,0-47.098-49.141Z"/><path class="cls-5" d="M231.57,357.445a5.64779,5.64779,0,0,1,8.59,2.313l47.891,112.906a2.25058,2.25058,0,0,1-1.11,2.91l-1.21.574a2.25171,2.25171,0,0,1-2.977-1.023L229.039,368.234a8.64206,8.64206,0,0,1,2.527-10.789Z"/><path class="cls-9" d="M297.148,382.492c24.918,0,46.79-20.277,45.118-45.246-.055-.836-22.52-2.945-65.625-1.25q-7.1895.28194-22.481,3.492Q272.23058,382.49,297.148,382.492Z"/><path class="cls-9" d="M228.961,343.543l47.68-7.547,20.476,31.32a9.752,9.752,0,0,1-9.812,14.946l-58.371-10.024a14.63409,14.63409,0,0,1-12.16-14.425,14.442,14.442,0,0,1,12.187-14.27Z"/><path class="cls-9" d="M224.758,348.715a11.88384,11.88384,0,0,1,17.074,5.711l42.672,104.34-11.848-1.129a2.24418,2.24418,0,0,1-1.738-1.117l-51.129-88.801A13.9927,13.9927,0,0,1,224.758,348.715Z"/><path class="cls-7" d="M279.035,469.902a7.0196,7.0196,0,0,0,9.74979,1.86856q.25026-.16974.4852-.36057a8.969,8.969,0,0,1,1.179,1.305l2.371,3.203a5.15855,5.15855,0,0,1-4.148,8.227H261.301a3.99612,3.99612,0,0,1-3.996-3.99625V480.148a5.3086,5.3086,0,0,1,3.84-5.101Z"/><rect class="cls-10" x="302.80896" y="385.96497" width="4.129" height="97.14102"/><rect class="cls-10" x="299.85901" y="480.49597" width="21.23801" height="3.52301"/><path class="cls-7" d="M284.25,381.856H325.5a1.498,1.498,0,0,1,1.5,1.496v3.461a1.498,1.498,0,0,1-1.496,1.5H284.25a1.49546,1.49546,0,0,1-1.5-1.49088V383.356a1.49546,1.49546,0,0,1,1.49088-1.5Z"/><path class="cls-7" d="M301.359,397.121h7.028a1.49546,1.49546,0,0,1,1.5,1.49088V426.152a1.49544,1.49544,0,0,1-1.49087,1.5H301.359a1.49546,1.49546,0,0,1-1.5-1.49088V398.621a1.49546,1.49546,0,0,1,1.49087-1.5Z"/><rect class="cls-10" x="168.21098" y="340.27701" width="3.375" height="143.742"/><path class="cls-5" d="M197.051,273.527a17.00784,17.00784,0,1,1,5.73,2.516A5.27482,5.27482,0,0,0,197.051,273.527Z"/><path class="cls-7" d="M212.656,239.363l-2.683.95,4.894,1.785.016.019a17.72345,17.72345,0,0,1,10.125,15.828,23.94147,23.94147,0,0,1-33.85408-.53687q-.61881-.63876-1.18892-1.32214l.012-.11707a5.28784,5.28784,0,1,1-1.11025-10.51725l.06725-.00667a3.826,3.826,0,0,0,1.058,1.848,13.49691,13.49691,0,0,1,22.664-7.93Z"/><path class="cls-5" d="M207.481,261.195l-.747.258a1.96362,1.96362,0,0,0-.511,3.442l2.836,2.062a2.62961,2.62961,0,0,0,3.547-.414,2.82229,2.82229,0,0,0-.02-3.684l-.352-.398a4.3971,4.3971,0,0,0-4.753-1.266Z"/><path class="cls-7" d="M444,483.106v1.5l-444-.75Z"/><rect class="cls-11" x="146.99998" y="336.10596" width="42.00002" height="3.75"/><rect class="cls-2" x="107.24998" y="330.10596" width="121.49999" height="5.25"/><rect class="cls-10" x="137.99998" y="326.35596" width="39.00002" height="3"/><path class="cls-7" d="M118.625,294.461l1.016-.586,19.66,34.09-1.016.59Z"/><path class="cls-12" d="M180.063,325.125a91.87415,91.87415,0,0,0,103.394-60.898L243,258.668a92.01972,92.01972,0,0,1-66.195,58.398l3.254,8.059Z"/><path class="cls-13" d="M178.375,324.879l-13.699.48a.75084.75084,0,0,1-.778-.72205l-.285-8.227a.74481.74481,0,0,1,.71581-.77276l.0072-.00025,13.699-.481a.754.754,0,0,1,.774.723l.289,8.227a.748.748,0,0,1-.72216.773l-.00085,0Zm-6.566-3.023-8.008-1.094.097,2.742Z"/><path class="cls-8" d="M179.07,322.301a91.88346,91.88346,0,0,0,103.399-60.899l-40.457-5.558a91.43131,91.43131,0,0,1-51.957,53.933,92.41068,92.41068,0,0,1-14.239,4.465Z"/><path class="cls-7" d="M41.09,461.215l4.808,22.453H66.109l4.813-22.453Z"/><path class="cls-14" d="M58.977,447.367c5.972-5.062,12.484-9.203,18.757-13.773,3.09-2.254,2.586-5.289-2.605-5.356-2.754-.035-7.625,3.27-10.102,4.332-5.171,2.219-10.968,1.067-4.246-3.476,3.93-2.656,14.957-6.223,15.594-11.531.766-6.375-8.691-.715-11.82.574-7.086,2.922-10.121-.86-3.774-5.285,1.399-.977,16.828-11.016,11.082-13.571-4.718-2.097-9.179,7.41-13.394,6.387-5.461-1.32,1.672-9.043,3.347-10.957,1.735-1.977,6.055-5.043,6.438-7.676.656-4.48-3.566-3.137-5.793-1.246-1.723,1.465-3.379,5.707-5.316,4.098-2.414-2.008.968-9.946.113-12.61a4.91739,4.91739,0,0,0-6.45071-2.598q-.05039.02146-.10029.044c-3.973,2.039-3.09,11.785-3.144,15.554-1.641-1.765-4.36-5.793-6.77-6.605-3.551-1.195-5.574,1.602-4.527,4.742,1.578,4.723,6.91,7.969,8.949,12.414,1.183,2.57.836,3.547.172,6.629l-13.332-9.473c-1.949-1.386-8.805-6.914-9.246-.546-.305,4.359,11.601,11.12805,14.73,13.5,2.137,1.617,9.527,5.082,8.934,8.136-1.485,7.653-15.739-7.015-17.242-7.418-1.129-.297-3.997.586-4.504,1.789-1.254,2.965,5.429,6.825,7.453,8.43,1.285,1.023,12.793,7.809,9.543,10.711-4.348,3.879-18.242-11.965-22.653-.004-3.015,8.168,16.18,6.047,20.504,6.766,6.211,1.035,14.512,8.476,14.512,14.586"/><path class="cls-15" d="M62.887,448.793c8.48-1.812,16.949-2.496,25.429-3.699,4.18-.594,5.438-3.684.606-6.297-2.559-1.387-9.012-.68-11.938-.899-6.113-.46-10.89-4.39-2.003-5.343,5.195-.563,17.566,1.511,21.187-3.149,4.344-5.597-7.746-4.937-11.418-5.265-8.301-.743-8.996-5.774-.527-6.809,1.871-.226,22.054-2.055,18.117-7.269-3.231-4.286-12.824,2.433-16.195-.594-4.371-3.922,6.711-7.653,9.375-8.621,2.754-1,8.546-1.754,10.406-4.032,3.168-3.878-1.563-4.695-4.723-4.015-2.449.527-6.418,3.691-7.316,1.23005-1.125-3.07,6.566-8.84305,7.281-11.757a4.87295,4.87295,0,0,0-4.691-5.61c-4.883-.043-9.606,9.52-11.805,13.027-.531-2.46-.785-7.566-2.586-9.511-2.648-2.864-6.137-1.239-6.941,2.218-1.211,5.204,1.945,10.86,1.328,16.028-.356,2.988-1.242,3.734-3.614,6.293l-7.113-15.422c-1.039-2.254-4.32-10.801-8.359-5.051-2.766,3.934,4.547,16.125,6.129,19.883,1.082,2.562,6.043,9.437,3.75,12.008-5.746,6.445-10.77-14.301-11.95-15.414-.886-.832-4.078-1.414-5.238-.535-2.863,2.16,1.207,9.058,2.188,11.554.625,1.59,7.558,13.602,2.855,14.723-6.285,1.504-10.297-20.164-21.242-11.125-7.477,6.176,11.73,13.609,15.379,16.41,5.234,4.02,8.781,15.066,5.305,20.793"/><rect class="cls-10" x="36.74997" y="452.99997" width="38.51201" height="9.85501"/><g id="Layer_2" data-name="Layer 2"><path class="cls-16" d="M157.70161,183.1498,131.67792,161.822l-1.41228,14.59354,15.46742,8.34027-19.04515,9.853Zm-38.59436-8.67338-3.7013,21.477,8.49934-4.25915,4.72385-34.25766Z"/></g><g id="Layer_4" data-name="Layer 4"><polygon class="cls-17" points="22.164 127.528 16.538 164.729 28.053 166.47 35.42 117.755 22.164 127.528"/><polygon class="cls-17" points="36.574 147.385 33.562 167.303 45.192 169.151 46.931 157.658 49.979 137.502 36.574 147.385"/><polygon class="cls-18" points="45.192 169.151 53.942 170.474 67.123 160.756 46.931 157.658 45.192 169.151"/><polygon class="cls-19" points="33.542 167.433 35.283 155.918 46.931 157.658 45.192 169.151 33.542 167.433"/><polygon class="cls-20" points="45.192 169.151 49.353 163.261 46.783 158.63 45.192 169.151"/></g><g id="Layer_5" data-name="Layer 5"><path class="cls-21" d="M129.65164,61.26908l6.42178,1.78967a2.50362,2.50362,0,1,1,3.3626,3.42392l1.66183,6.45887a2.50328,2.50328,0,1,1-1.36248,4.58322L135.00375,82.163a2.50224,2.50224,0,1,1-4.60607,1.26847l-6.42-1.78912a2.50365,2.50365,0,1,1-3.36368-3.4305l-1.66181-6.45877a2.50409,2.50409,0,1,1,1.28916-4.62372l4.76194-4.66809a2.50224,2.50224,0,1,1,4.64837-1.19217Zm-.32658,1.14453,6.437,1.79381a2.49965,2.49965,0,0,0,2.51982,2.56615l1.6639,6.4669c-.0295.01575-.05863.03222-.08744.04911l-10.5818-10.79446q.025-.04029.0485-.08141Zm-3.39774.94477-4.05788,14.561q-.051-.0015-.102-.001l-1.66407-6.46757a2.49976,2.49976,0,0,0,.96652-3.467l4.77057-4.67646q.0429.02629.08688.05092Zm2.49895-.03067L139.00549,74.1196a2.51205,2.51205,0,0,0-.37765,1.35855l-14.62611,3.76322a2.49136,2.49136,0,0,0-.98516-1.00458l4.05767-14.5606a2.52824,2.52824,0,0,0,1.352-.34848Zm5.84518,18.09743,4.74094-4.64747q-.04529-.07229-.08562-.1475L124.29518,80.3948q.00051.0502-.001.10024l6.42654,1.791a2.50539,2.50539,0,0,1,3.55076-.86087Z"/></g><g id="Layer_6" data-name="Layer 6"><path class="cls-16" d="M114.18651,240.37854a.56189.56189,0,0,0-.67918-.047.50538.50538,0,0,0-.08334.06795l-.01067-.00186-2.32573,2.29987a6.44588,6.44588,0,0,0,3.99274,1.16375l-.71436-3.1875-.01508-.00813A.52229.52229,0,0,0,114.18651,240.37854Zm-2.21243-1.28217a.53867.53867,0,0,0,.12175-.3197.55052.55052,0,0,0-.4926-.58082l-.00881-.01253-3.26564-.38257a6.41908,6.41908,0,0,0,1.59373,3.85227l2.04971-2.546Zm1.8148-4.825a.5783.5783,0,0,0,.28532.19274.553.553,0,0,0,.67775-.35472l.01067.00187,1.09277-3.0813a6.4239,6.4239,0,0,0-4.09385.67727l2.02734,2.56414Zm.68949,4.24446.99069-.16266.4884-.87714-.3778-.92372-.96332-.278-.821.57717-.05825.99615Zm-2.75541-2.2677a.52455.52455,0,0,0,.32491-.09731.555.555,0,0,0,.14724-.74967l.00813-.01508-1.73091-2.78189a6.73453,6.73453,0,0,0-.47917.47732,6.38025,6.38025,0,0,0-1.5627,3.15881Zm5.62893-4.78121-.73733,3.18727.00441.00627a.59964.59964,0,0,0,.02327.3395.54333.54333,0,0,0,.69414.308l.00881.01253,3.10645-1.06942a6.4695,6.4695,0,0,0-1.31563-1.63168,6.11611,6.11611,0,0,0-1.78412-1.15249Z"/><path class="cls-16" d="M128.55324,230.96238l-8.54288-7.67619a1.96763,1.96763,0,0,0-1.65473-.47555l-11.4,1.9271a2.02877,2.02877,0,0,0-1.41642.99574l-5.66786,10.0809a2.00447,2.00447,0,0,0-.11266,1.718l4.33123,10.637a1.96459,1.96459,0,0,0,1.09173,1.08672l.18653.06553,11.06758,3.19494a2.00311,2.00311,0,0,0,1.70591-.29088l9.46995-6.65735a2.02616,2.02616,0,0,0,.85116-1.50674l.74009-11.4957a2.00147,2.00147,0,0,0-.64967-1.60351Zm-3.32578,2.16946a.662.662,0,0,1-.39372.83866l-.00627.00441c-.00626.0044-.00626.0044-.01694.00254a.98874.98874,0,0,1-.15364.06119,5.30989,5.30989,0,0,1-.58088.14615,6.65527,6.65527,0,0,0-1.075.36241.50664.50664,0,0,0-.2134.30922c-.042.02017-.168.08067-.24579.1166a8.11378,8.11378,0,0,1-.34175,5.77478,1.66754,1.66754,0,0,0,.23313.14514.483.483,0,0,0,.17388.32727,5.7415,5.7415,0,0,0,1.01962.49126,5.12369,5.12369,0,0,1,.56214.21351c.04524.02439.11623.05877.16588.08942a.62988.62988,0,1,1-.61915,1.09079c-.04524-.02439-.11-.06317-.1552-.08756a4.16085,4.16085,0,0,1-.48086-.3643,6.3164,6.3164,0,0,0-.95459-.6119.48308.48308,0,0,0-.37337.02837c-.03643-.01185-.17214-.085-.24313-.11939a8.26324,8.26324,0,0,1-.69238.88006,8.03689,8.03689,0,0,1-4.02947,2.42066l.03258.28613a.49235.49235,0,0,0-.14445.26075,4.09394,4.09394,0,0,0,.24842,1.19261,4.52236,4.52236,0,0,1,.18.57579c.00763.05082.01781.11858.02985.17567a.62659.62659,0,1,1-1.22971.209c-.00764-.05082-.02663-.13112-.03426-.18194a4.03938,4.03938,0,0,1-.01062-.60124,6.08311,6.08311,0,0,0-.12221-1.15959.6338.6338,0,0,0-.24654-.25746l-.06461-.29171a8.13126,8.13126,0,0,1-5.53192-1.60815l-.19919.19622a.7698.7698,0,0,0-.36947.10053,5.27972,5.27972,0,0,0-.70491.88887,4.03135,4.03135,0,0,1-.33415.49712c-.02879.039-.07452.08049-.10958.12386-.00627.00441-.00627.00441-.00813.01508l-.00627.00441a.627.627,0,1,1-.92616-.83789l.01253-.00882a1.7245,1.7245,0,0,1,.11585-.12826,5.36679,5.36679,0,0,1,.46242-.38127,5.9698,5.9698,0,0,0,.80929-.79368.89463.89463,0,0,0,.06515-.37356l.169-.21248a8.07138,8.07138,0,0,1-2.198-5.33787l-.26428-.0296a.747.747,0,0,0-.30736-.22407,5.69992,5.69992,0,0,0-1.13285.00039,5.40332,5.40332,0,0,1-.60242.04891,1.60222,1.60222,0,0,1-.16823-.01284l-.01067-.00186a.66137.66137,0,0,1-.65406-.664.59912.59912,0,0,1,.27961-.46814.805.805,0,0,1,.44976-.11952c.05523-.00137.12554.00539.1745.00843a5.49756,5.49756,0,0,1,.58957.11932,5.25271,5.25271,0,0,0,1.12559.13582.49275.49275,0,0,0,.32287-.18015c.04455-.00323.19143.00589.27427.00384a8.05217,8.05217,0,0,1,1.99483-4.24922,8.183,8.183,0,0,1,.82-.79182l-.13727-.2219a.67407.67407,0,0,0-.0221-.37779,5.498,5.498,0,0,0-.70848-.88791,4.97057,4.97057,0,0,1-.40819-.43412l-.10134-.14415a.62475.62475,0,1,1,1.01531-.71376l.10134.14415a4.55379,4.55379,0,0,1,.27031.531,5.498,5.498,0,0,0,.59567.96722.47934.47934,0,0,0,.34986.138c.02644.03761.12082.15855.17115.21682a8.1745,8.1745,0,0,1,5.67746-.929l.09735-.27446a.65935.65935,0,0,0,.28507-.24723,6.583,6.583,0,0,0,.25322-1.10512,4.38775,4.38775,0,0,1,.0873-.59516c.01372-.0471.03742-.11995.05113-.167a.66864.66864,0,0,1,.79546-.49365.65451.65451,0,0,1,.40336.8402c-.02.05151-.033.12622-.05113.167-.06924.20788-.16747.36122-.24994.5503a5.70018,5.70018,0,0,0-.38384,1.06584.48524.48524,0,0,0,.10866.35438c-.01371.0471-.046.20093-.0672.29073a8.16932,8.16932,0,0,1,2.5142,1.53826,7.97968,7.97968,0,0,1,1.78079,2.30669l.25088-.08272a.68785.68785,0,0,0,.37357.06515,5.971,5.971,0,0,0,1.02077-.49285,5.36628,5.36628,0,0,1,.51529-.30606,1.6128,1.6128,0,0,1,.17685-.06814.67338.67338,0,0,1,.87931.31832Z"/><path class="cls-16" d="M117.07553,239.7991a.56521.56521,0,0,0-.33714-.0533.51491.51491,0,0,0-.24393.10593.56305.56305,0,0,0-.21489.50692l.35048,3.256a6.442,6.442,0,0,0,2.98872-1.87631,6.0015,6.0015,0,0,0,.41885-.50984l-2.94956-1.43823-.01253.00881Zm1.00069-2.67944a.36289.36289,0,0,0-.111.06863.55039.55039,0,0,0,.04575.90431l-.00187.01068,2.78767,1.76742a6.41244,6.41244,0,0,0,.24957-4.17417l-2.97017,1.42313Z"/></g><g id="Layer_14" data-name="Layer 14"><path class="cls-22" d="M73.02381,93.31408h0l-2.35176-14.5215-8.08641,4.15573L73.02381,93.31408Z"/><path class="cls-23" d="M73.0238,93.31406,62.58562,82.94829l-5.66645,2.91207,16.10463,7.4537Z"/><path class="cls-24" d="M56.9192,85.86039h0l.71471,4.41293a.94111.94111,0,0,0,.785.77961l14.60487,2.26115L56.9192,85.86039Z"/><path class="cls-22" d="M56.9192,85.8604l5.66646-2.91208-6.28687-6.24318a.47055.47055,0,0,0-.79609.40912l1.4165,8.74614Z"/><path class="cls-23" d="M73.0238,93.31406,70.672,78.79256l5.66645-2.91208L73.0238,93.31406Z"/><path class="cls-24" d="M76.33851,75.88051h0l3.172,3.15008a.94109.94109,0,0,1,.17688,1.09215l-6.6636,13.19135,3.31469-17.43358Z"/><path class="cls-22" d="M76.33851,75.88052,70.67206,78.7926l-1.4164-8.74619a.47055.47055,0,0,1,.79609-.40912l6.28676,6.24323Z"/></g><g id="Layer_13" data-name="Layer 13"><path class="cls-25" d="M179.747,187.93317l10.82784-3.133a4.39243,4.39243,0,0,1,5.44023,2.9985l3.133,10.82783a4.39245,4.39245,0,0,1-2.99849,5.44024l-10.82783,3.133a4.39245,4.39245,0,0,1-5.44024-2.9985l-3.133-10.82783A4.39245,4.39245,0,0,1,179.747,187.93317Z"/><path class="cls-26" d="M185.74835,201.35155l.002,0-.32859,1.33154a.90648.90648,0,1,1-1.76015-.43435l.24207-.98091.02322-.09413a.748.748,0,0,1,.61589-.48932s.99643-.17469,1.21163.30721a.61167.61167,0,0,1-.006.35991Zm8.49983-5.61755-2.05416.59437a.31568.31568,0,0,1-.25053-.02326l-.00229-.00221-3.30094-3.17236-.00229.00273-.18661-.15093c-.31174-.268-.41034.67665-.41034.67665a3.07305,3.07305,0,0,0,.89737,2.27248l4.5848,4.40624a.90647.90647,0,0,0,1.25623-1.30715l-1.14648-1.1018c-.024-.02776-.075-.10735.08153-.153l1.03761-.30023a.90648.90648,0,0,0-.5039-1.74152Zm-3.64732,2.33823s.271.526-.15323.64876l-.42426.12275v0l-7.1694,2.07447a.90647.90647,0,1,1-.5039-1.74151l1.95224-.56489c.3099-.10946.332-.313.332-.313l.002.00038,1.27119-5.15122-.00081.00007a.20238.20238,0,0,0-.05063-.17889l-1.26335-1.21415a.90647.90647,0,1,1,1.25623-1.30714l.58593.56312.19435-.7876a.90647.90647,0,0,1,1.76014.43437l-1.7689,7.168c-.00469.04187.00755.10194.1259.0789l2.11964-.61332.00643.02052A1.4822,1.4822,0,0,1,190.60086,198.07223Z"/></g><g id="Layer_15" data-name="Layer 15"><path class="cls-27" d="M223.273,162.81019c2.55754-.573,4.49783-1.01214,4.6628-1.04214.53233-.11185,1.19662-.62325.40491-1.399-.25687-.24618-1.62794-1.61259-3.38537-3.37151l-3.74655,2.08875Z"/><path class="cls-28" d="M221.20875,159.08629l-11.924,6.63191a1.2785,1.2785,0,0,0,.80391.02973c.70145-.1562,8.13489-1.80377,13.18406-2.937Z"/><path class="cls-29" d="M221.20875,159.08629l3.7424-2.0744s-9.03637-8.96238-9.58556-9.4961a1.17054,1.17054,0,0,0-.72212-.36607Z"/><path class="cls-30" d="M221.20875,159.08629l-6.56528-11.93657c-.40034-.02179-.81338.21789-1.00961.89586l-4.73847,16.37185c-.17962.62058-.06362,1.13855.38523,1.31511Z"/></g><g id="Layer_8" data-name="Layer 8"><path class="cls-31" d="M102.59385,114.30784a13.55089,13.55089,0,0,1-.51774,3.15081A14.7259,14.7259,0,1,0,90.0077,144.32221l.67491.26622A14.70256,14.70256,0,0,0,109.864,126.71078c-.91008-3.66291-3.57176-7.74414-7.2702-12.40294ZM92.00022,143.68428a1.25968,1.25968,0,1,1-1.62413-1.59586,1.24547,1.24547,0,0,1,.8401-.00564,1.26525,1.26525,0,0,1,.784,1.60151Zm17.2413-10.98943c-1.74987,5.79352-9.59346,6.91986-14.184,8.844,0,0-.81092.353-1.594.79349,0,0,.26383-.24685.61313-.54932,2.86083-2.33818,4.33042-3.127,5.9493-4.87747,3.05422-3.27943,5.237-8.812,4.42172-13.44115.09809,4.70389-2.91943,9.878-6.33134,12.77947a70.17389,70.17389,0,0,1-6.86729,4.73661l-.23545-.032c-3.91536-.40542-6.64628-7.5737-1.45372-12.10574,2.27356-1.98546,5.00891-2.34942,7.61747-4.07475,2.78669-1.83919,5.47941-5.4179,5.82494-8.929,3.35272,4.191,8.019,10.966,6.23922,16.85588Z"/></g><g id="Layer_9" data-name="Layer 9"><path class="cls-26" d="M149.68928,214.75934a.66818.66818,0,0,0-.12212,1.14448l1.19727.89752a5.93625,5.93625,0,0,0-.58894,5.78077l.01442.03212.00508.01134.00764.017.13312.29668a1.82794,1.82794,0,0,0-2.43622,2.40756l2.30632,5.14a1.82794,1.82794,0,0,0,3.4181-.21928l.32306.72a1.94027,1.94027,0,0,0,2.55693.973l.44786-.201,1.026,2.28655a1.82888,1.82888,0,0,0,3.33722-1.49741l-1.026-2.28655.77478-.34765,1.026,2.28655a1.82888,1.82888,0,1,0,3.33722-1.49741l-1.026-2.28655.44786-.20095a1.94028,1.94028,0,0,0,.973-2.55694l-.323-.72a1.82794,1.82794,0,0,0,2.43622-2.40756l-2.30633-5.14a1.82793,1.82793,0,0,0-3.41809.21928l-.13058-.291-.00255-.00566-.00763-.017-.0195-.04346a5.93642,5.93642,0,0,0-4.71084-3.40048l.12656-1.49381a.67032.67032,0,0,0-1.33582-.11345l-.13135,1.56406a6.99087,6.99087,0,0,0-4.37363,1.96018l-1.25485-.9398a.67063.67063,0,0,0-.6812-.07119Z"/><path class="cls-32" d="M149.0145,223.36411a1.34464,1.34464,0,0,0-.6803,1.78767l2.30633,5.14a1.3525,1.3525,0,0,0,2.46795-1.10737l-2.30632-5.14a1.34462,1.34462,0,0,0-1.78766-.68029Zm14.392-6.4577a1.34463,1.34463,0,0,0-.6803,1.78767l2.30632,5.14a1.35251,1.35251,0,0,0,2.468-1.10737l-2.30632-5.14a1.34462,1.34462,0,0,0-1.78766-.68029Z"/><path class="cls-32" d="M156.78637,226.92344a1.34463,1.34463,0,0,0-.68029,1.78767l2.30632,5.14a1.35251,1.35251,0,0,0,2.468-1.10738l-2.30632-5.14a1.34464,1.34464,0,0,0-1.78767-.6803Zm4.112-1.845a1.34462,1.34462,0,0,0-.6803,1.78766l2.30633,5.14a1.3525,1.3525,0,0,0,2.468-1.10737l-2.30632-5.14a1.34462,1.34462,0,0,0-1.78766-.68029Z"/><path class="cls-32" d="M149.88808,215.19228a.19311.19311,0,0,0-.03417.32861l1.57388,1.18031a5.5114,5.5114,0,0,0-.82021,5.68022l11.00565-4.93825a5.51137,5.51137,0,0,0-4.78844-3.16361l.16466-1.96038a.19313.19313,0,0,0-.26819-.19295.18923.18923,0,0,0-.11426.16023l-.16836,1.98249a6.50114,6.50114,0,0,0-4.76206,2.13673l-1.59285-1.19222a.18922.18922,0,0,0-.19565-.02118Zm.91452,7.62377,3.579,7.97645a1.45494,1.45494,0,0,0,1.92728.73342l8.345-3.74438a1.455,1.455,0,0,0,.73342-1.92728l-3.579-7.97645-11.00565,4.93824Z"/><path class="cls-26" d="M152.25467,218.11907a.50331.50331,0,1,0,.66524.25316.50667.50667,0,0,0-.66524-.25316Zm5.07953-2.27919a.50331.50331,0,1,0,.66524.25316.50667.50667,0,0,0-.66524-.25316Z"/></g><g id="Layer_10" data-name="Layer 10"><path class="cls-33" d="M228.85607,99.92287c-.91822-.90488-3.26284-1.59064-5.19538-1.55241A7.38153,7.38153,0,0,0,221.5346,93.061l-.87473-.89735-.876.92044a8.70486,8.70486,0,0,0-2.052,4.86556,6.13551,6.13551,0,0,0,.435,2.9189,7.35787,7.35787,0,0,1-3.66334.20462l-31.4393-5.445-.14968.347a16.50673,16.50673,0,0,0,1.21555,12.37719c2.12384,3.77077,5.8344,6.13818,11.096,7.04945,11.393,1.97315,20.77738-2.042,26.45105-11.26822,1.55761.31638,4.91375.851,7.19752-2.24962.05916-.083.17749-.249.59945-.87511l.23665-.33194-.85476-.754Zm-17.836-16.23463-4.78329-.82842-.78383,4.52581,4.78329.82842.78383-4.52581Zm-.94059,5.431-4.7833-.82842-.78383,4.5258,4.7833.82843.78383-4.52581Zm-5.653-.97905-4.7833-.82842-.78383,4.52581,4.7833.82842.78383-4.52581Zm-5.653-.979-4.78329-.82843-.78383,4.52581,4.78329.82843.78383-4.52581ZM192.18,91.613l-4.7833-.82842-.78382,4.5258,4.78329.82843L192.18,91.613Zm5.653.97905-4.7833-.82843-.78383,4.52581,4.7833.82842.78383-4.5258Zm5.653.979-4.7833-.82842-.78383,4.52581,4.7833.82842.78383-4.52581Zm5.653.97905-4.78329-.82842-.78383,4.5258,4.78329.82843.78383-4.52581Zm5.653.97905-4.7833-.82843-.78383,4.52581,4.7833.82842.78383-4.5258Z"/></g><g id="Layer_11" data-name="Layer 11"><path class="cls-34" d="M173.60556,157.14951l-.63388,5.20884a13.62918,13.62918,0,0,0,14.97856-16.22117,13.13178,13.13178,0,0,0-7.481-9.55407,13.62938,13.62938,0,0,0-19.34029,10.65111l5.22077.63533.00154-.0012a8.36109,8.36109,0,0,1,12.24759-6.33425,7.87775,7.87775,0,0,1,4.09576,5.22968,8.361,8.361,0,0,1-9.07549,10.37387l.63184-5.192-.00088-.00041-5.20472-.63339-.001.00066-.6334,5.20486Zm-5.68236,3.36817-3.99906-.48666-.00081-.001.48672-3.99952,4.00089.48688-.48671,3.99952Zm-3.5104-4.48688-3.35243-.408-.00233-.00121.40778-3.3509.00274-.00215,3.35.40767.00231.00137Z"/></g><g id="Layer_12" data-name="Layer 12"><path class="cls-35" d="M161.45086,293.60945l-11.23774-5.00964a1.28321,1.28321,0,0,0-1.69452.64949l-1.04037,2.33356,2.96022,1.31977a1.524,1.524,0,0,1,2.49746,1.12343l2.85291,1.27192a1.52523,1.52523,0,1,1-.54584,1.13131l-2.66059-1.18618,1.9398,5.06159a1.54279,1.54279,0,0,1,.48045.12517,1.52569,1.52569,0,1,1-1.66882.28279l-1.95809-5.10868a1.50839,1.50839,0,0,1-.586-.13226,1.52656,1.52656,0,0,1-.90471-1.441l-2.918-1.30129-3.43555,7.70516a1.2836,1.2836,0,0,0,.64972,1.69514l11.23781,5.00984a1.28346,1.28346,0,0,0,1.69472-.64956l4.98692-11.18524a1.28427,1.28427,0,0,0-.6498-1.69534"/></g><g id="Layer_7" data-name="Layer 7"><path class="cls-36" d="M91.85912,188.19738l-4.61152,3.17793a.50931.50931,0,0,1-.70805-.13027l-3.312-4.80607a.78284.78284,0,0,0-1.08855-.20058l-1.64619,1.13444a.78274.78274,0,0,0-.20018,1.08867l3.292,4.777a.54694.54694,0,0,1-.13784.75923l-1.50628,1.04866a.54689.54689,0,0,1-.76345-.13933l-3.28624-4.78874a.78237.78237,0,0,0-1.0893-.20166l-1.64484,1.1335a.7827.7827,0,0,0-.20017,1.08867l9.27408,13.45767a.69481.69481,0,0,0,.96643.1781l12.72976-8.77246a.69488.69488,0,0,0,.17791-.9667l-5.27882-7.66013A.69488.69488,0,0,0,91.85912,188.19738Zm1.31953,6.54308a.9112.9112,0,0,1-.23318,1.26729l-1.301.89654a.91122.91122,0,0,1-1.26733-.23324l-.89654-1.301a.91118.91118,0,0,1,.23324-1.26733l1.301-.89654a.91117.91117,0,0,1,1.26728.23328l.89654,1.301Z"/></g><g id="Layer_16" data-name="Layer 16"><g class="cls-37"><path class="cls-38" d="M154.63614,262.96587a1.42332,1.42332,0,0,0-.02048-.737,1.36877,1.36877,0,0,0-.40075-.60352q-2.45175-2.218-4.90519-4.43409a1.40658,1.40658,0,0,0-1.4933-.30647c-.83738.278-5.01647,1.60712-6.2633,2.01016a1.32433,1.32433,0,0,0-.93619,1.048q-.701,3.24642-1.4006,6.4931a1.42974,1.42974,0,0,0,.01588.722,1.36457,1.36457,0,0,0,.40545.61863c.97006.881,4.23082,3.814,4.87908,4.41234a1.40676,1.40676,0,0,0,1.48732.3361q3.14739-1.01271,6.29692-2.019a1.36574,1.36574,0,0,0,.6243-.39654,1.43172,1.43172,0,0,0,.31193-.65138s.933-4.32774,1.39893-6.49237"/><path class="cls-39" d="M146.95262,264.68433l-7.72041,2.47374a1.36457,1.36457,0,0,0,.40545.61863c.97006.881,4.23082,3.814,4.87908,4.41234a1.40676,1.40676,0,0,0,1.48732.3361q3.14739-1.01271,6.29692-2.019a1.36574,1.36574,0,0,0,.6243-.39654l-5.97266-5.42529"/><path class="cls-39" d="M144.66591,265.41711a2.37121,2.37121,0,0,0,4.036.85607l-1.74927-1.58885-2.28671.73278"/><path class="cls-40" d="M154.63614,262.96587a1.42332,1.42332,0,0,0-.02048-.737l-7.663,2.45545,5.97266,5.42529a1.43172,1.43172,0,0,0,.31193-.65138s.933-4.32774,1.39893-6.49237"/></g><polyline class="cls-26" points="153.505 266.393 152.971 266.278 152.856 266.811 152.323 266.696 152.438 266.163 151.905 266.048 152.02 265.514 152.553 265.629 152.668 265.096 153.201 265.211 153.086 265.744 153.62 265.859 153.505 266.393"/><polyline class="cls-26" points="151.558 265.973 151.025 265.858 150.91 266.392 150.377 266.277 150.492 265.743 149.959 265.628 150.074 265.095 150.607 265.21 150.722 264.677 151.255 264.792 151.14 265.325 151.673 265.44 151.558 265.973"/><path class="cls-26" d="M148.70189,266.27318a2.37178,2.37178,0,1,1,.48076-2.3033l2.27808-.73007a4.763,4.763,0,1,0-.98812,4.642l-1.77072-1.6086"/><g class="cls-37"><path class="cls-41" d="M154.63614,262.96587a1.42332,1.42332,0,0,0-.02048-.737,1.36877,1.36877,0,0,0-.40075-.60352q-2.45175-2.218-4.90519-4.43409a1.40658,1.40658,0,0,0-1.4933-.30647c-.83738.278-5.01647,1.60712-6.2633,2.01016a1.32433,1.32433,0,0,0-.93619,1.048q-.701,3.24642-1.4006,6.4931a1.42974,1.42974,0,0,0,.01588.722,1.36457,1.36457,0,0,0,.40545.61863c.97006.881,4.23082,3.814,4.87908,4.41234a1.40676,1.40676,0,0,0,1.48732.3361q3.14739-1.01271,6.29692-2.019a1.36574,1.36574,0,0,0,.6243-.39654,1.43172,1.43172,0,0,0,.31193-.65138s.933-4.32774,1.39893-6.49237"/><path class="cls-42" d="M146.95262,264.68433l-7.72041,2.47374a1.36457,1.36457,0,0,0,.40545.61863c.97006.881,4.23082,3.814,4.87908,4.41234a1.40676,1.40676,0,0,0,1.48732.3361q3.14739-1.01271,6.29692-2.019a1.36574,1.36574,0,0,0,.6243-.39654l-5.97266-5.42529"/><path class="cls-42" d="M144.66591,265.41711a2.37121,2.37121,0,0,0,4.036.85607l-1.74927-1.58885-2.28671.73278"/><path class="cls-43" d="M154.63614,262.96587a1.42332,1.42332,0,0,0-.02048-.737l-7.663,2.45545,5.97266,5.42529a1.43172,1.43172,0,0,0,.31193-.65138s.933-4.32774,1.39893-6.49237"/></g><path class="cls-26" d="M148.70189,266.27318a2.37178,2.37178,0,1,1,.48076-2.3033l2.27808-.73007a4.763,4.763,0,1,0-.98812,4.642l-1.77072-1.6086"/><polygon class="cls-26" points="151.264 266.818 150.804 266.719 151.284 264.488 151.745 264.588 151.264 266.818 151.264 266.818"/><polygon class="cls-26" points="152.286 267.038 151.825 266.939 152.306 264.709 152.767 264.808 152.286 267.038 152.286 267.038"/><polygon class="cls-26" points="150.73 265.242 150.83 264.782 153.06 265.263 152.961 265.723 150.73 265.242 150.73 265.242"/><polygon class="cls-26" points="150.51 266.264 150.609 265.803 152.84 266.284 152.741 266.745 150.51 266.264 150.51 266.264"/></g><g id="Layer_20" data-name="Layer 20"><path class="cls-44" d="M236.8717,42.99976l4.09872.74129-3.39759,18.78581a27.54911,27.54911,0,0,1-5.41734-.40831c-5.00508-.91061-7.20647-3.61837-6.42963-7.91365.74849-4.13851,3.99838-6.32444,8.28172-5.54976a6.77455,6.77455,0,0,1,1.74517.53149ZM235.28412,52.598a4.19428,4.19428,0,0,0-1.34427-.459c-2.07309-.37494-3.49923.673-3.9,2.88913-.39022,2.15756.539,3.556,2.63847,3.93569a9.82969,9.82969,0,0,0,1.42724.15074Z"/><path class="cls-44" d="M246.50061,51.4355l-1.70111,9.40571c-.58584,3.23922-1.11022,4.753-2.06523,5.96715a6.6367,6.6367,0,0,1-3.89307,2.39878L235.362,66.727c1.96141-.51353,2.97145-1.09821,3.73569-2.131.79524-1.05362,1.22274-2.36315,1.8616-5.89552l1.44784-8.00529,4.09344.74033Z"/><path class="cls-44" d="M243.16646,44.13823l4.09872.74129-.75322,4.16464-4.09871-.7413.75321-4.16463Z"/></g><g id="Layer_17" data-name="Layer 17"><g class="cls-45"><path class="cls-38" d="M151.63991,108.93649a1.45684,1.45684,0,0,0-.19594-.72877,1.401,1.401,0,0,0-.54268-.50531q-2.969-1.62393-5.93915-3.24552a1.43973,1.43973,0,0,0-1.55952.05062c-.76736.47618-4.61087,2.79477-5.756,3.493a1.35556,1.35556,0,0,0-.68231,1.26625q.07548,3.39866.15245,6.79724a1.46337,1.46337,0,0,0,.18779.71494,1.3967,1.3967,0,0,0,.551.51925c1.17552.64593,5.12011,2.78884,5.908,3.23009a1.43993,1.43993,0,0,0,1.56063-.01971q2.89186-1.75784,5.78739-3.50977a1.39785,1.39785,0,0,0,.527-.54345,1.46555,1.46555,0,0,0,.15535-.72272s-.1021-4.53034-.15393-6.79612"/><path class="cls-39" d="M144.40062,112.47739l-7.09609,4.30153a1.3967,1.3967,0,0,0,.551.51925c1.17552.64593,5.12011,2.78884,5.908,3.23009a1.43993,1.43993,0,0,0,1.56063-.01971q2.89186-1.75784,5.78739-3.50977a1.39785,1.39785,0,0,0,.527-.54345l-7.23787-3.97794"/><path class="cls-39" d="M142.29885,113.75154a2.42708,2.42708,0,0,0,4.22157-.1092l-2.1198-1.165-2.10177,1.27415"/><path class="cls-40" d="M151.63991,108.93649a1.45684,1.45684,0,0,0-.19594-.72877l-7.04335,4.26967,7.23787,3.97794a1.46555,1.46555,0,0,0,.15535-.72272s-.1021-4.53034-.15393-6.79612"/></g><polyline class="cls-26" points="151.33 112.617 150.772 112.63 150.784 113.188 150.226 113.201 150.213 112.642 149.655 112.655 149.642 112.097 150.201 112.084 150.188 111.526 150.746 111.513 150.759 112.072 151.317 112.059 151.33 112.617"/><polyline class="cls-26" points="149.293 112.663 148.734 112.676 148.747 113.234 148.189 113.247 148.176 112.688 147.618 112.701 147.605 112.143 148.163 112.13 148.151 111.572 148.709 111.559 148.722 112.117 149.28 112.105 149.293 112.663"/><path class="cls-26" d="M146.52042,113.64234a2.42767,2.42767,0,1,1-.07008-2.40736l2.09383-1.2694a4.87524,4.87524,0,1,0,.12211,4.85626l-2.14586-1.1795"/></g><g id="Layer_19" data-name="Layer 19"><path class="cls-46" d="M187.06523,43.08355c-5.28836-.28812-5.08307,2.02323-5.08307,2.02323l-.12354,2.37621,5.04655.27494-.03886.71336-7.051-.38415s-3.36311-.56814-3.65382,4.76786,2.67324,5.3077,2.67324,5.3077l1.76276.096.1349-2.47611a2.80586,2.80586,0,0,1,3.0674-2.7953l5.00529.27269a2.69264,2.69264,0,0,0,2.96023-2.56462l.24892-4.569s.57761-2.74174-4.949-3.04283Zm-2.86973,1.44608a.90926.90926,0,1,1-.95737.85844.9084.9084,0,0,1,.95737-.85844Z"/><path class="cls-47" d="M186.0864,63.81488c5.28836.28812,5.08306-2.02322,5.08306-2.02322l.12355-2.37621-5.04656-.27495.03887-.71335,7.051.38415s3.36311.56814,3.65382-4.76787-2.67325-5.30769-2.67325-5.30769l-1.76275-.096-.13491,2.47611a2.80586,2.80586,0,0,1-3.0674,2.7953l-5.00529-.27269a2.69263,2.69263,0,0,0-2.96022,2.56462l-.24893,4.569s-.5776,2.74173,4.949,3.04282Zm2.86972-1.44607a.90926.90926,0,1,1,.95737-.85845.90839.90839,0,0,1-.95737.85845Z"/></g></svg>