<?xml version="1.0" encoding="utf-8"?>
<!-- Generator: Adobe Illustrator 22.0.1, SVG Export Plug-In . SVG Version: 6.00 Build 0)  -->
<svg version="1.1" id="Layer_1" xmlns="http://www.w3.org/2000/svg" xmlns:xlink="http://www.w3.org/1999/xlink" x="0px" y="0px"
	 viewBox="0 0 740 680" style="enable-background:new 0 0 740 680;" xml:space="preserve">
<style type="text/css">
	.st0{opacity:0.5;}
	.st1{fill:#89C5CC;}
	.st2{fill:#69A1AC;}
	.st3{fill:#C1DEE2;}
	.st4{opacity:0.5;fill:#C1DEE2;enable-background:new    ;}
	.st5{fill:#B28B67;}
	.st6{fill:#191847;}
	.st7{fill:#997659;}
	.st8{fill:#E4E4E4;}
	.st9{fill:#E87613;}
	.st10{fill:#DDE3E9;}
	.st11{fill:#FF9B21;}
	.st12{fill-opacity:0.1;}
</style>
<title>Scene/Whiteboard</title>
<desc>Created with Sketch.</desc>
<g id="Cells" transform="translate(95.000000, 125.000000)" class="st0">
	<path id="Fill-5" class="st1" d="M231.9,2.7c-1.6,1.6-1,7.2-1,9.2c-0.1,3.2,0.1,6.4,0.4,9.6c0.2,2.1,1.2,22.6,4,21
		c1.6-0.9,0.6-6.8,0.6-8.7c0-4.2-0.2-8.3-0.5-12.5c-0.3-3.9-0.4-7.7-0.3-11.5C235.3,8.9,236.1-1.6,231.9,2.7"/>
	<path id="Fill-7" class="st1" d="M300.4,0.1c-13.5,0.1-27,0.8-40.5,1.2c-6.5,0.2-13,0.4-19.5,0.8c-2.2,0.1-7-0.6-8.8,0.6
		c-4.1,2.6,2.5,3.2,4.3,3.2c26.7-1,53.5-2.2,80.2-2.3c13.1,0,26.2,0.3,39.4,0.3c5,0,10.6-2.2,11.8,3.6c1.4,6.6-0.2,13.9-0.7,20.5
		c-0.3,4.4-0.2,8.7,0,13.2c0.1,2.8-0.2,6,0.3,8.8c0.5,2.7,2.4,4.3,4.2,1.3c1.1-1.8,0.5-6.2,0.6-8.3c0.1-2.8,0-5.6,0-8.4
		c0-6.8,1-13.6,0.8-20.4c-0.1-4.4-0.3-12.4-5.9-13.4c-6.1-1.2-13.6,0-19.9-0.1C331.3,0.5,315.9,0,300.4,0.1"/>
	<path id="Fill-9" class="st1" d="M263.2,42.8c-5.1,0-10.2,0-15.3,0.1c-4.4,0.1-11.2-0.8-15.3,0.7c-2.8,1.1-3.5,4.2,0,5
		c3.8,0.9,9.6-0.6,13.7-0.6c20.2-0.4,40.5-0.8,60.7,0.5c18.9,1.2,38.1,2.4,57,1.1c1.6-0.1,9.7-0.4,6-3.5c-2.2-1.8-10.9-0.6-13.7-0.7
		c-9.9-0.3-19.8-0.4-29.7-0.7c-9.8-0.4-19.5-1.5-29.2-1.7C285.9,42.6,274.5,42.8,263.2,42.8"/>
	<path id="face" class="st1" d="M258.1,13.8c7.9,0.3,15.8,11.9,7.8,17.4c-7.5,5.2-21.7-0.5-17.5-10.6c-0.6,1.5,0.8-1.6,0.8-1.6
		c0.8-0.9,2.2-2,3.2-2.7c1.1-0.8,2.3-1.8,3.7-2.2C256.9,13.8,256.8,14.8,258.1,13.8 M254.2,9.6c-3.7,1.5-5.4,3.1-8,6.1
		c-1.8,2.1-4,3.1-4,5.9c0,0.6,0.8,1.3,0.9,1.9c0.2,0.8,0,1.9,0.1,2.7c1.5,8.9,12.2,12,20,10.3c6.8-1.5,11.9-8,10.3-15.1
		C272.1,14.2,261.4,6.8,254.2,9.6"/>
	<path id="Fill-13" class="st1" d="M250.9,22.1c0,3.2,5.1,3.2,5.1,0C256,19,250.9,18.8,250.9,22.1"/>
	<path id="Fill-15" class="st1" d="M257.3,21.5c0,2.6,4,2.6,4,0C261.3,19,257.3,18.9,257.3,21.5"/>
	<path id="Fill-17" class="st1" d="M258.5,26.8c-1.3,0.5-2.9-0.5-4,0.1c-1.9,1.2,0,2.3,1,2.8C260.1,31.9,260.9,25.9,258.5,26.8"/>
	<path id="Fill-19" class="st1" d="M327.8,19.6C327.7,19.7,327.2,19.9,327.8,19.6 M308.1,16.7c-3.4,0.8-6.3,3.9-10,3.5
		c-2.8-0.3-4.7-3.1-7.5-3.5c-3.6-0.5-13.3,7.6-8.2,9c3,0.8,4.6-4.6,7.3-4.9c2.1-0.2,4.9,2.3,7.1,2.7c4,0.7,6.8-1.5,10.3-3
		c3.8-1.6,6-0.2,9.4,1.6c2.6,1.4,5.1,2.3,8.1,1.7c2.8-0.5,6.4-3.4,9.2-3.1c2.8,0.3,4.8,3.2,7.7,3.5c1.2,0.1,2.9,0.5,2.7-1.3
		c-0.2-1.5-1.8-1.2-2.8-1.7c-2.6-1.4-5.1-3.8-8.3-3.6c-2.4,0.2-4.6,1.8-6.8,2.6C319.2,22.9,315.2,15.1,308.1,16.7"/>
	<path id="Fill-21" class="st2" d="M314.1,63.1c-13.9,0.1-27.8,0.3-41.7,1.4c-3.3,0.3-36.8,3.4-36.7,3.7c0.1,0.4,4.4,1.1,4.4,1.2
		c-0.3-0.7-1-1-2-0.9c31.8,0,63.5-2.8,95.3-2.3c8,0.1,16,0.1,24,0.3c2,0.1,6.9,1.5,8.5,0.6c4.1-2.4-3.4-2.6-4.6-2.7
		C345.7,63.1,329.8,63,314.1,63.1"/>
	<path id="Fill-23" class="st2" d="M231.6,69.9c-2.1,2.1-0.2,9.6-0.1,12.4c0.1,4.1,0,8.2,0.4,12.2c0.4,4.6,1,9.6,2.3,14.1
		c0.7,2.5,3,6.4,4,1.9c0.7-3.2-0.3-7.5-0.7-10.8c-0.5-4.4-0.6-8.7-0.6-13.1c0-3.8-0.1-7.7-0.4-11.5
		C236.2,73.1,235.2,66.2,231.6,69.9"/>
	<path id="Fill-25" class="st2" d="M283.8,108c-9.9,0.2-19.7,0.4-29.6,1c-4,0.3-8.1,0.6-12.1,1.1c-0.8,0.1-9.9,0.5-5.8,3.8
		c1.8,1.5,9.4-0.6,11.8-0.8c4.2-0.4,8.4-0.6,12.6-0.8c9.7-0.4,19.5-0.8,29.2-0.6c17.8,0.3,35.4,0.4,53.2,0c2.5-0.1,22.3,0.5,23-2.2
		c0.5-2.1-6.5-1.1-7.8-1.1c-4.7,0.1-9.5,0.1-14.2,0.1C324,108.5,303.8,107.7,283.8,108"/>
	<path id="Fill-27" class="st2" d="M362.7,66.3c0.3,8.8,1.8,17.5,2.3,26.3c0.2,4,0.5,8,0.7,12.1c0.1,1.3-0.5,4.4,1.1,5.2
		c2.1,1,2.4-1,2.8-2.4c1.1-4,0.4-9.3,0.3-13.4c-0.1-4-0.1-8-0.4-12c-0.3-4.1-1.1-8.1-1.5-12.2c-0.2-1.7,0.4-4.6-1.4-5.7
		C364.9,63.3,362.7,64.4,362.7,66.3"/>
	<path id="face_1_" class="st2" d="M265.8,80.9c0,0,0.1,0.1,0.1,0.1C265.9,81,265.9,81,265.8,80.9 M257.5,78.3
		c3.1,0.9,5.7,0.6,8.7,2.8c2.5,1.9,5,4.6,5.8,7.7c1.9,7-4.5,10.9-10.6,11c-6.2,0.1-15.3-1.4-15-9.3
		C246.7,84.5,251.1,78.6,257.5,78.3 M257.7,74.4c-8.1,0.4-14.6,9.5-14.6,17.2c0.1,9.3,10.6,11.7,18.1,11.7
		c8.4,0.1,16.8-5.7,14.6-15.2C274,80.4,265.5,74,257.7,74.4"/>
	<path id="Fill-31" class="st2" d="M249.5,86.8c0,2.6,4.1,2.6,4.1,0C253.6,84.3,249.5,84.2,249.5,86.8"/>
	<path id="Fill-33" class="st2" d="M258.1,85.7c0,2.6,4.1,2.6,4.1,0C262.2,83.1,258.1,83,258.1,85.7"/>
	<path id="Fill-35" class="st2" d="M253.4,91.6c-2.7,2.7,6.7,7.3,8.9,3.6c1.8-3-2.1-2-3.5-2.2C257.2,92.8,254.6,90.4,253.4,91.6"/>
	<path id="Fill-37" class="st2" d="M328.1,85.7C327.9,85.8,327.9,85.8,328.1,85.7 M293,81.4c-2.7,0.5-11.5,3.5-11.7,6.7
		c-0.2,5.8,8.4-0.1,10.3-0.9c5.1-2.1,7.8,2.2,12.9,2.4c4.5,0.2,8.6-3.6,12.8-3.2c4.4,0.5,6.5,5.2,11.6,2.7c2.7-1.3,2.6-3.3-0.4-3.5
		c-1.8-0.1-3.1,0.6-5-0.1c-3-1.2-4.2-3.2-7.7-2.9c-2.7,0.2-5.1,1.8-7.7,2.3C302.1,86.2,298.8,80.3,293,81.4"/>
	<path id="point" class="st2" d="M348.8,88.3C348.6,88.3,348.6,88.3,348.8,88.3 M349.5,85.8C349.5,85.9,349.7,86.1,349.5,85.8
		 M346.4,84C346.3,84.1,346.3,84.1,346.4,84 M346.5,84c0.6,0.4,5.4,3.7,1.9,4.4C346.6,88.8,345.1,85.2,346.5,84 M344.9,80.3
		c-7.7,3.5,0.6,16.1,6.6,11c2.5-2.2,2.9-6.5,0.4-8.7C350.4,81.2,346.9,79.4,344.9,80.3"/>
	<path id="Fill-41" class="st1" d="M272.5,129.9c-9.6,0-19.3-0.2-28.9,0.4c-1.6,0.1-7.8-0.2-8.6,1.5c-1.5,3.1,4.8,1.6,5.7,1.5
		c19.1-1.9,39.1-0.8,58.3-0.3c15.7,0.4,31.3,0.7,47,1.5c4.1,0.2,8.2,0.4,12.4,0.7c1.3,0.1,4.7,1,5-1.2c0.3-2-4-1.5-5-1.6
		c-8.4-0.4-16.7-0.9-25.1-1.4C313.1,129.9,292.7,129.9,272.5,129.9"/>
	<path id="Fill-43" class="st1" d="M234.6,133.4c-1.8,1.8-1,8.6-1,10.9c-0.1,3.9-0.3,7.9-0.4,11.8c-0.1,4.1,0,8.3,0.3,12.4
		c0.1,1.7,1.5,10.1,3.8,5.3c1-2.1,0-8.1,0-10.5c0-4.4,0.3-8.8,0.5-13.2c0.2-3.8,0.2-7.6,0.4-11.3
		C238.2,137.5,238.3,129.6,234.6,133.4"/>
	<path id="Fill-45" class="st1" d="M365,168.6c-9.4,1-18.9,0.5-28.3,1.2c-8.1,0.6-16.2,0.9-24.3,1c-18.4,0.4-36.8,0.8-55.2,2.3
		c-4.2,0.3-8.4,0.7-12.5,0.9c-2.1,0.1-10.9-0.9-11.5,1.3c-1.1,3.8,8.3,2.3,10.3,2.2c4.5-0.1,8.9-0.5,13.4-0.8
		c18.7-1.4,37.5-1.9,56.2-2.4c10.2-0.3,20.3-1.1,30.5-1.7c5.1-0.3,10.2-0.3,15.2-0.7c1.3-0.1,6,0.1,7-1
		C366.3,170.2,366.5,168.5,365,168.6"/>
	<path id="Fill-47" class="st1" d="M361.8,134c0.3,9,0.8,18,1.1,26.9c0.1,2.7-0.7,7.5,0.8,9.9c2.4,3.8,4.3-0.2,4.7-2.6
		c1.4-7.5-0.1-15.9-0.5-23.4c-0.1-2.9,0.7-9.3-0.6-11.9C366,130.4,361.7,130.7,361.8,134"/>
	<path id="hola-:_x29_" class="st1" d="M346.1,146.8c3.6,1,4.1,8.8,0.1,9.4C340.1,157,342.8,148.4,346.1,146.8 M345.1,143.7
		c-1.1,0-3.6-0.3-4.3,0.6c-0.6,0.7,0,2.3-0.1,3c-0.2,2.5-2.3,4-1.4,7c0.6,2,2.3,3.9,4.3,4.7C354.5,162.7,354.3,141.8,345.1,143.7"/>
	<path id="Fill-51" class="st1" d="M247.7,145.1c0,0-0.1,0.1-0.1,0.1C247.6,145.2,247.7,145.1,247.7,145.1 M256.2,140.6
		c0-0.4-0.1-0.7-0.1-1.1c5.8,2.8,10.5,7.9,8.6,14.8c-1.5,5.3-6.8,7.1-11.8,5.8c-5.5-1.4-8.2-6-6.7-11.6c0.7-2.6,2.8-6,5.5-6.9
		C252.9,141.3,255.7,142.3,256.2,140.6 M252.8,138.4c-1.5,0.1-2.9,0.7-4.1,1.6C249.8,139,251.3,138.4,252.8,138.4 M252.8,135
		c-3.7,0.1-6,2.3-8.2,5c-0.7,0.8-3,3-2.7,4.2c0.2,0.9,0.8,2.2,2.1,1.2c-6.5,12.9,10.3,24,20.5,15C274,151.9,264.6,134.6,252.8,135"
		/>
	<path id="Fill-53" class="st1" d="M249.5,147c0,1.7,2.7,1.7,2.7,0C252.2,145.3,249.5,145.3,249.5,147"/>
	<path id="Fill-55" class="st1" d="M254,147.3c0,1.8,2.7,1.8,2.7,0C256.8,145.6,254,145.6,254,147.3"/>
	<path id="Fill-57" class="st1" d="M256.1,153.5c-1.3,0.1-5.9-0.3-6.7,0.8c-1.4,1.9,0.8,1.9,1.9,2.1c1,0.2,5.2,0.1,5.7-0.8
		C257.5,154.9,257.4,153.4,256.1,153.5"/>
	<path id="Fill-59" class="st1" d="M312.2,148.7C312,148.7,312,148.7,312.2,148.7 M294.6,147.4c-2.9,0.2-5.3,1.9-8,2.5
		c-2.9,0.7-4.2-0.6-6.9-1.4c-2.8-0.9-4.7-0.5-7,1.4c-1.3,1.1-4,3.5-3.2,5.4c1.8,4.4,5.9-2.7,7.8-3.1c3-0.5,5.7,2.1,9.1,1.4
		c3.1-0.7,5.9-2.8,9.2-2.9c2.7,0,5.3,1.5,8,1.8c4.1,0.6,6.8-0.9,10.6-2c3.3-0.9,5.6,0.3,8.7,1.3c1.4,0.5,6.2,2.2,5.3-0.9
		c-0.2-0.9-6.5-2.5-7.5-2.8c-3.4-1.1-5.6-0.7-8.8,0.6c-2.7,1-5,1.5-7.9,1C300.9,149.1,298,147.1,294.6,147.4"/>
</g>
<g id="Big-Cards" transform="translate(287.000000, 64.000000)" class="st0">
	<path id="Fill-67" class="st2" d="M234.6,64c0.5-10,1.1-19.9,1.4-29.9c0.2-4.9,0.3-9.9,0.4-14.8c0-1.1,0.1-2.2,0.1-3.3
		c0.1-3.7-0.4-4,3.4-4.4c16.8-1.5,33.6-2,50.4-3.3c20.2-1.6,40.6-2.7,60.9-3.2c9-0.2,18.1-0.7,27.1-0.4c2,0.1,5.9-0.5,6.7,1.1
		c0.3,0.7-0.4,3-0.5,3.8c-0.3,2.4-0.5,4.8-0.7,7.3c-1,14.3-0.4,29.1,2.4,43.2c-6.5-3.7-14.8-6.8-22.3-6.2
		c-7.7,0.6-13.5,5.1-19.7,9.2c-3.5,2.3-4.7,2.9-8.2,0.7c-3-1.9-5.9-4.2-8.7-6.4c-4.4-3.4-8.5-7-12.8-10.6
		c-7.8-6.5-18.6-15.7-29.4-13c-7.7,1.9-14.9,6.2-21.6,10.3C253.6,50.4,244.5,57.9,234.6,64 M368.8,0.3c-38.5,0-76.7,3.7-115,5.7
		c-4,0.2-8,0.5-12,0.9c-2.7,0.3-9.2-0.8-10.9,1.5c-1.2,1.5-0.2,1.7,0,3.2c0.2,1.8,0.1,4,0,5.9c-0.1,4.6-0.3,9.3-0.4,13.9
		c-0.4,17.5-0.6,35,0.1,52.5c0.2,3.8,1.5,9.1,0.8,12.8c-0.6,2.7-2.4,4.3,1.9,4.8c4.2,0.5,9.3-0.8,13.5-1.2c4.2-0.4,8.4-0.8,12.6-1.2
		c18.3-1.5,36.8-1.3,55.2-1.8c18.5-0.5,37.1-0.5,55.6-0.5c7.8,0,16.6,0.4,24.2-1.7c2.7-0.8,3.1-1.1,2.4-3.8
		c-0.1-0.5-0.9-0.7-1.2-1.6c-0.3-1.2-0.2-2.7-0.2-4c-0.2-4.2-0.3-8.4-0.5-12.6c-0.3-7-1.5-13.8-2.4-20.7c-1-8-1-16.1-1-24.2
		c0-4.5,0.1-8.9,0.5-13.4c0.2-2.9,1.6-7.1,0.9-9.8c-0.4-1.3-0.9-2.4-2.3-3c-0.9-0.4-1.6-0.1-2.5-0.2c-1-0.1-1.7-0.3-2.9-0.5
		C379.8,0.2,374.2,0.3,368.8,0.3"/>
	<path id="Fill-69" class="st1" d="M347.5,19.4c0,2.8-0.4,6.9,0.8,9.5c1.6,3.3,3.7,2.3,4.2-0.8c0.3-1.8,0.3-7.1-0.3-8.7
		C351.5,17.1,347.5,15.6,347.5,19.4"/>
	<path id="Fill-71" class="st1" d="M352.2,20.4c-2.6,0.1-10.2-0.5-12,1.6c-3,3.6,2.3,4.2,4.5,4c2.6-0.2,10.7,0.3,12.5-1.8
		C360.1,20.7,354.2,20.4,352.2,20.4"/>
	<path id="Fill-73" class="st1" d="M250.6,113.6c11.5,2,7.9,19.5-3,15.5c-3.8-1.4-9.4-5.5-7.3-10.3
		C241.9,115.1,247,113.2,250.6,113.6 M245.8,108.1c-7.5,1.3-12.6,9.4-10,16.4c2.5,6.8,11.9,11.8,18.8,9.4c6.6-2.3,9.9-11.1,7.7-17.6
		C259.9,109.6,252.3,107,245.8,108.1"/>
	<path id="Fill-75" class="st1" d="M315.8,115.6c-2.9,0.2-5.3,2.2-8.2,2.6c-2.7,0.3-4.9-0.6-7.5-1.3c-3.1-0.9-5.8-1.3-9-0.5
		c-2.4,0.6-4.7,2.2-7.2,2.4c-4.9,0.4-10.5-5.2-14.3,1.1c-1.8,3,0.8,5,3.6,3.5c2.8-1.5,1.4-2,5-1.1c2.9,0.7,5.3,1.1,8.3,0.1
		c2.7-0.9,5-2.6,7.9-2.8c2.8-0.2,5.3,1.1,8,1.7c3.3,0.7,6.3,0.2,9.5-0.9c3-1,4.2-1.5,7.2-0.7c1.9,0.6,6.1,2.3,8,0.9
		c3.2-2.5-1.1-2.9-2.8-3.2C321.5,117,318.7,115.4,315.8,115.6"/>
	<path id="Fill-77" class="st1" d="M381.4,114C381.4,114,381.4,114,381.4,114C381.4,114,381.4,114,381.4,114 M378.6,113.4
		c4.2,0.3,8.7,7.9,3.2,8.2C377.8,121.7,373.5,115,378.6,113.4 M378,107.1c-13.2,3.7-7.2,22.3,5.6,20.2c5.8-1,7.8-7.7,5.8-12.7
		c-0.8-2.1-2.4-3.9-4.3-5.2C383.6,108.6,379.6,106.7,378,107.1"/>
	<path id="Image-Border" class="st2" d="M235.8,226.3c-0.4-1.7-0.2-4.4-0.2-5c-0.1-2.9-0.1-5.8-0.2-8.6c-0.3-6.8-0.4-13.7-1-20.6
		c-0.5-6.5-1.8-12.9-1.8-19.4c0-4.5-1.3-15.7,2.6-18.7c6.7-3.9,4,9.9,3.9,12.3c-0.3,7.2,0.1,14.1,0.8,21.2
		c0.7,6.5-0.1,13.1-0.4,19.6c-0.1,3.5-0.2,6.9-0.5,10.4c-0.1,1.1,0,6-0.5,8.6c1.5-0.1,2.8,0,3.6,0c5.4-0.2,10.9-0.3,16.3-0.5
		c20.9-0.8,41.8-0.4,62.6-1.4c19.7-0.9,39.5-1.1,59.3-1.4c1.7,0.2,2.5,2,1.4,3.4c-1.1,1.4-6.1,1.1-7.7,1.2
		c-5.6,0.4-11.1,0.6-16.7,0.7c-11.8,0.1-23.5,0.6-35.2,1.3c-20.8,1.2-41.7,1.1-62.6,1.9c-5.1,0.2-10.1,0.4-15.2,0.5
		c-2.7,0.1-9.7,1.7-11-1.5C232.6,227.8,233.9,226.8,235.8,226.3z M351.2,145.2c6.3-0.1,12.6,0.1,18.9,0.4c2.8,0.2,5.6,0.3,8.4,0.4
		c1.6,0.1,5.3-0.5,6.7,0.3c5.6,2.9-5.8,3.3-7.2,3.2c-5.8-0.1-11.6-0.5-17.3-0.7c-21.3-0.5-42.7,0.8-64,1.6
		c-10.2,0.4-20.4,0.5-30.7,1.1c-5.6,0.3-11.2,0.7-16.8,1c-2.6,0.1-5.2,0.3-7.7,0.3c-1.6,0-4.8,0.7-6.3,0.1c-1.3-0.5-2.3-1.2-1.6-2.7
		c0.7-1.6,4-0.9,5.3-1c4.9-0.1,9.8-0.4,14.8-0.7c11.2-0.7,22.3-1.5,33.5-1.7C308.6,146.5,329.9,145.4,351.2,145.2z M380.5,152.4
		c0-2.9,3.5-3.5,5.1-1.5c1.5,1.9,0.5,7.7,0.6,9.9c0.1,7.5,0.8,14.9,1.5,22.4c0.7,7.4,1.1,14.8,1.7,22.2c0.2,3.4,2.9,17.1-1,19.1
		c-4.9,2.5-4-10.4-4.1-12.8c-0.4-7.6-1-15.2-1.7-22.8C381.5,176.7,380.5,164.7,380.5,152.4z"/>
	<path id="Image-X" class="st1" d="M316,187.6c6.7,2.4,13.4,4.9,20,7.4c3.5,1.4,7.1,2.8,10.6,4.2c1.8,0.7,9.1,2.4,9.6,4.2
		c0.6,2.5-7.3-0.6-8.5-1c-3.5-1.1-7-2.4-10.5-3.6c-7.8-2.8-15.6-5.7-23.4-8.4c-0.7-0.3-1.5-0.5-2.2-0.8c-8.3,3.7-16.6,7.5-24.9,11.3
		c-4.4,2.1-8.8,4.2-13.2,6.3c-3.3,1.6-9.2,6.1-12.8,6c-1.4,0-2.3-0.3-2.4-2c-0.2-2.1,3.2-3,4.6-3.7c4.7-2.4,9.4-4.6,14.2-6.9
		c9.4-4.5,18.9-8.8,28.5-13c0.1,0,0.1,0,0.2-0.1c-5.3-1.8-10.6-3.5-15.9-5.3c-3-1-24.3-6.2-23.6-9.1c0.9-3.2,19.7,4.3,22.6,5.2
		c7.1,2.3,14.3,4.6,21.4,7.1c17-7.6,34.2-15.8,52-21.4c1.1-0.3,1.8,0.8,1.6,1.8c-0.3,1.3-4.3,2.3-5.4,2.8c-4.4,2-8.8,3.9-13.1,5.8
		c-9.5,4.3-19.1,8.5-28.6,12.7C316.4,187.4,316.2,187.5,316,187.6z"/>
	<path id="Fill-117" class="st1" d="M253.1,241.1c4.4,0.8,7.4,4.9,6.9,9.3c-0.6,5.9-6.5,8.6-12,7.8c-6.2-0.9-7.5-6.1-4.5-11.1
		c0.7-1.1,1.4-2.4,2.6-3c0.8-0.4,1.9,0,2.5-0.4C251.1,242.6,249.7,240.8,253.1,241.1 M251.1,237.3c-5.3,0.7-15.1,6.8-14.6,13
		c0.4,0.7,1.1,1,1.9,0.9c-0.2,1.3-0.1,2.6,0.2,4c0.5,1.7,1.5,3.1,2.9,4.2c2.8,2.3,6.6,2.8,10,2.4c6.5-0.7,11.5-5.2,11.9-11.9
		C263.8,243.3,258.1,236.4,251.1,237.3"/>
	<path id="Fill-119" class="st1" d="M276.8,245.3c-2.4,1.3-6.2,3.2-7.5,5.6c-1.5,2.5,0.1,5.3,3.2,4.1c2.5-1,4-4,6.7-4.9
		c2.3-0.9,3.3-0.4,5.7,0.4c2.5,0.9,4.7,1.7,7.5,1.5c3.4-0.3,6.4-2.3,9.8-2.7c2.8-0.4,5.2,0.7,7.9,1.2c3.1,0.5,5.2-0.7,8.2-1.3
		c2-0.4,5.5,1.3,7,0.7c3.3-1.4-0.2-3.2-2-3.8c-3.1-1-5-0.1-7.9,0.7c-3.2,0.9-4.5,0.2-7.6-0.6c-6.1-1.6-10.8,2.3-16.7,1.6
		C285.7,247,282.5,242.3,276.8,245.3"/>
	<path id="Fill-121" class="st1" d="M376.9,242.3c5.9,5.5-0.7,13.4-7.2,9c-2.3-1.6-2.3-4-0.5-6.3C370.8,243,374.4,242.2,376.9,242.3
		z M374.8,237.9c-5.5,1.1-10.7,3.6-11.2,9.9c-0.5,6.2,5.9,9.1,11.2,8.7C386.8,255.6,385.9,235.7,374.8,237.9z"/>
</g>
<g id="Cards" transform="translate(44.000000, 343.000000)" class="st0">
	<path id="Fill-173" class="st1" d="M285.5,0.4c-8.4,0.1-16.8,0.4-25.3,0.9c-8,0.5-16.7,0.1-24.5,1.7c-2.2,0.4-5.3,2.5-2.3,4.7
		c2.1,1.6,9.7-0.2,12.2-0.4c9.2-0.6,18.4-1.2,27.6-1.6c8.7-0.3,17.4-0.4,26.1-0.5c1.3,0,3.5-0.4,4.9-0.1c1.9,0.6,1.5,0.7,1.6,3.1
		c0.3,4.4,0.2,8.8,0.1,13.1c-0.1,4.2-0.2,8.5-0.2,12.7c0,3-1,9,0.6,11.7c2.2,3.8,4.4-0.3,4.6-2.8c0.3-4.8,0.2-9.7,0.2-14.5
		c0-4.5,0-9-0.1-13.5c-0.1-3.3,0.4-9-1.4-11.9c-1.8-3-6.1-2.4-9.2-2.5C295.3,0.3,290.4,0.3,285.5,0.4"/>
	<path id="Fill-171" class="st1" d="M231.9,5.8c0,8.5-1,16.9-1.2,25.4c-0.1,3.9-0.4,8.2,0.6,12c1,3.9,4.2,4.7,4.5,0.4
		c0.7-8.7,0.6-17.8,1.1-26.6c0.2-3.1,1.5-8.8,0.3-11.7C236.1,2.7,231.9,2.2,231.9,5.8"/>
	<path id="Fill-175" class="st1" d="M310.9,43.2c-14.6,1.9-29.9,1.2-44.7,1.5c-7.1,0.1-14.1,0.2-21.2,0.2c-2.5,0-8.7-0.9-10.9,0.5
		c-3.4,2.2,0.3,3.9,2.5,4c14,0.3,28.1-0.3,42-0.8c6.3-0.2,12.6-0.3,18.8-0.8c3.8-0.3,8.1-0.6,11.8-1.7c0.8-0.2,2.5-0.2,2.7-1.3
		C312.1,44.2,311.9,43.1,310.9,43.2"/>
	<path id="Fill-177" class="st1" d="M250.1,55.5c-4.1,0-16.3-1.9-18,2.1c-2.2,5.3,6.5,4.1,8.9,4c5.3-0.1,10.7-0.2,16-0.1
		c5.3,0,10.5,0,15.7-0.2c1.5,0,5.1,0.6,5.9-1.2c0.7-1.4,0.1-2.5-1.1-3.2c-3-1.8-10.6-0.7-14.1-0.9C259,55.8,254.5,55.5,250.1,55.5"
		/>
	<path id="Fill-179" class="st1" d="M299.5,56.5c-2.3,0.1-7-0.8-9.1,0.2c-2.4,1.2-1.5,3.1,0.5,3.9c1.4,0.6,7.2,0.3,8.6-0.4
		C301,59.6,302.6,56.3,299.5,56.5"/>
	<path id="Fill-181" class="st1" d="M325,6.6c-2.5,0.7-1.7,14.8-1.8,17c-0.2,6.1-0.9,13.8,1.2,19.7c1.3,3.8,3.8,3.2,3.4-0.7
		c-0.4-3.5-1-6.9-1.3-10.4c-0.6-7.9-1.5-16.3-0.9-24.3c0.3,0.5,2.6,4.7,3.2,4.4C328.6,12.5,326,6.4,325,6.6"/>
	<path id="Fill-183" class="st1" d="M352.9,1.5c-5,0.1-10,0.2-15.1,0.3c-4,0.1-10.3-0.5-13.9,1.1c-4.4,2-2.3,6.5,1.8,6.5
		c3.6,0.1,7.5-0.7,11.1-0.9c9.9-0.3,19.8-0.4,29.6-0.5c8.9-0.1,18.2,0.9,27.1-0.5c1.3,11.7-2.2,23.4-1,35.2c0.2,1.8,0.1,4.4,2.4,4.8
		c2.9,0.5,3.1-2.4,3.2-4.5c0.3-6,0.1-11.9,0.6-17.9c0.4-5.5,1.2-11.2,0.5-16.7c-0.8-6.8-4.1-6.3-9.9-6.6
		C377.3,1.4,365.1,1.3,352.9,1.5"/>
	<path id="Fill-185" class="st1" d="M336.1,42.9c-2.6,0.1-6.8-0.7-8.4,1.7c-1.7,2.6,0.3,4.8,2.8,5.3c2.9,0.6,6.8-0.2,9.8-0.2
		c3.2,0,6.3,0,9.5,0c13.6,0.1,27.3,0.3,40.9-0.3c1.9-0.1,7.3,0.6,8.6-1.3c1.2-1.6,0.4-3.1-1.2-3.9c-2.5-1.4-7.7-0.8-10.5-0.9
		c-3.5-0.1-6.9-0.2-10.4-0.2C363.5,42.9,349.8,42.5,336.1,42.9"/>
	<path id="Fill-187" class="st1" d="M347.6,54.7c-5.1,0.1-10.5-0.1-15.6,0.6c-4.4,0.7-5,5-0.2,5.5c4.4,0.5,9.7-0.4,14.1-0.7
		c1.6-0.1,3.4,0,4.1-1.7C350.9,56.6,349.4,54.9,347.6,54.7"/>
	<path id="Fill-189" class="st1" d="M386.1,55.1c-2.7,0.1-10.7-1.1-12,2c-2.2,5.2,8.5,3.2,10.6,3.1c2.6-0.1,12.7,1.4,12.7-2.7
		C397.4,53.5,388.6,55.1,386.1,55.1"/>
	<path id="Fill-191" class="st2" d="M231.5,80.8c0,9.4-0.6,18.9,0.3,28.3c0.4,3.9,0.3,11.3,2.5,14.6c1.6,2.3,3.8,2.2,4.7-0.6
		c0.6-1.9-0.3-5.6-0.5-7.6c-0.1-1.9-0.2-3.8-0.3-5.8c-0.2-5-0.2-9.9-0.1-14.9c0.1-4.3,1.1-9.9,0.1-14
		C237.3,77,231.5,76.1,231.5,80.8"/>
	<path id="Fill-193" class="st2" d="M326,72.5c-16.3,0.4-32.7,0-49,0.9c-8,0.4-16,1.3-24,2.1c-3.9,0.4-7.9,0.9-11.8,1.4
		c-1.2,0.1-11,0.5-7.3,4.3c1.6,1.6,6.8-0.1,8.8-0.3c3.9-0.5,7.9-0.9,11.8-1.3c7.5-0.8,15-1.5,22.6-2c17.7-1,35.6-0.7,53.3-1.3
		c4.8-0.2,9.6-0.3,14.4-0.1c1.3,0,10.5,0.5,6.5-2.9c-1.9-1.6-9.1-0.8-11.5-0.8C335.2,72.3,330.6,72.4,326,72.5"/>
	<path id="Wireframy-Stuff" class="st2" d="M351.4,122.1C351.4,122.1,351.4,122.1,351.4,122.1c-0.9,1.3-4.2,1-5.6,1.1
		c-4.4,0.3-8.7,0.8-13,1.4c-8.6,1.3-17.2,2.1-26,2.3c-17.3,0.4-34.6,0-51.9,1.2c-3.8,0.3-7.6,0.7-11.3,1.4c-2.7,0.5-7.9,2.3-8.2-2.2
		c-0.4-5.3,13-5.3,16.9-5.7c16.5-1.5,33.2-1.2,49.7-1c8,0.1,16,0.4,23.9-0.1c8-0.5,16.2-0.4,24.1-1.2c-1-4-0.9-8.9-1.2-12.9
		c-0.7-10.4-0.5-20.8-1-31.1c-0.2-4.6,6-5.3,7.9-1.6c1.9,3.7,0.7,11.2,0.8,15.3c0.3,9.6,2.1,20.3,0.2,29.8
		C356,122.2,353.2,123.9,351.4,122.1z"/>
	<path id="Fill-199" class="st3" d="M361.4,78.7c-2.2,0.3-4,2.2-3.1,4.6c1.2,3,4.9,1.8,7.4,1.6c7.8-0.6,15.8,0.6,23.5-0.3
		c2.1-0.3,5.1-1.4,3.2-4.2c-1.4-2.1-6.6-1.7-8.7-1.9C376.3,77.8,368.9,78,361.4,78.7"/>
	<path id="Fill-201" class="st3" d="M374.5,91.8c-3,0.2-10,0-11.3,3.5c-2.3,6.1,6.6,4,9.3,3.6c3.1-0.4,10.6,0.7,12.2-2.4
		C387.8,91.1,377.1,91.7,374.5,91.8"/>
	<path id="Fill-203" class="st3" d="M366.8,105.3c-1.4,1.4-1.4,4,0,5.4c1.7,1.7,5.6,1.4,7.9,1.5c3.2,0.2,12.4,1.9,14-1.9
		c2.1-5.1-6.2-5-8.9-5.3C376.5,104.7,369.4,102.7,366.8,105.3"/>
	<path id="Fill-205" class="st1" d="M254.4,18.2c0,5.5,8.5,5.5,8.5,0C263,12.7,254.4,12.6,254.4,18.2"/>
	<path id="Fill-207" class="st1" d="M270.7,18.2c0,6.3,9.7,6.2,9.7,0C280.4,12,270.7,11.9,270.7,18.2"/>
	<path id="Fill-209" class="st1" d="M260.8,26.5c-4.7,1.3-0.4,5.3,1.8,6.2c3.5,1.5,8.3,2.5,11.8,0.3c1.4-0.9,2.5-2,1.5-3.7
		c-1.1-1.8-2.6-1-4.2-0.8c-2.1,0.2-3.8,0.2-5.8-0.5C264.4,27.6,262.5,26.1,260.8,26.5"/>
	<path id="Fill-211" class="st1" d="M346.7,18.5c0,3.7,5.7,3.7,5.7,0S346.7,14.8,346.7,18.5"/>
	<path id="Fill-213" class="st1" d="M359.4,19.1c0,4.1,6.4,4.1,6.4,0S359.4,14.9,359.4,19.1"/>
	<path id="Fill-215" class="st1" d="M358.9,28c-3.4,0.4-13.1,1.4-13.6,5.6c-0.8,6.4,9.8,1.2,12.2,0.7c3.1-0.6,5.8-0.5,8.9-0.3
		c1.7,0.1,3.9,0.3,3.8-2.2C370,27.4,361.9,27.6,358.9,28"/>
	<path id="Fill-217" class="st2" d="M274.6,86.8c-2.4,0.6-5.6,4.9-3.9,7.4c2.7,4.2,4-2.3,5.1-2.9c2.1-1.1,3.8,3,6,0.8
		C285.2,88.8,276.8,86.2,274.6,86.8"/>
	<path id="eye" class="st2" d="M302.5,83.7c-2.9,0-9,4.1-9.4,7.1c-0.3,1.8,0.9,3.5,2.9,3.5c2.6,0,3.5-3.4,5.7-4.1
		c2.5-0.8,2.1,1,4.2,1.9c1.6,0.7,3.5,0.4,4-1.5C310.9,87.1,305.4,83.6,302.5,83.7"/>
	<path id="Fill-221" class="st2" d="M280.4,101c-4.6,2.7,3,8.5,5.6,9.2c4,1.1,12-0.9,12.9-5.8c0.4-1.9-0.8-3.7-3-3.3
		c-1.8,0.3-2.9,2.5-4.5,3.3c-2.2,1.1-4.1,1-6-0.6C283.9,102.4,283.1,99.4,280.4,101"/>
	<path id="Fill-223" class="st3" d="M283.7,140.9c-4.1,0.9-8.3,0.3-12.4,1.1c-4.2,0.8-6.7,2.4-10.7,0.8c-0.2-0.1-0.4-0.2-0.6-0.2
		c-3-1.3-6.2-1.7-9.4,0.4c-1.9,1.2-7.6,5.5-6.9,8.1c1.5,5.6,7.9-3.2,9.6-4.1c3.1-1.6,5.3,0.5,8.5,1c3.9,0.7,7-1.3,10.6-2.1
		c4.2-0.9,9-1.3,13.3-1.8c1.7-0.2,8.2,1.1,8.7-1C295.5,139.5,285.3,140.5,283.7,140.9"/>
	<path id="Fill-225" class="st3" d="M313.4,152.2C313.7,152.5,313.5,152.3,313.4,152.2 M325,140.7c3.5-0.4,14.8-2.9,17.1,0.8
		c1.5,2.4-0.9,11.1-3.2,12.3c-1.8,0.9-6.1-0.1-8.1-0.2c-3.7-0.1-7.5-0.2-11.2-0.4c-1.2-0.1-5.3,0.2-6.2-1c-1.2-1.3-1.1-8.3-1.4-10
		C315.3,143.2,321.6,141,325,140.7 M332.5,137.1c-4.5,0.2-9,0.5-13.5,1.1c-2.5,0.3-5,1.2-7.3,1.7c-0.7,0.1-2-0.2-2.9,0.2
		c-2.7,1.3-0.3,10,0.3,12.3c1,3.6,3.5,4.2,7,4.5c4.6,0.4,9.3,0.3,13.9,0.2c4.4-0.1,10.4,0.9,12.9-3.5c1.6-2.9,3.3-9.6,2-12.8
		C343,136.6,336.2,136.9,332.5,137.1"/>
	<path id="quare" class="st1" d="M383.1,154.6C382.9,155,382.9,155,383.1,154.6 M384.1,153.5C384,153.6,383.7,153.9,384.1,153.5
		 M373.3,153.1c2-0.4,4-0.7,6-1.1c-1.9,2.6-3.9,1.6-7.1,1.3C372.6,153.3,373,153.2,373.3,153.1 M363.8,152.2c0.5-0.2,1-0.3,1.5-0.5
		c0,0.4,0.1,0.7,0.2,1.1c-0.9-0.1-1.7-0.2-2.6-0.3C363.3,152.4,363.6,152.3,363.8,152.2 M359.4,148.9c0-0.7,1-0.2,1.6-0.3
		C359.9,149.7,359.3,149.8,359.4,148.9 M375.2,141.1c0.2-0.2,0.4-0.2,0.6,0C375.5,141.2,374.4,141.6,375.2,141.1 M385.4,139.9
		C385.4,139.9,386,140.6,385.4,139.9 M385.1,139.6C385.2,139.7,385.2,139.7,385.1,139.6 M383.8,139.5
		C385.9,139.8,385.7,142.3,383.8,139.5 M359.3,139.3C358.9,139.7,359,139.3,359.3,139.3 M367.3,134.1c-3.5,0.2-10.1,0-13,1.9
		c-3.9,2.5-1.8,11-1.5,14.7c0.5,5.5,3.1,7.1,8.3,7.6c6.2,0.7,12.5,0.8,18.7,0.7c5.6-0.1,8.8-2.1,9.8-8c0.3-1.8,1.1-4.6,1.1-6.3
		c0-1.2-0.6-1.7-0.8-2.8c-1.3-5.8-3.4-6.5-9.4-6.7C376.1,135,371.6,133.9,367.3,134.1"/>
</g>
<g id="Profile" transform="translate(297.000000, 339.000000)" class="st0">
	<path id="face_2_" class="st1" d="M302,4.9c9,0.2,19.2,5.2,17.8,15.7c-1,7.7-7.7,14-15.5,14.6c-8.3,0.6-17.2-5.8-18.3-14.3
		C284.8,11.4,293.2,4.7,302,4.9 M297.6,0.6c-3.7,0.5-7.1,2.5-10.4,4.2c-1.2,0.7-7.5,4.7-2.6,5.7c-11.8,19,15.9,36.6,31.5,24.3
		c7-5.5,10.7-16,6.2-24.3C317.6,2,306.6-0.7,297.6,0.6"/>
	<path id="Fill-231" class="st1" d="M295.5,16.8c0,3.5,5.5,3.5,5.5,0S295.5,13.2,295.5,16.8"/>
	<path id="Fill-233" class="st1" d="M305.7,17.3c0,3.8,6,3.8,6,0S305.7,13.5,305.7,17.3"/>
	<path id="Fill-235" class="st1" d="M298.8,24.9c-0.8,2.9,8.3,4.4,8.7,1C307.6,24.4,299.3,22.9,298.8,24.9"/>
	<path id="Fill-237" class="st1" d="M325.6,23.1c10.5-1.3,21.4-0.7,32-0.4c2.6,0.1,5.3,0.2,7.9,0.2c1.7,0,5.3,0.8,6.8,0
		c6-3.2-5.8-4.8-7.5-4.9c-10.5-0.9-26.8-1.2-37.3-0.8C324.4,17.4,323.7,23.4,325.6,23.1"/>
	<path id="Hola-:_x29_" class="st3" d="M373,75.5c0.1-11,0.5-22.1,1.3-33.1c0.3-4.5,0.8-9,1.1-13.4c0.2-2.1,0.9-5.1-0.3-6.9
		c-1.3-1.9-4.1-2.3-5.8-0.6c-2,2.6-1.4,7-1.7,10.2c-0.4,4.9-0.9,9.7-1.1,14.6c-0.4,9.5-0.6,19.1,0.2,28.5c0.4,4.5,1.1,8.8,2.2,13.1
		c0.5,2,4.2,10.8,3.4,12c-1.2,1.9-10.2,1.2-12.2,1.2c-5,0.1-10,0.2-15.1,0.3c-4.3,0.1-8.6,0.1-12.9,0.2c-1.7,0-11.7-0.3-9.5,2.2
		c-24.9,1.7-50.3-1.2-75-2.2c-1.3-0.1-3.3-0.4-5.2-0.5c-0.2-0.9-0.4-1.7-0.5-2.3c-0.3-4-0.4-8-0.8-11.9c-0.6-7.3-1.9-14.5-2.6-21.7
		c-0.7-7.3-0.7-14.5-1.1-21.8c-0.1-1.2-0.2-11.5-2.8-13.9c1.2,0.5,3.2,0.5,4.3,0.4c9.2-0.7,18.3-2.3,27.4-3.7
		c2.6-0.4,8.5-0.1,10.7-1.4c1.9-1.1,2.6-5.1-0.6-4.8c-9.1,1-18.1,2.5-27.1,4c-2.4,0.4-4.8,0.8-7.2,1.3c-1.6,0.3-5.8,0.3-7.1,1.2
		c-1.5,1.2-1.7,2-1.2,2.5c-0.7-0.2-1.6,0.1-2.6,1.1c-1.9,2.5-0.1,8.7,0.1,11.7c0.3,3.5,0.4,7.1,0.6,10.7c0.3,6.9,1,13.7,2.1,20.5
		c1.2,7.6,2.3,15.3,3.5,22.9c0.3,2,0.7,3.9,1.3,5.8c-3.3,1.7-1.1,4.4,1.6,4.9c0,0,0,0,0.1,0c0.8,2,2,3.9,2.9,1.2
		c0.1-0.2,0.1-0.5,0.1-0.8c6.9,0.8,14.4,0.3,21.2,0.6c14.6,0.6,29.3,1.5,44,1c5.8-0.2,11.6-0.7,17.4-1.5c3.4-0.5,6.7-1,10.1-1.7
		c0.2-0.1,0.6-0.1,1-0.2c0.1,0,0.1,0,0.2,0c5.1-0.1,10.1-0.2,15.2-0.4c4.3-0.2,8.5-0.3,12.8-0.7c2.6-0.2,8.2-0.2,9.8-2.9
		c1.5-2.4-1-8.6-1.3-11.3C373.2,85.1,372.9,80.3,373,75.5"/>
	<path id="Fill-241" class="st1" d="M321.6,43.6c-4.1,0.3-7.8,2.3-11.9,2.3c-3.4,0-6.8-1-10.3-0.9c-4.1,0.2-6.3,2.8-9.8,3.7
		c-2.8,0.7-4.6-1.5-7.1-2.4c-3.1-1.2-5.5-0.6-8.1,1.2c-2,1.3-6.6,4.4-6.5,7.1c0.1,8.2,9.7-3.1,11.6-3.3c2.6-0.2,5.4,2.7,8.2,2.9
		c3.6,0.2,5.9-2.1,9.3-3c3.4-0.9,7,0.2,10.4,0.5c3.9,0.4,7.2-0.5,10.9-1.4c3.6-0.9,6.7-0.8,10.4-0.1c2.5,0.5,8.6,3.4,9.7-0.3
		C339.8,44.8,324.4,43.4,321.6,43.6"/>
	<path id="Fill-243" class="st1" d="M322.8,59.3c-8.3,0.8-16.7,1.5-25,1.7c-3.6,0.1-17.5-1.5-16.3,3.1c1.1,3.9,20,1.5,23.8,1.2
		c4.3-0.3,8.5-0.8,12.7-1.3c1.5-0.2,5.1,0,6.2-1.3C325.2,61.6,324.7,59.1,322.8,59.3"/>
	<path id="have-a-nice-day-:_x29_" class="st1" d="M265.5,80.2C265.3,80.3,265.3,80.3,265.5,80.2 M267.2,80.2
		c2.1-0.1,1.6-1.2,3.7-0.6c1,0.3,1.1-0.1,1.8,0.8c1.4,1.8,0.1,5.6-1.3,7.1C266.1,92.8,259.8,80.4,267.2,80.2 M267.2,75
		c-14.4,0.5-8.4,22.7,4.2,18.2c5.2-1.9,8.4-10.3,5.4-15.1c-1.5-2.3-3.4-2.7-5.9-2.9c-0.6,0-1.3,0.8-1.7,0.8
		C268.4,75.9,268.5,74.9,267.2,75"/>
	<path id="espero" class="st1" d="M301.7,81c-0.3-0.1,4.5,1.3,4,0.8c1.1,1.2-0.4,3.9-1.7,4.4C301,87.3,299.2,82.5,301.7,81
		 M303.8,75c-4.5,0.6-8,2.5-8.6,7.5c-0.6,4.6,2.6,9.3,7.5,9.4C313.4,92.1,313.8,73.6,303.8,75"/>
	<path id="hola" class="st1" d="M352.9,81.2C353.5,89.4,345,81.9,352.9,81.2 M349.2,72.4c-0.7,1.3-0.1,2.6,1,3.4
		c-10.1,2.1-7.8,17.3,2.5,15c5.2-1.1,6.2-6.6,5.4-11.1C357.7,77.5,352.4,67,349.2,72.4"/>
</g>
<path id="Fill-251" class="st4" d="M670,419.3c-3,0.5-10.1,3.8-10,7.4c0.1,5.5,6.1-0.5,7.5-1.3c7.2-4.4,16.5,1.3,24,2.5
	c3.4,0.6,10.2,1.6,13.2-0.7c5.4-4.1-7.1-3.1-8.7-3.2C687.3,423,678.7,417.7,670,419.3"/>
<g id="Checkmark_x21_" transform="translate(358.000000, 501.000000)" class="st0">
	<path id="Fill-292" class="st1" d="M255.7,9.4c9.5,1.4,19.4,5.9,19.3,16.9c-0.1,9.3-7.9,19.2-17.9,18.6c-9-0.5-17.5-10.4-18.6-18.8
		c-0.6-4.4,0.5-9.1,3.1-12.7C244.9,8.7,250.3,8.7,255.7,9.4 M251.2,3.4c-6.9,0-11.9,2.5-16.2,7.8c-1.5,1.9-3.3,3.9-4.5,6
		c-1.1,2-0.9,7.1,2.8,4.7c-0.9,9.8,4.8,19.3,13.1,24.3c9,5.5,19.1,4.4,26.5-3.3c6.8-7,9.2-18.8,4.2-27.5
		C272.2,6.8,260.7,3.3,251.2,3.4"/>
	<path id="Fill-294" class="st1" d="M271.8,0.7c-4.4,3.2-8.4,7.5-11.8,11.8c-3.3,4.2-5.4,9.5-9.3,13.1c-2-2.2-4.3-8-8.2-5.7
		c-3.3,1.9-1.2,5.2,0.4,7.4c4.1,5.6,8.7,7.8,14,2.3c4.8-5,7.5-11.7,12-17c2-2.3,5-4.6,6.6-7.2C276.9,3.1,275.1-1.7,271.8,0.7"/>
</g>
<g id="humaaans_x2F_standing-19">
	<g id="humaaan-3" transform="translate(28.000000, 2.000000)">
		
			<g id="Head_x2F_Front_x2F_Short-Beard" transform="translate(133.219486, 73.532869) rotate(-15.000000) translate(-133.219486, -73.532869) translate(59.569689, 17.301852)">
			<g id="Head" transform="translate(58.494090, 33.282773)">
				<path class="st5" d="M-39.6,114.1c-5-5.8-8.4-12.9-7.8-20.9c1.6-23,33.9-17.9,40.2-6.3s5.5,41-2.6,43.1
					c-3.2,0.8-10.1-1.2-17.1-5.4l4.4,30.9h-26L-39.6,114.1z"/>
			</g>
			<path id="Hair" class="st6" d="M32.8,129c1,13.7,3.6,20.6,7.9,20.6c6.4,0,11.8-4,14.6-4c2,0,1.6,2.5,0.2,4.4
				c-1.1,1.6-6.6,3.1-6.6,5.5c0,2.4,4.3,0.5,4.3,2c0,2.4,0.8,6.8-3.4,6.8c-4.2,0-16.2-1.5-18.3-7.7c-1.3-4-2.2-12.2-2.6-24.7
				c-0.3,0-0.5,0-0.8,0c-3.6,0-6.5,2.9-6.5,6.4c0,1.8,0.7,3.4,2,4.6c-1.5,2.1-3.2,4.3-5.1,6.6c-7.3-4.3-12.6-16.9-5.5-29.1
				c2-5.9,6.4-9.1,11.6-10.6c4.2-1.8,8.7-2,12.4-0.9c7.3,0.6,13.8,2.8,15.7,4.1c0,6.8-1.3,8.9-12.8,8.7
				C37.2,123.1,35,125.7,32.8,129z"/>
		</g>
		<g id="Bottom_x2F_Standing_x2F_Baggy-Pants" transform="translate(0.000000, 218.435876)">
			<polygon id="Leg" class="st7" points="118.2,87 171.3,221 207,334.4 221.1,334.4 166.5,87 			"/>
			<path id="Leg_1_" class="st5" d="M107.4,87c-0.6,47.1-8.8,110.5-10.1,113.5c-0.9,2-31.2,26.9-91.1,74.7l9.7,10.3
				c70.6-41,107.5-64.2,110.8-69.7c4.9-8.2,20.9-83.7,33.7-128.8H107.4z"/>
			
				<g id="Accessories_x2F_Shoe_x2F_Flat-Sneaker" transform="translate(55.786030, 203.938854) rotate(50.000000) translate(-55.786030, -203.938854) translate(22.747702, 182.358023)">
				<path id="shoe" class="st8" d="M52.2,104.1c-1.2,3.2-1.8,5.7-1.8,7.3c0,2,0.3,4.8,1,8.6c2.3,0,22.6,0,61.1,0
					c1.6-5.2,0.7-8.1-2.7-8.5s-6.3-0.8-8.5-1.1L72.8,97.6c-0.5-0.2-1.2,0-1.4,0.5c0,0,0,0,0,0l-1.8,4.4c-3.2,1.5-5.7,2.2-7.7,2.2
					c-1.6,0-3.8-0.6-6.7-1.9l0,0c-1.1-0.5-2.4,0-2.9,1.1C52.2,104,52.2,104.1,52.2,104.1z"/>
			</g>
			<g id="Accessories_x2F_Shoe_x2F_Flat-Sneaker_1_" transform="translate(225.310568, 214.729269)">
				<path id="shoe_1_" class="st8" d="M-24.1,114.5c-1.2,3.2-1.8,5.7-1.8,7.3c0,2,0.3,4.8,1,8.6c2.3,0,22.6,0,61.1,0
					c1.6-5.2,0.7-8.1-2.7-8.5c-3.4-0.4-6.3-0.8-8.5-1.1L-3.5,108c-0.5-0.2-1.2,0-1.4,0.5c0,0,0,0,0,0l-1.8,4.4
					c-3.2,1.5-5.7,2.2-7.7,2.2c-1.6,0-3.8-0.6-6.7-1.9l0,0c-1.1-0.5-2.4,0-2.9,1.1C-24.1,114.4-24.1,114.5-24.1,114.5z"/>
			</g>
			<polygon id="Pant" class="st2" points="153.9,322.7 220.8,315.5 171.2,87 111.3,87 			"/>
			<path id="Pant_1_" class="st1" d="M20.1,258.5L64,310.2c46.3-50.3,73.2-83.2,80.9-98.5s14.6-56.9,20.7-124.7H98.1
				c-3.3,59.7-5.6,90.9-6.8,93.6C90.2,183.4,66.4,209.4,20.1,258.5z"/>
		</g>
		
			<g id="Body_x2F_Hoodie" transform="translate(161.379703, 207.081536) rotate(-10.000000) translate(-161.379703, -207.081536) translate(22.744790, 105.973841)">
			<path id="Skin" class="st5" d="M165,180.4l34.6,25.2c9.4,2.5,17.2,5.6,23.5,9.4c1.5,1.3,3.3,4.1-2.9,3.6
				c-6.2-0.5-12.7-0.7-13.5,1.4c-0.8,2.1,2.9,4.6,1.2,7.4c-1.1,1.9-6.6-2.8-16.2-14.1l-34.2-14.1L165,180.4z M32.3,181.3l22.6,0.1
				c-14,44.9-21.5,68.7-22.6,71.5c-2.5,6.2,2.8,15.6,5.1,20.7c-7.4,3.3-6.6-8.9-15.9-4.6c-8.5,3.9-15,11.1-24.8,5
				c-1.2-0.7-2.5-3.5,0.7-5.7c8-5.4,19.5-15,21-18.1C20.4,245.8,25.1,222.9,32.3,181.3z"/>
			<path id="Coat-Back" class="st9" d="M96.6,86.7l9.4-1.6c34.8,29.9,49,87.3,91.6,117.7l-10.3,12.6
				C113.5,206.3,95.1,136.3,96.6,86.7z"/>
			<path id="Shirt" class="st10" d="M55.8,203.9c37.6,0,65.2,0,82.9,0c3.8,0,3.1-5.4,2.5-8.2c-6.3-31.7-31-65.9-31-111L86.3,81
				C66.5,112.6,59.7,151.6,55.8,203.9z"/>
			<path id="Coat-Front" class="st11" d="M56.5,112.1c-3.5-1-6.2-3.3-8.2-6.9C39.5,89.5,42.6,80.8,52,78c9.3-2.8,17.7,3,32.5,3
				c0.8,0,1.6,0.1,2.2,0.2l7.5,0.4c21.5,72.4,27.4,120.7,17.8,144.9l-65.2,0c-3.9,9-7.6,16.5-11.1,22.6H17.9
				C16.2,195.3,29.1,149.6,56.5,112.1z"/>
			<path id="Shade" class="st12" d="M61,189.3c2.1,17.1,5.4,29.5,10,37.2H46.8C51.3,216,56,203.6,61,189.3z"/>
		</g>
	</g>
</g>
</svg>
