<svg xmlns="http://www.w3.org/2000/svg" viewBox="0 0 153.86 153.86">
      <title>Ambiental</title>
      <g id="Layer_2" data-name="Layer 2">
        <g id="Black">
          <path d="M153.81,74.83a1.27,1.27,0,0,1,0-.2,76.93,76.93,0,1,0,0,4.6,1.27,1.27,0,0,1,0-.2c0-.7.05-1.4.05-2.1S153.83,75.53,153.81,74.83Zm-76.88,67a64.93,64.93,0,1,1,38.71-117A54.64,54.64,0,0,0,44.67,76c0,.3,0,.6,0,.91s0,.61,0,.91a54.64,54.64,0,0,0,71,51.18A64.53,64.53,0,0,1,76.93,141.86Zm0-85.2A20.27,20.27,0,1,1,56.66,76.93,20.29,20.29,0,0,1,76.93,56.66Zm22.32,62.86a42.38,42.38,0,0,1-28.42-10.9,32.27,32.27,0,1,0,0-63.38,42.58,42.58,0,1,1,28.42,74.28Z"></path>
        </g>
      </g>
    </svg>