<svg xmlns="http://www.w3.org/2000/svg" xmlns:xlink="http://www.w3.org/1999/xlink" viewBox="0 0 308.72 70.71803"><defs><style>.cls-1{fill:none;}.cls-2{fill:#b4b4b4;stroke:#b4b4b4;stroke-miterlimit:10;stroke-width:6px;}.cls-3{fill:#e9478b;}.cls-4{fill:#3ebeb0;}.cls-5{fill:#37a595;}.cls-6{fill:#353535;}.cls-7{fill:#231f20;}.cls-8{fill:#f3bd19;}.cls-9{clip-path:url(#clip-path);}.cls-10{fill:#f0bf1a;}.cls-11{fill:#07a5de;}.cls-12{fill:#d7a229;}.cls-13{fill:#019b8f;}</style><clipPath id="clip-path" transform="translate(-20.28 -23.64099)"><circle class="cls-1" cx="59" cy="59" r="35.2"/></clipPath></defs><title>my_elastic_logstash_kibana</title><g id="Layer_5" data-name="Layer 5"><line class="cls-2" x1="223.72146" y1="21.35901" x2="223.72146" y2="52.35901"/><line class="cls-2" x1="238.72146" y1="36.35901" x2="207.72146" y2="36.35901"/><line class="cls-2" x1="93.88667" y1="21.19235" x2="93.88667" y2="52.19235"/><line class="cls-2" x1="108.88667" y1="36.19235" x2="77.88667" y2="36.19235"/></g><g id="Layer_6" data-name="Layer 6"><path class="cls-3" d="M276.019,50.21223a54.66678,54.66678,0,0,1,25.72636,6.49527L329,23.97643H275.00012V50.21223H276.019Z" transform="translate(-20.28 -23.64099)"/><path class="cls-4" d="M301.74534,56.7075,275.00012,88.92912v5.09433h53.87251A54.35591,54.35591,0,0,0,301.74534,56.7075Z" transform="translate(-20.28 -23.64099)"/><path class="cls-5" d="M301.74534,56.7075,275.00012,88.92912v5.09433H284.552l25.98107-31.33011s-1.783-1.40094-4.20282-3.184C304.54722,58.2358,301.74534,56.7075,301.74534,56.7075Z" transform="translate(-20.28 -23.64099)"/><path class="cls-6" d="M276.019,50.21223h-1.01886V88.92912L301.74534,56.7075A54.66669,54.66669,0,0,0,276.019,50.21223Z" transform="translate(-20.28 -23.64099)"/></g><g id="Layer_2" data-name="Layer 2"><path class="cls-5" d="M178.916,61.443h6.94323V94.359H178.916Z" transform="translate(-20.28 -23.64099)"/><path class="cls-4" d="M178.916,61.443h29.95872V94.359H178.916Z" transform="translate(-20.28 -23.64099)"/><path class="cls-7" d="M178.916,94.359A32.89706,32.89706,0,0,1,146,61.443h32.916Z" transform="translate(-20.28 -23.64099)"/><path class="cls-8" d="M178.916,61.443H146.12858V23.641h9.90052A22.85512,22.85512,0,0,1,178.916,46.52791Z" transform="translate(-20.28 -23.64099)"/></g><g id="Layer_3" data-name="Layer 3"><g class="cls-9"><path class="cls-10" d="M74.07,43.6H26a2.20647,2.20647,0,0,1-2.2-2.2V26A2.20647,2.20647,0,0,1,26,23.8H88.7A2.20647,2.20647,0,0,1,90.9,26v.77A16.97275,16.97275,0,0,1,74.07,43.6Z" transform="translate(-20.28 -23.64099)"/></g><g class="cls-9"><path class="cls-4" d="M91.01,94.2H24.02V74.4H74.29A16.71258,16.71258,0,0,1,91.01,91.12Z" transform="translate(-20.28 -23.64099)"/></g><g class="cls-9"><path class="cls-11" d="M70.11,68.9H20.28V49.1H70.11a9.9,9.9,0,0,1,0,19.8Z" transform="translate(-20.28 -23.64099)"/></g><g class="cls-9"><path class="cls-7" d="M54.6,49.1H22.04V68.9H54.6a41.10506,41.10506,0,0,0,0-19.8Z" transform="translate(-20.28 -23.64099)"/></g><path class="cls-12" d="M41.29,28.53A36.22537,36.22537,0,0,0,27.32,43.6H53.28A38.29236,38.29236,0,0,0,41.29,28.53Z" transform="translate(-20.28 -23.64099)"/><path class="cls-13" d="M42.39,90.02A39.25261,39.25261,0,0,0,54.05,74.4H27.32A36.2444,36.2444,0,0,0,42.39,90.02Z" transform="translate(-20.28 -23.64099)"/></g></svg>