<svg id="Layer_1" data-name="Layer 1" xmlns="http://www.w3.org/2000/svg" viewBox="0 0 391.69434 380.0299"><defs><style>.cls-1{fill:#008cdb;}</style></defs><title>my_kubernetes</title><path class="cls-1" d="M176.1,230.9a7.33426,7.33426,0,0,0-6.9-5.6,6.60155,6.60155,0,0,0-1.4.1l-.1-.1-42.1,7.1a84.13863,84.13863,0,0,0,33.9,42.4l16.3-39.4-.1-.2a6.8178,6.8178,0,0,0,.4-4.3Zm-14-30.3a7.031,7.031,0,0,0,3.7-2.5,7.18581,7.18581,0,0,0-.9-9.9V188l-32-28.6A83.78853,83.78853,0,0,0,121,212.5l41-11.8.1-.1Zm55.6-37.9a7.54872,7.54872,0,0,0,1.6,4.2,7.21882,7.21882,0,0,0,9.9,1.3l.1.1,34.8-24.7a83.85085,83.85085,0,0,0-48.8-23.5l2.4,42.6Zm-24.5,50.5,11.8,5.7,11.8-5.7,2.9-12.7-8.2-10.2H198.4l-8.1,10.2Zm-12.4-44.9a6.8468,6.8468,0,0,0,4.2,1.4,7.24485,7.24485,0,0,0,7.2-6.9l.2-.1,2.4-42.7a87.93058,87.93058,0,0,0-8.7,1.5,83.28245,83.28245,0,0,0-40.4,22l35.1,24.8Zm96-8.8L245,188v.1a7.82717,7.82717,0,0,0-2.3,3.8,7.092,7.092,0,0,0,5.1,8.5v.2L289,212.5a84.44689,84.44689,0,0,0-1.8-27.3,79.83537,79.83537,0,0,0-10.4-25.7Z" transform="translate(-9.12928 -7.07011)"/><path class="cls-1" d="M400.2,238.2,366.6,92.1a25.68336,25.68336,0,0,0-14.1-17.5L216.3,9.6a26.48194,26.48194,0,0,0-22.6,0L57.5,74.7A26.16413,26.16413,0,0,0,43.4,92.2L9.8,238.3a25.6441,25.6441,0,0,0,3.5,19.8l1.5,2.1L109,377.4a26.14716,26.14716,0,0,0,20.4,9.7H280.5a26.44806,26.44806,0,0,0,20.4-9.7l94.2-117.2a26.12568,26.12568,0,0,0,5.1-22Zm-51.8-1.8c-1,4.4-5.7,7-10.5,6h-.1c-.1,0-.1,0-.2-.1a12.91022,12.91022,0,0,1-2.1-.5c-2.8-.7-4.8-1.9-7.3-2.8-5.4-1.9-9.9-3.5-14.2-4.2-2.2-.2-3.3.9-4.6,1.7-.6-.1-2.4-.4-3.5-.6a105.909,105.909,0,0,1-47,59.1,21.7686,21.7686,0,0,0,1.4,3.3c-.5,1.4-1.3,2.7-.6,4.8,1.6,4.1,4.1,8.1,7.2,12.9a66.89754,66.89754,0,0,1,4.4,6.5c.3.6.8,1.5,1.1,2.2,2.1,4.5.6,9.6-3.5,11.6s-9.1-.1-11.3-4.6c-.3-.6-.7-1.5-1-2.1a54.31708,54.31708,0,0,1-2.4-7.5c-1.9-5.4-3.4-9.9-5.6-13.7-1.2-1.8-2.8-2.1-4.2-2.5-.3-.4-1.2-2.2-1.7-3.1a107.87187,107.87187,0,0,1-14,4.2,104.90637,104.90637,0,0,1-61.2-4.4l-1.8,3.3c-1.4.4-2.7.7-3.5,1.7-3,3.5-4.2,9.2-6.3,14.6a59.016,59.016,0,0,1-2.4,7.5c-.3.6-.7,1.4-1,2.1-2.2,4.5-7.2,6.5-11.2,4.6s-5.6-7.1-3.5-11.6c.3-.6.7-1.6,1-2.2,1.3-2.6,2.9-4.3,4.4-6.5,3.1-4.8,5.8-9.2,7.4-13.3.4-1.4-.2-3.2-.7-4.6l1.5-3.6a106.13784,106.13784,0,0,1-47-58.7l-3.6.6c-1-.5-2.9-1.8-4.7-1.7-4.4.6-8.8,2.2-14.2,4.2a52.63549,52.63549,0,0,1-7.3,2.8c-.6.2-1.4.3-2.1.5-.1,0-.1,0-.2.1h-.1c-4.8,1-9.5-1.6-10.5-6-1-4.3,2.1-8.8,6.9-9.9h.2A22.4934,22.4934,0,0,1,71,226a70.0436,70.0436,0,0,1,7.8-.6c5.7-.6,10.4-1.1,14.6-2.4,1.3-.5,2.6-2.4,3.5-3.5l3.4-1A105.35644,105.35644,0,0,1,116.9,145l-2.6-2.3c-.2-1-.4-3.4-1.6-4.7-3.2-3-7.2-5.5-12.1-8.5-2.3-1.4-4.4-2.2-6.8-4a20.94642,20.94642,0,0,1-1.7-1.4L92,124c-3.9-3.1-4.8-8.5-2-12a7.82014,7.82014,0,0,1,6.5-2.9,10.50794,10.50794,0,0,1,5.7,2.1c.6.4,1.3,1,1.8,1.4a71.753,71.753,0,0,1,5.4,5.7c4,4.1,7.3,7.5,11,9.9,1.9,1.1,3.4.7,4.8.5.5.3,2,1.5,2.9,2.1a105.10557,105.10557,0,0,1,53.2-30.4,106.82854,106.82854,0,0,1,14.7-2.3l.2-3.4a8.79833,8.79833,0,0,0,2.6-4.2c.4-4.4-.2-9.1-.9-14.8a64.87682,64.87682,0,0,1-1.1-7.7V65.7c0-5,3.6-9.1,8.1-9.1s8.1,4.1,8.1,9.1V68a59.44681,59.44681,0,0,1-1.1,7.7c-.7,5.7-1.3,10.4-.9,14.8.3,2.2,1.6,3.1,2.7,4.1,0,.6.1,2.6.2,3.6a106.70287,106.70287,0,0,1,67.6,32.7l3.1-2.2c1.1.1,3.4.4,4.9-.5,3.6-2.5,7-5.9,11-9.9a57.26347,57.26347,0,0,1,5.4-5.7c.5-.4,1.3-1,1.8-1.4,3.9-3.1,9.3-2.8,12.2.7s1.9,8.9-2,12c-.6.4-1.3,1.1-1.8,1.4-2.3,1.7-4.5,2.6-6.8,4-4.9,3-8.9,5.5-12.1,8.5-1.5,1.6-1.4,3.2-1.5,4.6-.5.4-2,1.8-2.9,2.6a106.63586,106.63586,0,0,1,15.3,35.3,104.15876,104.15876,0,0,1,1.7,38l3.3,1c.6.8,1.8,2.9,3.5,3.5,4.2,1.3,8.9,1.8,14.6,2.4a70.04291,70.04291,0,0,1,7.8.6,21.042,21.042,0,0,1,2.4.6c4.9,1.3,8,5.7,7,10Z" transform="translate(-9.12928 -7.07011)"/><path class="cls-1" d="M211.3,246.4a7.37851,7.37851,0,0,0-3.2-3.1,6.72221,6.72221,0,0,0-3.4-.7,7.34944,7.34944,0,0,0-6.1,3.8l-20.7,37.4a84.08823,84.08823,0,0,0,46,2.4,78.35739,78.35739,0,0,0,8.3-2.3l-20.7-37.5h-.2Zm30.8-21.1a4.73471,4.73471,0,0,0-1.7-.1,7.18448,7.18448,0,0,0-6.3,10l-.1.1,16.5,39.8a83.70246,83.70246,0,0,0,34-42.7l-42.4-7.1Z" transform="translate(-9.12928 -7.07011)"/></svg>